<?xml version="1.0" encoding="UTF-8" standalone="no"?><!DOCTYPE svg PUBLIC "-//W3C//DTD SVG 1.1//EN" "http://www.w3.org/Graphics/SVG/1.1/DTD/svg11.dtd"><svg width="100%" height="100%" viewBox="0 0 2560 500" version="1.1" xmlns="http://www.w3.org/2000/svg" xmlns:xlink="http://www.w3.org/1999/xlink" xml:space="preserve" xmlns:serif="http://www.serif.com/" style="fill-rule:evenodd;clip-rule:evenodd;stroke-linejoin:round;stroke-miterlimit:1.41421;"><rect x="0" y="0" width="2560" height="500" style="fill:#96cdc4;"/><g opacity="0.5"><g><path d="M1240.77,463.023l-699.529,9.568c-8.689,0.12 -15.803,-6.898 -15.803,-15.587l715.332,0l0,6.019Z" style="fill:#c0e0da;fill-rule:nonzero;"/><path d="M764.468,459.259c-5.328,-17.348 -21.467,-29.958 -40.56,-29.958c-19.092,0 -35.232,12.61 -40.565,29.958l81.125,0Z" style="fill:#c0e0da;fill-rule:nonzero;"/><path d="M1162.48,460.334c-3.259,-13.584 -15.442,-23.681 -30.025,-23.681c-14.468,0 -26.578,9.952 -29.94,23.38c20.012,-0.289 40.073,-0.758 59.965,0.301" style="fill:#c0e0da;fill-rule:nonzero;"/><path d="M730.532,459.259c-9.531,-24.204 -33.073,-41.36 -60.656,-41.36c-27.589,0 -51.125,17.156 -60.657,41.36l121.313,0Z" style="fill:#c0e0da;fill-rule:nonzero;"/><path d="M618.81,459.259c-7.12,-9.146 -18.202,-15.051 -30.692,-15.051c-12.484,0 -23.566,5.905 -30.692,15.051l61.384,0Z" style="fill:#c0e0da;fill-rule:nonzero;"/><path d="M399.024,457.174c-5.971,-7.859 -15.346,-12.976 -25.977,-12.976c-10.632,0 -20.006,5.117 -25.984,12.976l51.961,0Z" style="fill:#c0e0da;fill-rule:nonzero;"/><path d="M510.694,457.174c-10.391,-13.656 -26.682,-22.562 -45.173,-22.562c-18.478,0 -34.781,8.906 -45.166,22.562l90.339,0Z" style="fill:#c0e0da;fill-rule:nonzero;"/><path d="M1140.49,457.004c-69.935,-44.757 -153.063,-70.711 -242.252,-70.711c-89.196,0 -172.318,25.954 -242.253,70.711l484.505,0Z" style="fill:#042b49;fill-rule:nonzero;"/><path d="M750.049,411.276c0,-24.986 -2.911,-49.887 -8.683,-74.193l-28.461,-119.935c15.328,0 29.736,7.33 38.762,19.717l129.532,177.826" style="fill:#042b49;fill-rule:nonzero;"/><path d="M750.049,411.276c0,-24.986 -2.911,-49.887 -8.683,-74.193l-28.461,-119.935c15.328,0 29.736,7.33 38.762,19.717l129.532,177.826" style="fill:#042b49;fill-rule:nonzero;"/><path d="M774.759,367.145c4.721,18.702 -6.169,37.626 -24.372,44.018c-0.102,0.03 -0.198,0.066 -0.3,0.102l-0.036,0c0,-24.967 -2.911,-49.856 -8.69,-74.198l-28.467,-119.93l51.625,119.93c4.275,9.94 7.697,19.976 10.24,30.078" style="fill:#1d405b;fill-rule:nonzero;"/><path d="M716.632,446.816c1.924,-2.105 4.516,-3.452 7.089,-4.667c5.142,-2.435 10.482,-4.492 15.28,-7.54c4.799,-3.043 9.116,-7.234 11.029,-12.592c0.902,-3.62 1.371,-7.078 0.012,-10.68c-12.983,4.528 -25.707,9.591 -38.119,15.244c0.74,3.951 0.06,8.262 -0.529,12.339c-0.782,5.478 -0.944,11.762 2.905,15.731c-0.764,-2.742 0.408,-5.737 2.333,-7.835" style="fill:#a2d2ca;fill-rule:nonzero;"/><path d="M751.127,467.363c0,-15.658 12.688,-28.347 28.346,-28.347c15.653,0 28.341,12.689 28.341,28.347l-56.687,0Z" style="fill:#c0e0da;fill-rule:nonzero;"/><path d="M1087.4,462.648c-2.7,-8.936 -10.902,-15.491 -20.728,-15.491c-9.825,0 -18.028,6.555 -20.728,15.491l41.456,0Z" style="fill:#c0e0da;fill-rule:nonzero;"/><path d="M911.258,462.648c-9.315,-12.767 -24.348,-21.101 -41.36,-21.101c-17.018,0 -32.051,8.334 -41.36,21.101l82.72,0Z" style="fill:#c0e0da;fill-rule:nonzero;"/></g><g><path d="M969.361,144.164l328.709,4.495c4.08,0.061 7.422,-3.241 7.422,-7.327l-336.131,0l0,2.832Z" style="fill:#aed7d0;fill-rule:nonzero;"/><path d="M1193.17,142.394c2.51,-8.153 10.086,-14.078 19.064,-14.078c8.972,0 16.554,5.925 19.057,14.078l-38.121,0Z" style="fill:#aed7d0;fill-rule:nonzero;"/><path d="M1006.15,142.899c1.53,-6.375 7.26,-11.126 14.112,-11.126c6.797,0 12.487,4.677 14.064,10.985c-9.401,-0.134 -18.829,-0.349 -28.176,0.141" style="fill:#aed7d0;fill-rule:nonzero;"/><path d="M1209.12,142.394c4.476,-11.367 15.535,-19.433 28.506,-19.433c12.957,0 24.022,8.066 28.498,19.433l-57.004,0Z" style="fill:#aed7d0;fill-rule:nonzero;"/><path d="M1261.62,142.394c3.349,-4.294 8.556,-7.073 14.421,-7.073c5.871,0 11.078,2.779 14.427,7.073l-28.848,0Z" style="fill:#aed7d0;fill-rule:nonzero;"/><path d="M1364.9,141.418c2.804,-3.691 7.213,-6.1 12.206,-6.1c4.999,0 9.401,2.409 12.212,6.1l-24.418,0Z" style="fill:#aed7d0;fill-rule:nonzero;"/><path d="M1312.42,141.418c4.885,-6.415 12.541,-10.602 21.224,-10.602c8.69,0 16.346,4.187 21.225,10.602l-42.449,0Z" style="fill:#aed7d0;fill-rule:nonzero;"/><path d="M1016.48,141.333c32.861,-21.03 71.928,-33.223 113.833,-33.223c41.913,0 80.98,12.193 113.84,33.223l-227.673,0Z" style="fill:#042b49;fill-rule:nonzero;"/><path d="M1095.96,110.855c-5.012,-10.616 -8.763,-21.782 -11.186,-33.27l-11.957,-56.675c-6.516,3.073 -11.166,9.072 -12.515,16.152l-19.393,101.546" style="fill:#042b49;fill-rule:nonzero;"/><path d="M1076.61,97.054c1.745,8.898 10.166,14.749 19.185,13.823c0.047,-0.006 0.101,-0.013 0.148,-0.013l0.013,-0.014c-5.006,-10.608 -8.757,-21.768 -11.186,-33.269l-11.951,-56.682l2.114,61.319c0.174,5.086 0.731,10.032 1.677,14.836" style="fill:#1d405b;fill-rule:nonzero;"/><path d="M1092.39,131.765c3.966,0.188 7.925,0.383 11.891,0.577c2.684,0.121 5.69,0.141 7.649,-1.691c2.248,-2.107 2.107,-5.63 2.248,-8.71c0.222,-4.704 1.584,-9.327 3.812,-13.481c-7.764,0.45 -15.407,1.316 -22.923,2.57c-0.483,0.51 -0.865,1.134 -1.067,1.805c-0.442,1.51 -0.221,3.134 0.007,4.704c0.228,1.564 0.456,3.188 0.014,4.711c-0.812,2.791 -3.59,4.442 -6.08,5.952c-2.489,1.496 -5.153,3.503 -5.435,6.401c2.107,-2.898 6.307,-3.006 9.884,-2.838" style="fill:#a2d2ca;fill-rule:nonzero;"/><path d="M1199.44,146.202c0,-7.355 -5.966,-13.314 -13.32,-13.314c-7.355,0 -13.32,5.959 -13.32,13.314l26.64,0Z" style="fill:#aed7d0;fill-rule:nonzero;"/><path d="M1041.43,143.986c1.268,-4.2 5.127,-7.28 9.737,-7.28c4.616,0 8.475,3.08 9.743,7.28l-19.48,0Z" style="fill:#aed7d0;fill-rule:nonzero;"/><path d="M1124.2,143.986c4.375,-5.999 11.441,-9.917 19.433,-9.917c7.998,0 15.064,3.918 19.432,9.917l-38.865,0Z" style="fill:#aed7d0;fill-rule:nonzero;"/></g><g><path d="M1640.79,208.67c-5.941,67.274 -77.722,146.159 -77.722,146.159l-25.482,0c54.266,-42.542 90.766,-116.955 102.335,-142.778c0.491,-1.091 0.755,-2.254 0.869,-3.381" style="fill:#1d405b;fill-rule:nonzero;"/><path d="M1773.5,163.08c-5.299,16.125 -18.828,28.455 -35.816,31.95c0,0 -19.092,3.98 -38.519,8.002c-11.617,2.404 -21.688,9.849 -27.101,20.405c-23.599,46.156 -44.609,131.395 -44.609,131.395l-64.379,0c0,0 71.782,-78.891 77.722,-146.165c0.449,-4.244 -1.583,-8.494 -5.413,-10.748l-46.678,-27.322c-14.961,-8.758 -23.827,-24.763 -23.713,-41.714c0,-1.655 1.349,-2.71 2.703,-2.71c0.792,0 1.577,0.378 2.14,1.133c3.495,4.885 8.8,8.188 14.734,9.171l68.138,11.156c5.94,0.977 11.239,4.286 14.77,9.171c4.885,-3.531 10.939,-4.963 16.874,-3.98l68.173,11.197c5.94,0.977 11.988,-0.449 16.88,-3.986c2.104,-1.499 4.921,0.605 4.094,3.045" style="fill:#042b49;fill-rule:nonzero;"/><path d="M1758.66,354.831c-4.717,-5.791 -11.874,-9.501 -19.925,-9.501c-8.05,0 -15.207,3.71 -19.919,9.501l39.844,0Z" style="fill:#c0e0da;fill-rule:nonzero;"/><path d="M1681.73,354.948c-8.116,-11.617 -21.561,-19.242 -36.811,-19.242c-15.255,0 -28.7,7.625 -36.817,19.242l73.628,0Z" style="fill:#c0e0da;fill-rule:nonzero;"/><path d="M1706.99,354.936c-3.998,-5.868 -9.957,-9.608 -16.634,-9.608c-6.684,0 -12.642,3.74 -16.641,9.608l33.275,0Z" style="fill:#c0e0da;fill-rule:nonzero;"/><path d="M1581.92,354.831c-4.376,-11.12 -15.19,-19.002 -27.862,-19.002c-12.678,0 -23.485,7.882 -27.867,19.002l55.729,0Z" style="fill:#c0e0da;fill-rule:nonzero;"/><path d="M1599.32,354.831c-4.376,11.113 -15.19,18.996 -27.862,18.996c-12.678,0 -23.486,-7.883 -27.867,-18.996l55.729,0Z" style="fill:#c0e0da;fill-rule:nonzero;"/><path d="M1513.01,354.831c5.664,5.85 13.583,9.495 22.37,9.495c8.788,0 16.707,-3.645 22.371,-9.495l-44.741,0Z" style="fill:#c0e0da;fill-rule:nonzero;"/><path d="M1507.43,354.831c-3.273,-4.202 -8.362,-6.912 -14.099,-6.912c-5.736,0 -10.832,2.71 -14.104,6.912l28.203,0Z" style="fill:#c0e0da;fill-rule:nonzero;"/><path d="M1413.18,354.831c-2.746,-3.615 -7.05,-5.964 -11.935,-5.964c-4.885,0 -9.189,2.349 -11.935,5.964l23.87,0Z" style="fill:#c0e0da;fill-rule:nonzero;"/><path d="M1464.48,354.831c-4.771,-6.276 -12.258,-10.364 -20.746,-10.364c-8.494,0 -15.981,4.088 -20.752,10.364l41.498,0Z" style="fill:#c0e0da;fill-rule:nonzero;"/></g></g></svg>