<?xml version="1.0" encoding="UTF-8" standalone="no"?><!DOCTYPE svg PUBLIC "-//W3C//DTD SVG 1.1//EN" "http://www.w3.org/Graphics/SVG/1.1/DTD/svg11.dtd"><svg width="100%" height="100%" viewBox="0 0 2560 500" version="1.1" xmlns="http://www.w3.org/2000/svg" xmlns:xlink="http://www.w3.org/1999/xlink" xml:space="preserve" xmlns:serif="http://www.serif.com/" style="fill-rule:evenodd;clip-rule:evenodd;stroke-linejoin:round;stroke-miterlimit:1.41421;"><rect x="0" y="0" width="2560" height="500" style="fill:#96cdc4;"/><g opacity="0.4"><path d="M1449.98,118.849c0,0 -5.651,-7.402 -12.802,-9.308l-11.379,8.311l4.983,2.912l19.198,-1.499" style="fill:#e1251c;fill-rule:nonzero;"/><path d="M1402.95,125.747c0,0 -3.657,-3.571 -6.482,-3.571c-2.826,0 -3.077,1.075 -2.41,1.786c0.667,0.702 4.29,3.362 4.29,3.362l4.602,-1.577Z" style="fill:#e1251c;fill-rule:nonzero;"/><path d="M1396.71,143.03l-5.486,2.661l6.318,7.393c0,0 4.906,-0.494 13.625,-2.912l-14.457,-7.142Z" style="fill:#e1251c;fill-rule:nonzero;"/><path d="M1427.38,153.085c0,0 -0.832,5.322 2.99,8.069c0,0 7.818,-1.828 12.55,-8.069l-15.54,0Z" style="fill:#e1251c;fill-rule:nonzero;"/><path d="M1352.48,119.306c3.927,-4.169 21.685,7.748 21.685,7.748c0,0 0.035,0.026 0.078,0.061c-1.438,0.511 -3.657,1.473 -4.039,2.73c-0.58,1.872 1.04,3.735 0.789,5.486c-0.234,1.612 -4.117,4.533 3.242,7.142c-6.951,4.94 -15.298,7.557 -19.076,7.375c-3.866,-0.19 -3.675,-1.49 -2.618,-5.607c1.057,-4.117 5.391,-6.934 5.608,-10.227c0.19,-2.8 -9.447,-10.687 -5.669,-14.708" style="fill:#e1251c;fill-rule:nonzero;"/><path d="M1503.9,135.718c0,0 0.728,-2.418 -2.175,-4.117c-2.903,-1.69 -24.649,-15.869 -61.544,-12.819c-32.987,2.73 -52.982,11.848 -57.905,11.345c-5.616,-0.563 -8.103,-3.094 -8.103,-3.094c0,0 0.034,0.026 0.078,0.061c-1.439,0.503 -3.658,1.482 -4.039,2.721c-0.589,1.872 1.031,3.745 0.789,5.487c-0.234,1.62 -4.117,4.541 3.232,7.133c0.165,-0.113 0.338,-0.217 0.503,-0.338c5.92,-4.351 18.001,-1.76 35.647,8.918c3.459,2.08 29.962,4.81 48.666,3.657c18.694,-1.17 30.247,-8.069 43.621,-15.046c0,0 1.248,-2.253 -0.33,-2.166c-1.577,0.086 -5.148,0.996 -5.148,0.996c0,0 0.451,-1.412 6.708,-2.738" style="fill:#042b49;fill-rule:nonzero;"/><path d="M1477.16,147.601c0.502,-0.65 0.078,-0.832 -1.829,-1.248c-1.916,-0.407 -13.217,-0.91 -15.54,0c-2.323,0.919 1.499,4.888 4.238,5.555c2.747,0.659 12.628,-3.657 13.131,-4.307" style="fill:#e1251c;fill-rule:nonzero;"/><path d="M1491.04,134.135c0,1.612 1.3,2.912 2.904,2.912c1.612,0 2.912,-1.3 2.912,-2.912c0,-1.603 -1.3,-2.903 -2.912,-2.903c-1.604,0 -2.904,1.3 -2.904,2.903" style="fill:#e1251c;fill-rule:nonzero;"/><path d="M1492.59,134.135c0,0.754 0.607,1.352 1.352,1.352c0.745,0 1.352,-0.598 1.352,-1.352c0,-0.745 -0.607,-1.343 -1.352,-1.343c-0.745,0 -1.352,0.598 -1.352,1.343" style="fill:#042b49;fill-rule:nonzero;"/><path d="M1481.48,128.489c-0.563,2.427 -0.91,3.406 -3.155,4.984c-2.253,1.586 -3.163,4.489 -2.825,6.153c0.329,1.664 0.572,3.597 7.809,7.324c0,0 1.092,0.615 2.071,1.326c-0.329,0.147 -0.658,0.277 -0.997,0.416c-1.074,-0.745 -2.73,-1.846 -4.567,-2.851c-3.155,-1.725 -5.486,-3.06 -5.235,-5.799c0.251,-2.738 0.338,-4.411 2.332,-6.482c1.993,-2.081 2.808,-1.145 3.484,-3.537c0.641,-2.236 -0.382,-4.454 4.429,-6.231c0.286,0.104 0.58,0.19 0.858,0.295c-1.448,0.338 -3.502,1.369 -4.204,4.402" style="fill:#e1251c;fill-rule:nonzero;"/><path d="M1005.71,379.013c0,0 -5.651,-7.402 -12.801,-9.308l-11.38,8.311l4.984,2.912l19.197,-1.499" style="fill:#e1251c;fill-rule:nonzero;"/><path d="M958.669,385.911c0,0 -3.658,-3.571 -6.483,-3.571c-2.826,0 -3.077,1.075 -2.41,1.786c0.668,0.702 4.29,3.371 4.29,3.371l4.603,-1.586Z" style="fill:#e1251c;fill-rule:nonzero;"/><path d="M952.439,403.195l-5.487,2.66l6.319,7.393c0,0 4.905,-0.494 13.624,-2.903l-14.456,-7.15Z" style="fill:#e1251c;fill-rule:nonzero;"/><path d="M983.103,413.249c0,0 -0.832,5.322 2.991,8.069c0,0 7.817,-1.829 12.549,-8.069l-15.54,0Z" style="fill:#e1251c;fill-rule:nonzero;"/><path d="M908.198,379.47c3.926,-4.168 21.685,7.757 21.685,7.757c0,0 0.026,0.018 0.069,0.052c-1.43,0.512 -3.649,1.474 -4.039,2.731c-0.572,1.872 1.049,3.735 0.798,5.486c-0.234,1.62 -4.117,4.533 3.241,7.141c-6.951,4.941 -15.297,7.558 -19.076,7.376c-3.865,-0.182 -3.675,-1.491 -2.617,-5.608c1.057,-4.116 5.391,-6.933 5.607,-10.227c0.191,-2.799 -9.447,-10.686 -5.668,-14.708" style="fill:#e1251c;fill-rule:nonzero;"/><path d="M1059.62,395.881c0,0 0.719,-2.418 -2.176,-4.116c-2.903,-1.69 -24.649,-15.87 -61.544,-12.81c-32.986,2.721 -52.981,11.839 -57.904,11.336c-5.616,-0.563 -8.104,-3.094 -8.104,-3.094c0,0 0.035,0.026 0.07,0.061c-1.43,0.502 -3.649,1.482 -4.039,2.721c-0.581,1.872 1.04,3.744 0.797,5.486c-0.234,1.63 -4.117,4.542 3.224,7.133c0.174,-0.112 0.347,-0.216 0.512,-0.338c5.919,-4.35 18.001,-1.759 35.647,8.919c3.449,2.08 29.962,4.81 48.665,3.657c18.695,-1.17 30.239,-8.069 43.621,-15.046c0,0 1.248,-2.245 -0.329,-2.167c-1.578,0.087 -5.148,0.997 -5.148,0.997c0,0 0.45,-1.404 6.708,-2.739" style="fill:#042b49;fill-rule:nonzero;"/><path d="M1032.88,407.765c0.502,-0.65 0.086,-0.832 -1.829,-1.248c-1.907,-0.408 -13.208,-0.91 -15.54,0c-2.323,0.918 1.5,4.897 4.247,5.555c2.739,0.668 12.628,-3.657 13.122,-4.307" style="fill:#e1251c;fill-rule:nonzero;"/><path d="M1046.76,394.307c0,1.604 1.3,2.904 2.903,2.904c1.612,0 2.912,-1.3 2.912,-2.904c0,-1.612 -1.3,-2.912 -2.912,-2.912c-1.603,0 -2.903,1.3 -2.903,2.912" style="fill:#e1251c;fill-rule:nonzero;"/><path d="M1048.32,394.307c0,0.746 0.607,1.344 1.352,1.344c0.746,0 1.352,-0.598 1.352,-1.344c0,-0.745 -0.606,-1.352 -1.352,-1.352c-0.745,0 -1.352,0.607 -1.352,1.352" style="fill:#042b49;fill-rule:nonzero;"/><path d="M1037.2,388.653c-0.564,2.436 -0.911,3.415 -3.164,4.984c-2.245,1.586 -3.155,4.489 -2.817,6.153c0.33,1.664 0.572,3.597 7.809,7.324c0,0 1.084,0.615 2.072,1.326c-0.33,0.147 -0.659,0.277 -0.997,0.425c-1.075,-0.754 -2.73,-1.855 -4.568,-2.861c-3.154,-1.724 -5.486,-3.059 -5.234,-5.798c0.251,-2.739 0.329,-4.411 2.331,-6.483c1.993,-2.08 2.808,-1.144 3.484,-3.527c0.633,-2.245 -0.381,-4.464 4.429,-6.232c0.286,0.096 0.581,0.182 0.858,0.286c-1.447,0.338 -3.501,1.37 -4.203,4.403" style="fill:#e1251c;fill-rule:nonzero;"/><path d="M837.836,273.564c0,0 -5.65,-7.402 -12.801,-9.309l-11.379,8.312l4.983,2.912l19.197,-1.499" style="fill:#e1251c;fill-rule:nonzero;"/><path d="M790.802,280.462c0,0 -3.657,-3.571 -6.482,-3.571c-2.826,0 -3.077,1.075 -2.41,1.785c0.667,0.702 4.29,3.372 4.29,3.372l4.602,-1.586Z" style="fill:#e1251c;fill-rule:nonzero;"/><path d="M784.569,297.744l-5.486,2.661l6.318,7.393c0,0 4.906,-0.494 13.625,-2.903l-14.457,-7.151Z" style="fill:#e1251c;fill-rule:nonzero;"/><path d="M815.234,307.8c0,0 -0.832,5.321 2.99,8.069c0,0 7.818,-1.829 12.55,-8.069l-15.54,0Z" style="fill:#e1251c;fill-rule:nonzero;"/><path d="M740.328,274.02c3.927,-4.169 21.685,7.757 21.685,7.757c0,0 0.035,0.018 0.078,0.052c-1.438,0.512 -3.657,1.482 -4.039,2.73c-0.58,1.872 1.041,3.736 0.789,5.487c-0.234,1.62 -4.117,4.532 3.242,7.141c-6.951,4.94 -15.298,7.558 -19.076,7.376c-3.866,-0.182 -3.675,-1.491 -2.618,-5.608c1.058,-4.117 5.391,-6.933 5.608,-10.227c0.19,-2.799 -9.447,-10.686 -5.669,-14.708" style="fill:#e1251c;fill-rule:nonzero;"/><path d="M891.751,290.432c0,0 0.728,-2.418 -2.175,-4.117c-2.904,-1.69 -24.649,-15.869 -61.544,-12.809c-32.987,2.721 -52.982,11.839 -57.905,11.336c-5.616,-0.563 -8.103,-3.094 -8.103,-3.094c0,0 0.034,0.026 0.078,0.06c-1.439,0.503 -3.658,1.483 -4.039,2.722c-0.589,1.872 1.031,3.744 0.789,5.486c-0.234,1.63 -4.117,4.542 3.232,7.133c0.165,-0.113 0.338,-0.217 0.503,-0.338c5.92,-4.351 18.001,-1.759 35.647,8.918c3.459,2.08 29.962,4.811 48.666,3.658c18.694,-1.17 30.247,-8.069 43.621,-15.046c0,0 1.248,-2.245 -0.33,-2.167c-1.577,0.087 -5.148,0.997 -5.148,0.997c0,0 0.451,-1.404 6.708,-2.739" style="fill:#042b49;fill-rule:nonzero;"/><path d="M865.014,302.315c0.502,-0.65 0.078,-0.832 -1.829,-1.248c-1.916,-0.407 -13.217,-0.91 -15.54,0c-2.323,0.919 1.499,4.897 4.247,5.556c2.739,0.667 12.619,-3.658 13.122,-4.308" style="fill:#e1251c;fill-rule:nonzero;"/><path d="M878.89,288.857c0,1.612 1.3,2.904 2.912,2.904c1.604,0 2.904,-1.292 2.904,-2.904c0,-1.612 -1.3,-2.912 -2.904,-2.912c-1.612,0 -2.912,1.3 -2.912,2.912" style="fill:#e1251c;fill-rule:nonzero;"/><path d="M880.448,288.857c0,0.746 0.606,1.344 1.352,1.344c0.745,0 1.352,-0.598 1.352,-1.344c0,-0.745 -0.607,-1.352 -1.352,-1.352c-0.746,0 -1.352,0.607 -1.352,1.352" style="fill:#042b49;fill-rule:nonzero;"/><path d="M869.335,283.204c-0.563,2.435 -0.91,3.415 -3.155,4.983c-2.245,1.586 -3.163,4.49 -2.825,6.154c0.329,1.664 0.58,3.597 7.809,7.324c0,0 1.092,0.615 2.071,1.326c-0.329,0.147 -0.659,0.277 -0.997,0.424c-1.074,-0.754 -2.73,-1.854 -4.567,-2.86c-3.155,-1.725 -5.486,-3.059 -5.235,-5.798c0.251,-2.739 0.338,-4.412 2.331,-6.483c1.994,-2.071 2.809,-1.144 3.485,-3.527c0.641,-2.245 -0.382,-4.464 4.437,-6.232c0.277,0.095 0.572,0.182 0.849,0.286c-1.447,0.338 -3.501,1.369 -4.203,4.403" style="fill:#e1251c;fill-rule:nonzero;"/><path d="M1700.97,203.904c0,0 -5.651,-7.401 -12.801,-9.308l-11.388,8.311l4.992,2.913l19.197,-1.5" style="fill:#e1251c;fill-rule:nonzero;"/><path d="M1653.94,210.802c0,0 -3.658,-3.571 -6.483,-3.571c-2.826,0 -3.077,1.084 -2.41,1.786c0.668,0.702 4.291,3.371 4.291,3.371l4.602,-1.586Z" style="fill:#e1251c;fill-rule:nonzero;"/><path d="M1647.7,228.085l-5.487,2.669l6.319,7.385c0,0 4.905,-0.486 13.624,-2.904l-14.456,-7.15Z" style="fill:#e1251c;fill-rule:nonzero;"/><path d="M1678.37,238.14c0,0 -0.832,5.322 2.99,8.069c0,0 7.809,-1.828 12.55,-8.069l-15.54,0Z" style="fill:#e1251c;fill-rule:nonzero;"/><path d="M1603.46,204.37c3.926,-4.178 21.693,7.748 21.693,7.748c0,0 0.026,0.017 0.07,0.052c-1.439,0.511 -3.649,1.482 -4.039,2.73c-0.581,1.872 1.04,3.735 0.789,5.486c-0.234,1.621 -4.117,4.533 3.241,7.142c-6.951,4.94 -15.297,7.557 -19.067,7.375c-3.866,-0.182 -3.684,-1.49 -2.626,-5.607c1.066,-4.117 5.39,-6.934 5.616,-10.227c0.182,-2.8 -9.456,-10.687 -5.677,-14.699" style="fill:#e1251c;fill-rule:nonzero;"/><path d="M1754.89,220.773c0,0 0.719,-2.418 -2.175,-4.117c-2.913,-1.69 -24.649,-15.869 -61.545,-12.81c-32.986,2.721 -52.981,11.839 -57.904,11.336c-5.616,-0.563 -8.104,-3.094 -8.104,-3.094l0.07,0.07c-1.43,0.502 -3.649,1.473 -4.039,2.712c-0.581,1.873 1.04,3.745 0.797,5.487c-0.234,1.629 -4.117,4.541 3.224,7.133c0.174,-0.113 0.347,-0.217 0.512,-0.338c5.919,-4.351 17.992,-1.76 35.647,8.918c3.45,2.08 29.962,4.81 48.657,3.657c18.703,-1.161 30.247,-8.06 43.629,-15.045c0,0 1.248,-2.245 -0.329,-2.159c-1.577,0.078 -5.148,0.988 -5.148,0.988c0,0 0.45,-1.404 6.708,-2.738" style="fill:#042b49;fill-rule:nonzero;"/><path d="M1728.15,232.656c0.503,-0.65 0.087,-0.832 -1.829,-1.248c-1.907,-0.407 -13.208,-0.91 -15.54,0c-2.323,0.919 1.5,4.897 4.247,5.556c2.739,0.667 12.619,-3.658 13.122,-4.308" style="fill:#e1251c;fill-rule:nonzero;"/><path d="M1742.03,219.198c0,1.612 1.3,2.903 2.903,2.903c1.613,0 2.913,-1.291 2.913,-2.903c0,-1.612 -1.3,-2.912 -2.913,-2.912c-1.603,0 -2.903,1.3 -2.903,2.912" style="fill:#e1251c;fill-rule:nonzero;"/><path d="M1743.59,219.198c0,0.745 0.606,1.343 1.352,1.343c0.745,0 1.352,-0.598 1.352,-1.343c0,-0.745 -0.607,-1.352 -1.352,-1.352c-0.746,0 -1.352,0.607 -1.352,1.352" style="fill:#042b49;fill-rule:nonzero;"/><path d="M1732.47,213.544c-0.554,2.436 -0.91,3.415 -3.154,4.984c-2.245,1.586 -3.164,4.489 -2.826,6.154c0.329,1.664 0.581,3.596 7.809,7.323c0,0 1.092,0.624 2.072,1.326c-0.33,0.148 -0.659,0.278 -0.989,0.425c-1.074,-0.754 -2.738,-1.855 -4.567,-2.86c-3.163,-1.725 -5.486,-3.06 -5.235,-5.798c0.243,-2.739 0.329,-4.403 2.323,-6.483c1.993,-2.072 2.808,-1.136 3.484,-3.528c0.641,-2.245 -0.381,-4.463 4.437,-6.231c0.278,0.095 0.573,0.182 0.85,0.286c-1.448,0.346 -3.502,1.369 -4.204,4.402" style="fill:#e1251c;fill-rule:nonzero;"/><path d="M1725.39,71.266c0,0 -5.651,-7.393 -12.801,-9.3l-11.38,8.311l4.983,2.904l19.198,-1.499" style="fill:#e1251c;fill-rule:nonzero;"/><path d="M1678.35,78.164c0,0 -3.658,-3.571 -6.483,-3.571c-2.826,0 -3.077,1.083 -2.41,1.785c0.668,0.711 4.291,3.372 4.291,3.372l4.602,-1.586Z" style="fill:#e1251c;fill-rule:nonzero;"/><path d="M1672.12,95.455l-5.486,2.661l6.319,7.393c0,0 4.905,-0.494 13.624,-2.912l-14.457,-7.142Z" style="fill:#e1251c;fill-rule:nonzero;"/><path d="M1702.78,105.511c0,0 -0.832,5.312 2.99,8.06c0,0 7.818,-1.829 12.55,-8.06l-15.54,0Z" style="fill:#e1251c;fill-rule:nonzero;"/><path d="M1627.88,71.731c3.926,-4.178 21.685,7.748 21.685,7.748c0,0 0.034,0.018 0.078,0.061c-1.439,0.511 -3.658,1.473 -4.039,2.721c-0.581,1.872 1.04,3.736 0.789,5.487c-0.234,1.62 -4.117,4.532 3.241,7.141c-6.951,4.94 -15.297,7.566 -19.076,7.376c-3.866,-0.182 -3.675,-1.491 -2.618,-5.608c1.058,-4.117 5.391,-6.925 5.608,-10.218c0.191,-2.808 -9.447,-10.695 -5.668,-14.708" style="fill:#e1251c;fill-rule:nonzero;"/><path d="M1779.3,88.143c0,0 0.728,-2.418 -2.176,-4.117c-2.903,-1.699 -24.649,-15.878 -61.544,-12.819c-32.987,2.731 -52.981,11.84 -57.904,11.337c-5.617,-0.563 -8.104,-3.094 -8.104,-3.094c0,0 0.035,0.026 0.078,0.069c-1.439,0.503 -3.657,1.473 -4.039,2.713c-0.589,1.872 1.032,3.744 0.789,5.486c-0.234,1.629 -4.117,4.542 3.233,7.142c0.164,-0.113 0.338,-0.226 0.502,-0.347c5.92,-4.342 18.002,-1.759 35.648,8.918c3.458,2.089 29.962,4.819 48.665,3.658c18.695,-1.162 30.248,-8.061 43.621,-15.046c0,0 1.248,-2.245 -0.329,-2.158c-1.578,0.086 -5.149,0.997 -5.149,0.997c0,0 0.451,-1.413 6.709,-2.739" style="fill:#042b49;fill-rule:nonzero;"/><path d="M1752.56,100.026c0.503,-0.65 0.078,-0.841 -1.829,-1.257c-1.915,-0.407 -13.217,-0.91 -15.54,0c-2.322,0.919 1.5,4.897 4.238,5.556c2.748,0.667 12.628,-3.649 13.131,-4.299" style="fill:#e1251c;fill-rule:nonzero;"/><path d="M1766.44,86.559c0,1.612 1.3,2.912 2.903,2.912c1.612,0 2.912,-1.3 2.912,-2.912c0,-1.612 -1.3,-2.912 -2.912,-2.912c-1.603,0 -2.903,1.3 -2.903,2.912" style="fill:#e1251c;fill-rule:nonzero;"/><path d="M1768,86.559c0,0.746 0.607,1.352 1.352,1.352c0.746,0 1.352,-0.606 1.352,-1.352c0,-0.745 -0.606,-1.352 -1.352,-1.352c-0.745,0 -1.352,0.607 -1.352,1.352" style="fill:#042b49;fill-rule:nonzero;"/><path d="M1756.88,80.906c-0.563,2.435 -0.91,3.415 -3.154,4.983c-2.254,1.586 -3.164,4.498 -2.826,6.154c0.33,1.664 0.572,3.597 7.809,7.332c0,0 1.092,0.616 2.072,1.318c-0.33,0.147 -0.659,0.286 -0.997,0.424c-1.075,-0.754 -2.73,-1.855 -4.568,-2.86c-3.154,-1.725 -5.486,-3.059 -5.235,-5.798c0.252,-2.739 0.339,-4.403 2.332,-6.483c1.993,-2.071 2.808,-1.135 3.484,-3.527c0.641,-2.237 -0.381,-4.464 4.429,-6.232c0.286,0.095 0.581,0.191 0.858,0.286c-1.447,0.347 -3.502,1.369 -4.204,4.403" style="fill:#e1251c;fill-rule:nonzero;"/><path d="M1189.63,41.796c0,0 -5.651,-7.401 -12.801,-9.308l-11.38,8.311l4.984,2.913l19.197,-1.5" style="fill:#e1251c;fill-rule:nonzero;"/><path d="M1142.6,48.694c0,0 -3.657,-3.571 -6.483,-3.571c-2.825,0 -3.077,1.075 -2.409,1.786c0.658,0.702 4.29,3.371 4.29,3.371l4.602,-1.586Z" style="fill:#e1251c;fill-rule:nonzero;"/><path d="M1136.36,65.978l-5.486,2.669l6.318,7.385c0,0 4.905,-0.494 13.624,-2.904l-14.456,-7.15Z" style="fill:#e1251c;fill-rule:nonzero;"/><path d="M1167.03,76.033c0,0 -0.833,5.321 2.99,8.068c0,0 7.817,-1.828 12.549,-8.068l-15.539,0Z" style="fill:#e1251c;fill-rule:nonzero;"/><path d="M1092.12,42.254c3.926,-4.169 21.685,7.757 21.685,7.757c0,0 0.035,0.017 0.069,0.052c-1.43,0.511 -3.649,1.482 -4.039,2.73c-0.572,1.872 1.049,3.735 0.798,5.486c-0.234,1.621 -4.117,4.533 3.241,7.142c-6.951,4.94 -15.297,7.557 -19.076,7.375c-3.865,-0.182 -3.675,-1.49 -2.617,-5.607c1.057,-4.117 5.391,-6.934 5.607,-10.227c0.191,-2.8 -9.447,-10.687 -5.668,-14.708" style="fill:#e1251c;fill-rule:nonzero;"/><path d="M1243.55,58.665c0,0 0.719,-2.418 -2.175,-4.117c-2.904,-1.69 -24.649,-15.869 -61.545,-12.81c-32.986,2.722 -52.981,11.839 -57.904,11.337c-5.616,-0.564 -8.104,-3.095 -8.104,-3.095c0,0 0.035,0.026 0.07,0.061c-1.43,0.503 -3.649,1.482 -4.039,2.721c-0.581,1.873 1.04,3.745 0.797,5.487c-0.234,1.629 -4.117,4.541 3.224,7.133c0.174,-0.113 0.347,-0.217 0.512,-0.338c5.919,-4.351 18.001,-1.76 35.647,8.918c3.45,2.08 29.962,4.81 48.665,3.657c18.695,-1.17 30.248,-8.069 43.621,-15.045c0,0 1.248,-2.245 -0.329,-2.167c-1.578,0.086 -5.148,0.996 -5.148,0.996c0,0 0.45,-1.404 6.708,-2.738" style="fill:#042b49;fill-rule:nonzero;"/><path d="M1216.81,70.548c0.494,-0.65 0.078,-0.832 -1.829,-1.248c-1.915,-0.407 -13.217,-0.91 -15.54,0c-2.322,0.919 1.5,4.897 4.239,5.556c2.747,0.667 12.627,-3.658 13.13,-4.308" style="fill:#e1251c;fill-rule:nonzero;"/><path d="M1230.68,57.091c0,1.612 1.3,2.903 2.903,2.903c1.612,0 2.913,-1.291 2.913,-2.903c0,-1.612 -1.301,-2.912 -2.913,-2.912c-1.603,0 -2.903,1.3 -2.903,2.912" style="fill:#e1251c;fill-rule:nonzero;"/><path d="M1232.24,57.091c0,0.745 0.607,1.343 1.352,1.343c0.746,0 1.353,-0.598 1.353,-1.343c0,-0.746 -0.607,-1.352 -1.353,-1.352c-0.745,0 -1.352,0.606 -1.352,1.352" style="fill:#042b49;fill-rule:nonzero;"/><path d="M1221.13,51.436c-0.564,2.436 -0.91,3.415 -3.155,4.984c-2.254,1.586 -3.164,4.489 -2.826,6.154c0.33,1.664 0.572,3.596 7.809,7.323c0,0 1.092,0.616 2.072,1.326c-0.33,0.148 -0.659,0.278 -0.997,0.425c-1.075,-0.754 -2.73,-1.855 -4.567,-2.86c-3.155,-1.725 -5.487,-3.06 -5.235,-5.798c0.251,-2.739 0.329,-4.412 2.331,-6.483c1.994,-2.072 2.808,-1.144 3.484,-3.528c0.642,-2.245 -0.381,-4.463 4.429,-6.231c0.286,0.095 0.581,0.182 0.858,0.286c-1.447,0.338 -3.501,1.369 -4.203,4.402" style="fill:#e1251c;fill-rule:nonzero;"/><path d="M657.208,380.218c0,0 -5.651,-7.393 -12.801,-9.3l-11.38,8.312l4.983,2.903l19.198,-1.499" style="fill:#e1251c;fill-rule:nonzero;"/><path d="M610.17,387.116c0,0 -3.657,-3.571 -6.483,-3.571c-2.825,0 -3.076,1.084 -2.409,1.786c0.667,0.71 4.299,3.371 4.299,3.371l4.593,-1.586Z" style="fill:#e1251c;fill-rule:nonzero;"/><path d="M603.94,404.408l-5.486,2.66l6.319,7.393c0,0 4.905,-0.494 13.624,-2.912l-14.457,-7.141Z" style="fill:#e1251c;fill-rule:nonzero;"/><path d="M634.605,414.462c0,0 -0.832,5.313 2.99,8.06c0,0 7.818,-1.828 12.55,-8.06l-15.54,0Z" style="fill:#e1251c;fill-rule:nonzero;"/><path d="M559.7,380.683c3.926,-4.177 21.685,7.749 21.685,7.749c0,0 0.034,0.017 0.069,0.06c-1.43,0.512 -3.649,1.474 -4.039,2.722c-0.572,1.872 1.049,3.735 0.798,5.486c-0.235,1.621 -4.117,4.533 3.241,7.142c-6.951,4.94 -15.297,7.566 -19.076,7.375c-3.866,-0.182 -3.675,-1.491 -2.618,-5.607c1.058,-4.117 5.391,-6.925 5.608,-10.219c0.191,-2.808 -9.447,-10.695 -5.668,-14.708" style="fill:#e1251c;fill-rule:nonzero;"/><path d="M711.123,397.094c0,0 0.719,-2.418 -2.176,-4.117c-2.903,-1.698 -24.649,-15.877 -61.544,-12.818c-32.987,2.73 -52.981,11.839 -57.904,11.336c-5.617,-0.563 -8.104,-3.094 -8.104,-3.094c0,0 0.035,0.026 0.069,0.07c-1.43,0.502 -3.648,1.473 -4.038,2.712c-0.581,1.872 1.04,3.745 0.797,5.487c-0.234,1.629 -4.117,4.541 3.224,7.141c0.173,-0.112 0.347,-0.225 0.511,-0.346c5.92,-4.343 18.002,-1.76 35.648,8.918c3.449,2.089 29.962,4.819 48.665,3.657c18.695,-1.161 30.248,-8.06 43.621,-15.046c0,0 1.248,-2.244 -0.329,-2.158c-1.578,0.087 -5.149,0.997 -5.149,0.997c0,0 0.451,-1.413 6.709,-2.739" style="fill:#042b49;fill-rule:nonzero;"/><path d="M684.386,408.978c0.494,-0.65 0.078,-0.841 -1.829,-1.257c-1.915,-0.407 -13.217,-0.91 -15.54,0c-2.331,0.919 1.5,4.897 4.238,5.555c2.748,0.668 12.628,-3.648 13.131,-4.298" style="fill:#e1251c;fill-rule:nonzero;"/><path d="M698.262,395.512c0,1.612 1.3,2.912 2.903,2.912c1.612,0 2.912,-1.3 2.912,-2.912c0,-1.612 -1.3,-2.912 -2.912,-2.912c-1.603,0 -2.903,1.3 -2.903,2.912" style="fill:#e1251c;fill-rule:nonzero;"/><path d="M699.819,395.512c0,0.745 0.607,1.352 1.352,1.352c0.746,0 1.352,-0.607 1.352,-1.352c0,-0.746 -0.606,-1.352 -1.352,-1.352c-0.745,0 -1.352,0.606 -1.352,1.352" style="fill:#042b49;fill-rule:nonzero;"/><path d="M688.706,389.858c-0.563,2.436 -0.91,3.415 -3.163,4.984c-2.245,1.586 -3.155,4.498 -2.817,6.153c0.329,1.664 0.572,3.597 7.809,7.333c0,0 1.083,0.615 2.071,1.317c-0.329,0.147 -0.658,0.286 -0.996,0.425c-1.075,-0.754 -2.73,-1.855 -4.568,-2.86c-3.155,-1.725 -5.486,-3.06 -5.235,-5.799c0.252,-2.738 0.33,-4.403 2.332,-6.483c1.993,-2.071 2.808,-1.135 3.484,-3.527c0.641,-2.236 -0.381,-4.464 4.429,-6.232c0.286,0.096 0.58,0.191 0.858,0.286c-1.448,0.347 -3.502,1.37 -4.204,4.403" style="fill:#e1251c;fill-rule:nonzero;"/><path d="M1261.98,380.286c0,0 -5.651,-7.402 -12.801,-9.309l-11.38,8.312l4.984,2.912l19.197,-1.499" style="fill:#e1251c;fill-rule:nonzero;"/><path d="M1214.94,387.184c0,0 -3.657,-3.571 -6.483,-3.571c-2.825,0 -3.077,1.075 -2.409,1.785c0.658,0.702 4.29,3.363 4.29,3.363l4.602,-1.577Z" style="fill:#e1251c;fill-rule:nonzero;"/><path d="M1208.71,404.467l-5.486,2.66l6.318,7.393c0,0 4.905,-0.494 13.624,-2.903l-14.456,-7.15Z" style="fill:#e1251c;fill-rule:nonzero;"/><path d="M1239.37,414.522c0,0 -0.832,5.322 2.991,8.069c0,0 7.817,-1.829 12.549,-8.069l-15.54,0Z" style="fill:#e1251c;fill-rule:nonzero;"/><path d="M1164.47,380.742c3.926,-4.168 21.685,7.749 21.685,7.749c0,0 0.035,0.026 0.069,0.06c-1.43,0.512 -3.649,1.474 -4.039,2.731c-0.572,1.872 1.049,3.735 0.798,5.486c-0.234,1.612 -4.117,4.533 3.241,7.141c-6.951,4.941 -15.297,7.558 -19.076,7.376c-3.865,-0.182 -3.675,-1.491 -2.617,-5.608c1.057,-4.116 5.391,-6.933 5.607,-10.227c0.191,-2.799 -9.447,-10.686 -5.668,-14.708" style="fill:#e1251c;fill-rule:nonzero;"/><path d="M1315.89,397.154c0,0 0.719,-2.418 -2.176,-4.117c-2.903,-1.69 -24.648,-15.869 -61.544,-12.809c-32.986,2.721 -52.981,11.839 -57.904,11.336c-5.616,-0.563 -8.104,-3.094 -8.104,-3.094c0,0 0.035,0.026 0.07,0.061c-1.43,0.502 -3.649,1.482 -4.039,2.721c-0.581,1.872 1.04,3.744 0.797,5.486c-0.234,1.63 -4.117,4.542 3.224,7.133c0.174,-0.112 0.347,-0.216 0.512,-0.338c5.919,-4.351 18.001,-1.759 35.647,8.919c3.449,2.08 29.962,4.81 48.665,3.657c18.695,-1.17 30.248,-8.069 43.621,-15.046c0,0 1.248,-2.253 -0.329,-2.167c-1.578,0.087 -5.148,0.997 -5.148,0.997c0,0 0.45,-1.413 6.708,-2.739" style="fill:#042b49;fill-rule:nonzero;"/><path d="M1289.15,409.038c0.494,-0.65 0.078,-0.832 -1.829,-1.248c-1.915,-0.408 -13.217,-0.911 -15.539,0c-2.323,0.918 1.499,4.888 4.238,5.555c2.747,0.667 12.628,-3.657 13.13,-4.307" style="fill:#e1251c;fill-rule:nonzero;"/><path d="M1303.03,395.579c0,1.604 1.3,2.904 2.903,2.904c1.612,0 2.912,-1.3 2.912,-2.904c0,-1.612 -1.3,-2.912 -2.912,-2.912c-1.603,0 -2.903,1.3 -2.903,2.912" style="fill:#e1251c;fill-rule:nonzero;"/><path d="M1304.59,395.579c0,0.746 0.607,1.344 1.352,1.344c0.746,0 1.352,-0.598 1.352,-1.344c0,-0.754 -0.606,-1.352 -1.352,-1.352c-0.745,0 -1.352,0.598 -1.352,1.352" style="fill:#042b49;fill-rule:nonzero;"/><path d="M1293.48,389.926c-0.564,2.435 -0.91,3.406 -3.155,4.984c-2.254,1.586 -3.164,4.489 -2.826,6.153c0.33,1.664 0.572,3.597 7.809,7.324c0,0 1.092,0.615 2.072,1.326c-0.33,0.147 -0.659,0.277 -0.997,0.424c-1.075,-0.754 -2.73,-1.854 -4.568,-2.86c-3.154,-1.724 -5.486,-3.059 -5.234,-5.798c0.251,-2.739 0.329,-4.411 2.331,-6.483c1.993,-2.08 2.808,-1.144 3.484,-3.527c0.642,-2.245 -0.381,-4.464 4.429,-6.241c0.286,0.104 0.581,0.191 0.858,0.295c-1.447,0.338 -3.501,1.37 -4.203,4.403" style="fill:#e1251c;fill-rule:nonzero;"/><path d="M1849.2,306.219c0,0 -5.651,-7.401 -12.801,-9.308l-11.389,8.312l4.992,2.903l19.198,-1.491" style="fill:#e1251c;fill-rule:nonzero;"/><path d="M1802.16,313.117c0,0 -3.657,-3.579 -6.483,-3.579c-2.825,0 -3.076,1.083 -2.409,1.785c0.667,0.711 4.29,3.372 4.29,3.372l4.602,-1.578Z" style="fill:#e1251c;fill-rule:nonzero;"/><path d="M1795.93,330.401l-5.486,2.661l6.318,7.393c0,0 4.906,-0.494 13.625,-2.912l-14.457,-7.142Z" style="fill:#e1251c;fill-rule:nonzero;"/><path d="M1826.59,340.456c0,0 -0.832,5.312 2.99,8.06c0,0 7.817,-1.829 12.55,-8.06l-15.54,0Z" style="fill:#e1251c;fill-rule:nonzero;"/><path d="M1751.69,306.677c3.927,-4.169 21.694,7.748 21.694,7.748l0.069,0.061c-1.439,0.511 -3.649,1.473 -4.039,2.721c-0.58,1.872 1.04,3.736 0.789,5.486c-0.234,1.621 -4.117,4.542 3.242,7.142c-6.951,4.94 -15.298,7.566 -19.068,7.376c-3.874,-0.182 -3.683,-1.482 -2.626,-5.599c1.057,-4.117 5.391,-6.934 5.616,-10.227c0.182,-2.808 -9.455,-10.687 -5.677,-14.708" style="fill:#e1251c;fill-rule:nonzero;"/><path d="M1903.11,323.088c0,0 0.728,-2.418 -2.175,-4.117c-2.904,-1.69 -24.641,-15.878 -61.545,-12.819c-32.986,2.731 -52.972,11.84 -57.904,11.337c-5.616,-0.563 -8.095,-3.094 -8.095,-3.094l0.07,0.069c-1.439,0.503 -3.649,1.474 -4.039,2.722c-0.581,1.872 1.031,3.744 0.788,5.486c-0.234,1.621 -4.116,4.533 3.233,7.133c0.165,-0.113 0.338,-0.217 0.503,-0.347c5.919,-4.342 18.001,-1.751 35.656,8.918c3.449,2.089 29.953,4.819 48.656,3.658c18.695,-1.162 30.248,-8.06 43.63,-15.046c0,0 1.239,-2.245 -0.338,-2.158c-1.577,0.087 -5.148,0.997 -5.148,0.997c0,0 0.459,-1.413 6.708,-2.739" style="fill:#042b49;fill-rule:nonzero;"/><path d="M1876.37,334.971c0.503,-0.65 0.087,-0.832 -1.828,-1.248c-1.916,-0.416 -13.209,-0.91 -15.54,0c-2.323,0.919 1.499,4.888 4.247,5.556c2.738,0.658 12.619,-3.658 13.121,-4.308" style="fill:#e1251c;fill-rule:nonzero;"/><path d="M1890.25,321.505c0,1.612 1.3,2.912 2.903,2.912c1.612,0 2.912,-1.3 2.912,-2.912c0,-1.612 -1.3,-2.903 -2.912,-2.903c-1.603,0 -2.903,1.291 -2.903,2.903" style="fill:#e1251c;fill-rule:nonzero;"/><path d="M1891.81,321.505c0,0.746 0.607,1.352 1.352,1.352c0.745,0 1.352,-0.606 1.352,-1.352c0,-0.745 -0.607,-1.343 -1.352,-1.343c-0.745,0 -1.352,0.598 -1.352,1.343" style="fill:#042b49;fill-rule:nonzero;"/><path d="M1880.69,315.86c-0.555,2.426 -0.91,3.406 -3.155,4.983c-2.245,1.577 -3.163,4.49 -2.825,6.145c0.329,1.673 0.58,3.597 7.809,7.332c0,0 1.092,0.616 2.071,1.326c-0.329,0.139 -0.659,0.278 -0.988,0.416c-1.075,-0.745 -2.739,-1.854 -4.568,-2.851c-3.163,-1.734 -5.494,-3.068 -5.243,-5.807c0.251,-2.739 0.338,-4.403 2.331,-6.474c1.994,-2.08 2.808,-1.144 3.484,-3.536c0.642,-2.237 -0.381,-4.455 4.438,-6.232c0.277,0.104 0.572,0.191 0.849,0.286c-1.447,0.347 -3.501,1.369 -4.203,4.412" style="fill:#e1251c;fill-rule:nonzero;"/><path d="M958.118,168.012c0,0 -5.651,-7.393 -12.801,-9.3l-11.388,8.312l4.992,2.903l19.197,-1.49" style="fill:#e1251c;fill-rule:nonzero;"/><path d="M911.081,174.91c0,0 -3.658,-3.571 -6.483,-3.571c-2.826,0 -3.077,1.084 -2.41,1.786c0.668,0.71 4.29,3.371 4.29,3.371l4.603,-1.586Z" style="fill:#e1251c;fill-rule:nonzero;"/><path d="M904.846,192.202l-5.486,2.66l6.319,7.393c0,0 4.905,-0.494 13.624,-2.912l-14.457,-7.141Z" style="fill:#e1251c;fill-rule:nonzero;"/><path d="M935.511,202.257c0,0 -0.832,5.313 2.99,8.06c0,0 7.818,-1.828 12.55,-8.06l-15.54,0Z" style="fill:#e1251c;fill-rule:nonzero;"/><path d="M860.606,168.477c3.926,-4.177 21.693,7.749 21.693,7.749l0.07,0.06c-1.439,0.512 -3.649,1.474 -4.039,2.722c-0.581,1.872 1.04,3.735 0.789,5.486c-0.234,1.621 -4.117,4.533 3.241,7.142c-6.951,4.94 -15.297,7.566 -19.067,7.375c-3.875,-0.182 -3.684,-1.49 -2.627,-5.607c1.058,-4.117 5.391,-6.925 5.617,-10.219c0.182,-2.808 -9.456,-10.695 -5.677,-14.708" style="fill:#e1251c;fill-rule:nonzero;"/><path d="M1012.03,184.889c0,0 0.728,-2.418 -2.176,-4.117c-2.903,-1.698 -24.64,-15.877 -61.544,-12.818c-32.987,2.73 -52.973,11.839 -57.904,11.336c-5.617,-0.563 -8.095,-3.094 -8.095,-3.094l0.069,0.07c-1.439,0.502 -3.649,1.473 -4.039,2.712c-0.58,1.872 1.032,3.745 0.789,5.495c-0.234,1.621 -4.117,4.533 3.233,7.133c0.164,-0.112 0.338,-0.216 0.502,-0.346c5.92,-4.343 18.002,-1.751 35.656,8.918c3.45,2.089 29.954,4.819 48.657,3.657c18.695,-1.161 30.248,-8.06 43.63,-15.046c0,0 1.239,-2.244 -0.338,-2.158c-1.578,0.087 -5.149,0.997 -5.149,0.997c0,0 0.46,-1.413 6.709,-2.739" style="fill:#042b49;fill-rule:nonzero;"/><path d="M985.292,196.773c0.502,-0.65 0.086,-0.841 -1.829,-1.257c-1.915,-0.407 -13.208,-0.91 -15.54,0c-2.323,0.919 1.5,4.897 4.247,5.555c2.739,0.668 12.619,-3.648 13.122,-4.298" style="fill:#e1251c;fill-rule:nonzero;"/><path d="M999.172,183.307c0,1.612 1.3,2.912 2.903,2.912c1.612,0 2.913,-1.3 2.913,-2.912c0,-1.612 -1.301,-2.912 -2.913,-2.912c-1.603,0 -2.903,1.3 -2.903,2.912" style="fill:#e1251c;fill-rule:nonzero;"/><path d="M1000.73,183.307c0,0.745 0.607,1.352 1.353,1.352c0.745,0 1.352,-0.607 1.352,-1.352c0,-0.746 -0.607,-1.344 -1.352,-1.344c-0.746,0 -1.353,0.598 -1.353,1.344" style="fill:#042b49;fill-rule:nonzero;"/><path d="M989.612,177.652c-0.554,2.436 -0.91,3.415 -3.154,4.993c-2.245,1.577 -3.164,4.489 -2.826,6.144c0.329,1.665 0.581,3.597 7.809,7.333c0,0 1.092,0.615 2.071,1.326c-0.329,0.138 -0.658,0.277 -0.988,0.416c-1.074,-0.754 -2.738,-1.855 -4.567,-2.852c-3.164,-1.733 -5.486,-3.068 -5.244,-5.807c0.252,-2.738 0.338,-4.402 2.332,-6.482c1.993,-2.072 2.808,-1.136 3.484,-3.528c0.641,-2.236 -0.381,-4.463 4.437,-6.231c0.278,0.095 0.572,0.19 0.85,0.286c-1.448,0.346 -3.502,1.369 -4.204,4.402" style="fill:#e1251c;fill-rule:nonzero;"/><path d="M1585.05,374.55c0,0 -5.65,-7.401 -12.801,-9.308l-11.379,8.312l4.983,2.912l19.197,-1.5" style="fill:#e1251c;fill-rule:nonzero;"/><path d="M1538.02,381.448c0,0 -3.657,-3.57 -6.482,-3.57c-2.826,0 -3.077,1.083 -2.41,1.785c0.667,0.702 4.29,3.371 4.29,3.371l4.602,-1.586Z" style="fill:#e1251c;fill-rule:nonzero;"/><path d="M1531.78,398.731l-5.486,2.67l6.318,7.384c0,0 4.906,-0.485 13.625,-2.904l-14.457,-7.15Z" style="fill:#e1251c;fill-rule:nonzero;"/><path d="M1562.45,408.787c0,0 -0.832,5.321 2.99,8.069c0,0 7.818,-1.829 12.55,-8.069l-15.54,0Z" style="fill:#e1251c;fill-rule:nonzero;"/><path d="M1487.54,375.016c3.927,-4.178 21.685,7.748 21.685,7.748c0,0 0.035,0.017 0.078,0.052c-1.438,0.511 -3.657,1.482 -4.039,2.73c-0.58,1.872 1.04,3.736 0.789,5.486c-0.234,1.621 -4.117,4.533 3.242,7.142c-6.951,4.94 -15.298,7.558 -19.076,7.376c-3.866,-0.182 -3.675,-1.491 -2.618,-5.608c1.057,-4.117 5.391,-6.925 5.608,-10.227c0.19,-2.799 -9.447,-10.686 -5.669,-14.699" style="fill:#e1251c;fill-rule:nonzero;"/><path d="M1638.97,391.419c0,0 0.728,-2.418 -2.175,-4.117c-2.904,-1.69 -24.649,-15.869 -61.544,-12.81c-32.987,2.722 -52.982,11.839 -57.905,11.337c-5.616,-0.564 -8.103,-3.094 -8.103,-3.094c0,0 0.034,0.026 0.078,0.069c-1.439,0.503 -3.658,1.473 -4.039,2.713c-0.59,1.872 1.031,3.744 0.789,5.486c-0.234,1.629 -4.117,4.541 3.232,7.133c0.165,-0.113 0.338,-0.217 0.503,-0.338c5.92,-4.351 18.001,-1.76 35.647,8.918c3.459,2.08 29.962,4.819 48.666,3.658c18.694,-1.162 30.247,-8.061 43.621,-15.046c0,0 1.248,-2.245 -0.33,-2.158c-1.577,0.078 -5.148,0.988 -5.148,0.988c0,0 0.451,-1.404 6.708,-2.739" style="fill:#042b49;fill-rule:nonzero;"/><path d="M1612.23,403.302c0.502,-0.65 0.078,-0.832 -1.829,-1.248c-1.916,-0.407 -13.217,-0.91 -15.54,0c-2.323,0.919 1.499,4.897 4.247,5.556c2.739,0.667 12.619,-3.658 13.122,-4.308" style="fill:#e1251c;fill-rule:nonzero;"/><path d="M1626.1,389.844c0,1.612 1.3,2.904 2.912,2.904c1.604,0 2.904,-1.292 2.904,-2.904c0,-1.612 -1.3,-2.912 -2.904,-2.912c-1.612,0 -2.912,1.3 -2.912,2.912" style="fill:#e1251c;fill-rule:nonzero;"/><path d="M1627.66,389.844c0,0.745 0.606,1.343 1.352,1.343c0.745,0 1.352,-0.598 1.352,-1.343c0,-0.745 -0.607,-1.352 -1.352,-1.352c-0.746,0 -1.352,0.607 -1.352,1.352" style="fill:#042b49;fill-rule:nonzero;"/><path d="M1616.55,384.191c-0.563,2.435 -0.91,3.414 -3.155,4.983c-2.245,1.586 -3.163,4.49 -2.825,6.154c0.329,1.664 0.58,3.597 7.809,7.323c0,0 1.092,0.624 2.071,1.326c-0.329,0.148 -0.659,0.278 -0.997,0.425c-1.074,-0.754 -2.73,-1.855 -4.567,-2.86c-3.155,-1.725 -5.486,-3.06 -5.235,-5.798c0.251,-2.739 0.338,-4.403 2.331,-6.483c1.994,-2.072 2.809,-1.136 3.485,-3.528c0.641,-2.236 -0.382,-4.463 4.437,-6.231c0.277,0.095 0.572,0.182 0.849,0.286c-1.447,0.346 -3.501,1.369 -4.203,4.403" style="fill:#e1251c;fill-rule:nonzero;"/><path d="M732.113,74.003c0,0 -5.651,-7.402 -12.801,-9.309l-11.38,8.312l4.984,2.912l19.197,-1.499" style="fill:#e1251c;fill-rule:nonzero;"/><path d="M685.079,80.901c0,0 -3.657,-3.571 -6.483,-3.571c-2.825,0 -3.077,1.083 -2.409,1.785c0.667,0.702 4.29,3.372 4.29,3.372l4.602,-1.586Z" style="fill:#e1251c;fill-rule:nonzero;"/><path d="M678.846,98.184l-5.486,2.669l6.318,7.384c0,0 4.905,-0.485 13.624,-2.903l-14.456,-7.15Z" style="fill:#e1251c;fill-rule:nonzero;"/><path d="M709.51,108.239c0,0 -0.832,5.322 2.991,8.069c0,0 7.817,-1.829 12.549,-8.069l-15.54,0Z" style="fill:#e1251c;fill-rule:nonzero;"/><path d="M634.605,74.468c3.926,-4.177 21.685,7.748 21.685,7.748c0,0 0.035,0.018 0.078,0.052c-1.439,0.512 -3.658,1.483 -4.039,2.731c-0.581,1.872 1.04,3.735 0.789,5.486c-0.234,1.621 -4.117,4.533 3.241,7.141c-6.951,4.941 -15.297,7.558 -19.076,7.376c-3.865,-0.182 -3.675,-1.491 -2.617,-5.608c1.057,-4.116 5.391,-6.924 5.607,-10.227c0.191,-2.799 -9.447,-10.686 -5.668,-14.699" style="fill:#e1251c;fill-rule:nonzero;"/><path d="M786.028,90.871c0,0 0.728,-2.418 -2.176,-4.117c-2.903,-1.69 -24.648,-15.869 -61.544,-12.809c-32.986,2.721 -52.981,11.839 -57.904,11.336c-5.616,-0.563 -8.104,-3.094 -8.104,-3.094c0,0 0.035,0.026 0.078,0.069c-1.438,0.503 -3.657,1.474 -4.039,2.713c-0.589,1.872 1.032,3.744 0.789,5.486c-0.234,1.63 -4.117,4.542 3.233,7.133c0.165,-0.112 0.338,-0.216 0.503,-0.338c5.919,-4.351 18.001,-1.759 35.647,8.919c3.458,2.08 29.962,4.818 48.665,3.657c18.695,-1.161 30.248,-8.06 43.621,-15.046c0,0 1.248,-2.245 -0.329,-2.158c-1.578,0.078 -5.148,0.988 -5.148,0.988c0,0 0.45,-1.404 6.708,-2.739" style="fill:#042b49;fill-rule:nonzero;"/><path d="M759.29,102.755c0.503,-0.65 0.078,-0.832 -1.829,-1.248c-1.915,-0.408 -13.217,-0.91 -15.539,0c-2.323,0.918 1.499,4.896 4.246,5.555c2.739,0.667 12.62,-3.657 13.122,-4.307" style="fill:#e1251c;fill-rule:nonzero;"/><path d="M773.167,89.297c0,1.612 1.3,2.903 2.912,2.903c1.603,0 2.903,-1.291 2.903,-2.903c0,-1.613 -1.3,-2.913 -2.903,-2.913c-1.612,0 -2.912,1.3 -2.912,2.913" style="fill:#e1251c;fill-rule:nonzero;"/><path d="M774.724,89.297c0,0.745 0.607,1.343 1.352,1.343c0.746,0 1.352,-0.598 1.352,-1.343c0,-0.746 -0.606,-1.353 -1.352,-1.353c-0.745,0 -1.352,0.607 -1.352,1.353" style="fill:#042b49;fill-rule:nonzero;"/><path d="M763.612,83.643c-0.564,2.435 -0.91,3.415 -3.155,4.984c-2.245,1.586 -3.164,4.489 -2.826,6.153c0.33,1.664 0.581,3.597 7.809,7.324c0,0 1.092,0.624 2.072,1.326c-0.33,0.147 -0.659,0.277 -0.997,0.424c-1.075,-0.754 -2.73,-1.854 -4.567,-2.86c-3.155,-1.724 -5.487,-3.059 -5.235,-5.798c0.251,-2.739 0.338,-4.403 2.331,-6.483c1.993,-2.071 2.808,-1.135 3.484,-3.527c0.642,-2.236 -0.381,-4.464 4.438,-6.232c0.277,0.096 0.572,0.182 0.849,0.286c-1.447,0.347 -3.501,1.37 -4.203,4.403" style="fill:#e1251c;fill-rule:nonzero;"/></g></svg>