<?xml version="1.0" encoding="UTF-8" standalone="no"?><!DOCTYPE svg PUBLIC "-//W3C//DTD SVG 1.1//EN" "http://www.w3.org/Graphics/SVG/1.1/DTD/svg11.dtd"><svg width="100%" height="100%" viewBox="0 0 2560 635" version="1.1" xmlns="http://www.w3.org/2000/svg" xmlns:xlink="http://www.w3.org/1999/xlink" xml:space="preserve" xmlns:serif="http://www.serif.com/" style="fill-rule:evenodd;clip-rule:evenodd;stroke-linejoin:round;stroke-miterlimit:1.41421;"><g><path d="M256.705,295.032l26.394,-45.724l-19.372,0l23.041,-39.918l-17.418,0l21.994,-38.098l-11.816,0l18.733,-32.446l18.739,32.446l-11.823,0l21.994,38.098l-17.425,0l23.049,39.918l-19.373,0l26.395,45.724l-32.187,0l0,31.399l-18.739,0l0,-31.399l-32.186,0Z" style="fill:#e8de82;fill-rule:nonzero;"/><path d="M298.261,326.429l-9.369,0l0,-31.399l-32.187,0l26.395,-45.724l-19.372,0l23.041,-39.911l-17.418,0l21.994,-38.097l-11.823,0l18.739,-32.454l0,187.585Z" style="fill:#042b49;fill-rule:nonzero;"/><path d="M252.31,329.058l-26.395,-45.724l19.372,0l-23.041,-39.918l17.418,0l-21.994,-38.098l11.816,0l-18.732,-32.453l-18.74,32.453l11.823,0l-21.994,38.098l17.418,0l-23.041,39.918l19.372,0l-26.394,45.724l32.186,0l0,31.399l18.732,0l0,-31.399l32.194,0Z" style="fill:#e8de82;fill-rule:nonzero;"/><path d="M210.754,360.456l-9.369,0l0,-31.399l-32.187,0l26.395,-45.724l-19.373,0l23.042,-39.911l-17.418,0l21.994,-38.098l-11.823,0l18.739,-32.453l0,187.585Z" style="fill:#042b49;fill-rule:nonzero;"/><path d="M364.067,292.334l32.207,-55.783l-23.639,0l28.11,-48.69l-21.249,0l26.837,-46.483l-14.424,0l22.852,-39.588l22.858,39.588l-14.416,0l26.83,46.483l-21.249,0l28.116,48.69l-23.639,0l32.2,55.783l-39.271,0l0,49.836l-22.859,0l0,-49.836l-39.264,0Z" style="fill:#e8de82;fill-rule:nonzero;"/><path d="M414.763,342.169l-11.429,0l0,-49.836l-39.264,0l32.2,-55.776l-23.639,0l28.116,-48.697l-21.255,0l26.837,-46.477l-14.417,0l22.851,-39.595l0,240.381Z" style="fill:#042b49;fill-rule:nonzero;"/><path d="M139.162,354.525l101.366,-46.856l103.096,0l39.833,23.428l42.175,-10.845l42.174,0.365l42.175,73.742l-509.981,0l0.457,-31.589l62.805,-4.618l75.9,-3.627Z" style="fill:#042b49;fill-rule:nonzero;"/><path d="M2421.3,279.776l-44.485,-77.043l32.652,0l-38.837,-67.266l29.358,0l-37.068,-64.205l19.919,0l-31.569,-54.682l-31.575,54.682l19.924,0l-37.068,64.205l29.353,0l-38.831,67.266l32.652,0l-44.485,77.043l54.245,0l0,68.841l31.575,0l0,-68.841l54.24,0Z" style="fill:#e8de82;fill-rule:nonzero;"/><path d="M2351.27,348.617l15.785,0l0,-68.841l54.245,0l-44.485,-77.043l32.652,0l-38.836,-67.266l29.352,0l-37.062,-64.205l19.918,0l-31.569,-54.682l0,332.037Z" style="fill:#042b49;fill-rule:nonzero;"/><rect x="0.002" y="394.634" width="2560" height="240.317" style="fill:#a5d4cc;"/><path d="M2235.23,263.196l-44.485,-77.043l32.652,0l-38.831,-67.267l29.358,0l-37.073,-64.204l19.924,0l-31.575,-54.682l-31.574,54.682l19.924,0l-37.063,64.204l29.353,0l-38.837,67.267l32.653,0l-44.485,77.043l54.245,0l0,68.841l31.574,0l0,-68.841l54.24,0Z" style="fill:#e8de82;fill-rule:nonzero;"/><path d="M2165.2,332.037l15.784,0l0,-68.841l54.245,0l-44.484,-77.043l32.652,0l-38.831,-67.267l29.352,0l-37.068,-64.204l19.924,0l-31.574,-54.682l0,332.037Z" style="fill:#042b49;fill-rule:nonzero;"/><path d="M1906.31,482.89l653.689,0l-1.21,-160.165l-109.425,-2.394l-37.665,-12.197l-114.398,0l-55.268,13.817l-81.979,-13.817l-76.042,12.197l-67.808,46.497l-14.375,48.862l-81.283,27.772l-14.236,39.428Z" style="fill:#042b49;fill-rule:nonzero;"/><path d="M1377.09,365.122c-9.41,106.565 -123.115,231.522 -123.115,231.522l-40.364,0c85.96,-67.388 143.776,-185.261 162.102,-226.167c0.779,-1.728 1.196,-3.57 1.377,-5.355" style="fill:#1d405b;fill-rule:nonzero;"/><path d="M1587.3,292.906c-8.394,25.542 -29.825,45.074 -56.734,50.609c0,0 -30.242,6.305 -61.016,12.677c-18.402,3.807 -34.354,15.6 -42.928,32.321c-37.383,73.113 -70.664,208.135 -70.664,208.135l-101.978,0c0,0 113.705,-124.966 123.115,-231.531c0.712,-6.723 -2.507,-13.455 -8.574,-17.025l-73.94,-43.279c-23.7,-13.873 -37.743,-39.225 -37.563,-66.077c0,-2.621 2.137,-4.292 4.283,-4.292c1.253,0 2.497,0.598 3.389,1.795c5.536,7.738 13.939,12.97 23.34,14.527l107.932,17.671c9.41,1.548 17.803,6.789 23.396,14.527c7.739,-5.592 17.329,-7.862 26.729,-6.304l107.989,17.737c9.41,1.547 18.991,-0.712 26.739,-6.315c3.332,-2.373 7.795,0.959 6.485,4.824" style="fill:#042b49;fill-rule:nonzero;"/><path d="M1563.79,596.646c-7.472,-9.172 -18.81,-15.049 -31.562,-15.049c-12.752,0 -24.089,5.877 -31.552,15.049l63.114,0Z" style="fill:#c0e0da;fill-rule:nonzero;"/><path d="M1442.05,597.147c-12.856,-18.402 -34.154,-30.48 -58.31,-30.48c-24.165,0 -45.463,12.078 -58.32,30.48l116.63,0Z" style="fill:#c0e0da;fill-rule:nonzero;"/><path d="M1481.95,596.814c-6.334,-9.296 -15.772,-15.221 -26.35,-15.221c-10.587,0 -20.025,5.925 -26.358,15.221l52.708,0Z" style="fill:#c0e0da;fill-rule:nonzero;"/><path d="M1283.96,599.463c-6.932,-17.614 -24.061,-30.1 -44.134,-30.1c-20.082,0 -37.202,12.486 -44.143,30.1l88.277,0Z" style="fill:#c0e0da;fill-rule:nonzero;"/><path d="M1311.39,596.646c-6.932,17.605 -24.061,30.091 -44.134,30.091c-20.082,0 -37.202,-12.486 -44.143,-30.091l88.277,0Z" style="fill:#c0e0da;fill-rule:nonzero;"/><path d="M1174.68,596.646c8.973,9.268 21.516,15.041 35.436,15.041c13.92,0 26.463,-5.773 35.436,-15.041l-70.872,0Z" style="fill:#c0e0da;fill-rule:nonzero;"/><path d="M1165.84,596.646c-5.184,-6.656 -13.245,-10.947 -22.332,-10.947c-9.087,0 -17.158,4.291 -22.343,10.947l44.675,0Z" style="fill:#c0e0da;fill-rule:nonzero;"/><path d="M1016.55,596.646c-4.349,-5.725 -11.166,-9.447 -18.905,-9.447c-7.739,0 -14.556,3.722 -18.905,9.447l37.81,0Z" style="fill:#c0e0da;fill-rule:nonzero;"/><path d="M1097.81,596.646c-7.558,-9.941 -19.418,-16.417 -32.863,-16.417c-13.455,0 -25.314,6.476 -32.872,16.417l65.735,0Z" style="fill:#c0e0da;fill-rule:nonzero;"/><path d="M1936.45,50.885c0,25.576 -21.745,46.312 -48.565,46.312c-26.821,0 -48.562,-20.736 -48.562,-46.312c0,-25.576 21.741,-46.311 48.562,-46.311c26.82,0 48.565,20.735 48.565,46.311" style="fill:#e8de82;fill-rule:nonzero;"/></g></svg>