<?xml version="1.0" encoding="UTF-8" standalone="no"?><!DOCTYPE svg PUBLIC "-//W3C//DTD SVG 1.1//EN" "http://www.w3.org/Graphics/SVG/1.1/DTD/svg11.dtd"><svg width="100%" height="100%" viewBox="0 0 603 307" version="1.1" xmlns="http://www.w3.org/2000/svg" xmlns:xlink="http://www.w3.org/1999/xlink" xml:space="preserve" xmlns:serif="http://www.serif.com/" style="fill-rule:evenodd;clip-rule:evenodd;stroke-linecap:round;stroke-linejoin:round;stroke-miterlimit:10;"><g><path d="M387.59,9.059c0,0 -5.499,-7.199 -12.456,-9.059l-11.08,8.09l4.853,2.826l18.683,-1.456" style="fill:#e1251c;fill-rule:nonzero;"/><path d="M341.809,15.771c0,0 -3.561,-3.476 -6.308,-3.476c-2.751,0 -2.996,1.048 -2.347,1.74c0.646,0.685 4.178,3.276 4.178,3.276l4.477,-1.54Z" style="fill:#e1251c;fill-rule:nonzero;"/><path d="M335.742,32.598l-5.339,2.588l6.148,7.199c0,0 4.772,-0.486 13.266,-2.832l-14.075,-6.955Z" style="fill:#e1251c;fill-rule:nonzero;"/><path d="M365.589,42.385c0,0 -0.81,5.175 2.91,7.845c0,0 7.604,-1.779 12.216,-7.845l-15.126,0Z" style="fill:#e1251c;fill-rule:nonzero;"/><path d="M292.681,9.507c3.823,-4.069 21.111,7.54 21.111,7.54c0,0 0.028,0.024 0.067,0.063c-1.395,0.494 -3.553,1.435 -3.929,2.649c-0.565,1.817 1.011,3.638 0.77,5.339c-0.227,1.579 -4.011,4.416 3.156,6.954c-6.763,4.81 -14.892,7.359 -18.566,7.181c-3.763,-0.184 -3.578,-1.455 -2.549,-5.459c1.033,-4.005 5.247,-6.745 5.46,-9.951c0.181,-2.73 -9.198,-10.404 -5.52,-14.316" style="fill:#e1251c;fill-rule:nonzero;"/><path d="M440.067,25.481c0,0 0.707,-2.357 -2.123,-4.008c-2.825,-1.647 -23.983,-15.445 -59.897,-12.478c-32.112,2.659 -51.569,11.53 -56.358,11.044c-5.467,-0.55 -7.888,-3.017 -7.888,-3.017c0,0 0.025,0.028 0.067,0.064c-1.395,0.493 -3.553,1.434 -3.929,2.651c-0.565,1.822 1.011,3.639 0.77,5.339c-0.227,1.577 -4.004,4.409 3.142,6.948c0.163,-0.118 0.337,-0.22 0.497,-0.338c5.758,-4.228 17.518,-1.707 34.7,8.676c3.358,2.031 29.159,4.693 47.359,3.557c18.2,-1.129 29.443,-7.845 42.467,-14.639c0,0 1.211,-2.184 -0.323,-2.102c-1.537,0.082 -5.016,0.969 -5.016,0.969c0,0 0.444,-1.374 6.532,-2.666" style="fill:#042b49;fill-rule:nonzero;"/><path d="M414.041,37.046c0.486,-0.635 0.082,-0.809 -1.778,-1.214c-1.861,-0.405 -12.862,-0.891 -15.127,0c-2.264,0.891 1.459,4.757 4.129,5.406c2.67,0.646 12.29,-3.557 12.776,-4.192" style="fill:#e1251c;fill-rule:nonzero;"/><path d="M427.549,23.942c0,1.562 1.267,2.833 2.833,2.833c1.562,0 2.829,-1.271 2.829,-2.833c0,-1.562 -1.267,-2.833 -2.829,-2.833c-1.566,0 -2.833,1.271 -2.833,2.833" style="fill:#e1251c;fill-rule:nonzero;"/><path d="M429.066,23.942c0,0.724 0.589,1.313 1.317,1.313c0.724,0 1.313,-0.589 1.313,-1.313c0,-0.724 -0.589,-1.314 -1.313,-1.314c-0.728,0 -1.317,0.59 -1.317,1.314" style="fill:#042b49;fill-rule:nonzero;"/><path d="M418.248,18.44c-0.547,2.372 -0.891,3.319 -3.075,4.853c-2.183,1.541 -3.074,4.37 -2.751,5.989c0.323,1.618 0.568,3.503 7.604,7.128c0,0 1.062,0.603 2.017,1.296c-0.32,0.138 -0.643,0.273 -0.966,0.404c-1.044,-0.727 -2.662,-1.803 -4.448,-2.779c-3.074,-1.683 -5.339,-2.975 -5.098,-5.645c0.245,-2.669 0.327,-4.288 2.269,-6.308c1.938,-2.027 2.733,-1.111 3.397,-3.44c0.618,-2.176 -0.376,-4.338 4.31,-6.063c0.28,0.092 0.564,0.188 0.834,0.281c-1.413,0.337 -3.412,1.334 -4.093,4.284" style="fill:#e1251c;fill-rule:nonzero;"/><path d="M300.751,87.899c0,0 -5.502,-7.196 -12.456,-9.059l-11.083,8.09l4.853,2.829l18.686,-1.455" style="fill:#e1251c;fill-rule:nonzero;"/><path d="M254.968,94.614c0,0 -3.56,-3.475 -6.308,-3.475c-2.751,0 -2.996,1.047 -2.346,1.735c0.646,0.689 4.178,3.277 4.178,3.277l4.476,-1.537Z" style="fill:#e1251c;fill-rule:nonzero;"/><path d="M248.901,111.438l-5.339,2.588l6.149,7.199c0,0 4.771,-0.486 13.266,-2.829l-14.076,-6.958Z" style="fill:#e1251c;fill-rule:nonzero;"/><path d="M278.75,121.224c0,0 -0.81,5.18 2.911,7.849c0,0 7.603,-1.782 12.215,-7.849l-15.126,0Z" style="fill:#e1251c;fill-rule:nonzero;"/><path d="M205.84,88.346c3.823,-4.064 21.111,7.54 21.111,7.54c0,0 0.029,0.029 0.068,0.064c-1.395,0.494 -3.55,1.438 -3.93,2.652c-0.564,1.817 1.012,3.639 0.77,5.339c-0.227,1.576 -4.011,4.416 3.156,6.951c-6.762,4.81 -14.892,7.362 -18.566,7.181c-3.763,-0.181 -3.578,-1.455 -2.549,-5.46c1.033,-4.004 5.247,-6.741 5.46,-9.95c0.181,-2.726 -9.198,-10.405 -5.52,-14.317" style="fill:#e1251c;fill-rule:nonzero;"/><path d="M353.226,104.321c0,0 0.707,-2.357 -2.119,-4.005c-2.829,-1.65 -23.987,-15.449 -59.901,-12.477c-32.109,2.655 -51.566,11.526 -56.358,11.043c-5.467,-0.553 -7.888,-3.021 -7.888,-3.021c0,0 0.025,0.029 0.068,0.068c-1.395,0.49 -3.554,1.434 -3.93,2.648c-0.565,1.821 1.012,3.639 0.77,5.339c-0.227,1.576 -4.004,4.413 3.142,6.947c0.163,-0.113 0.337,-0.216 0.497,-0.333c5.761,-4.232 17.519,-1.712 34.7,8.672c3.358,2.034 29.159,4.693 47.359,3.56c18.201,-1.132 29.443,-7.848 42.468,-14.643c0,0 1.214,-2.183 -0.323,-2.098c-1.538,0.078 -5.016,0.969 -5.016,0.969c0,0 0.443,-1.374 6.531,-2.669" style="fill:#042b49;fill-rule:nonzero;"/><path d="M327.2,115.886c0.487,-0.636 0.082,-0.81 -1.778,-1.214c-1.86,-0.402 -12.861,-0.888 -15.126,0c-2.265,0.891 1.459,4.76 4.128,5.406c2.67,0.646 12.29,-3.553 12.776,-4.192" style="fill:#e1251c;fill-rule:nonzero;"/><path d="M340.708,102.785c0,1.562 1.268,2.829 2.833,2.829c1.562,0 2.829,-1.267 2.829,-2.829c0,-1.565 -1.267,-2.833 -2.829,-2.833c-1.565,0 -2.833,1.268 -2.833,2.833" style="fill:#e1251c;fill-rule:nonzero;"/><path d="M342.225,102.785c0,0.724 0.589,1.314 1.317,1.314c0.724,0 1.313,-0.59 1.313,-1.314c0,-0.728 -0.589,-1.317 -1.313,-1.317c-0.728,0 -1.317,0.589 -1.317,1.317" style="fill:#042b49;fill-rule:nonzero;"/><path d="M331.407,97.283c-0.547,2.368 -0.887,3.32 -3.074,4.853c-2.183,1.537 -3.074,4.37 -2.751,5.985c0.326,1.619 0.568,3.504 7.603,7.132c0,0 1.062,0.6 2.017,1.292c-0.32,0.139 -0.643,0.274 -0.966,0.408c-1.043,-0.731 -2.662,-1.803 -4.448,-2.779c-3.074,-1.686 -5.335,-2.979 -5.094,-5.648c0.242,-2.67 0.323,-4.285 2.265,-6.308c1.938,-2.024 2.733,-1.108 3.397,-3.436c0.618,-2.18 -0.376,-4.342 4.31,-6.067c0.28,0.092 0.564,0.188 0.834,0.28c-1.413,0.337 -3.411,1.338 -4.093,4.288" style="fill:#e1251c;fill-rule:nonzero;"/><path d="M433.787,167.99c0,0 -5.498,-7.196 -12.456,-9.059l-11.083,8.09l4.853,2.829l18.686,-1.455" style="fill:#e1251c;fill-rule:nonzero;"/><path d="M388.004,174.705c0,0 -3.557,-3.475 -6.308,-3.475c-2.751,0 -2.992,1.047 -2.346,1.735c0.646,0.689 4.178,3.277 4.178,3.277l4.476,-1.537Z" style="fill:#e1251c;fill-rule:nonzero;"/><path d="M381.938,191.529l-5.339,2.588l6.148,7.199c0,0 4.771,-0.486 13.266,-2.829l-14.075,-6.958Z" style="fill:#e1251c;fill-rule:nonzero;"/><path d="M411.786,201.315c0,0 -0.81,5.18 2.911,7.849c0,0 7.604,-1.782 12.215,-7.849l-15.126,0Z" style="fill:#e1251c;fill-rule:nonzero;"/><path d="M338.878,168.437c3.823,-4.064 21.111,7.54 21.111,7.54c0,0 0.028,0.029 0.067,0.064c-1.395,0.493 -3.553,1.438 -3.929,2.652c-0.565,1.817 1.011,3.638 0.77,5.339c-0.227,1.576 -4.011,4.416 3.156,6.951c-6.763,4.81 -14.892,7.358 -18.566,7.181c-3.763,-0.181 -3.578,-1.455 -2.549,-5.46c1.033,-4.004 5.247,-6.741 5.46,-9.95c0.181,-2.726 -9.198,-10.405 -5.52,-14.317" style="fill:#e1251c;fill-rule:nonzero;"/><path d="M486.263,184.412c0,0 0.706,-2.357 -2.12,-4.005c-2.829,-1.65 -23.986,-15.449 -59.901,-12.477c-32.108,2.655 -51.565,11.526 -56.358,11.043c-5.467,-0.554 -7.888,-3.021 -7.888,-3.021c0,0 0.029,0.029 0.068,0.068c-1.395,0.49 -3.55,1.434 -3.93,2.648c-0.564,1.821 1.012,3.639 0.77,5.339c-0.227,1.576 -4.004,4.413 3.146,6.947c0.163,-0.113 0.333,-0.216 0.493,-0.334c5.762,-4.231 17.519,-1.711 34.7,8.673c3.362,2.034 29.163,4.693 47.363,3.56c18.2,-1.132 29.443,-7.848 42.464,-14.643c0,0 1.214,-2.183 -0.323,-2.098c-1.537,0.078 -5.016,0.969 -5.016,0.969c0,0 0.447,-1.374 6.532,-2.669" style="fill:#042b49;fill-rule:nonzero;"/><path d="M460.238,195.977c0.486,-0.636 0.082,-0.81 -1.779,-1.215c-1.86,-0.401 -12.864,-0.887 -15.126,0c-2.264,0.892 1.459,4.761 4.129,5.407c2.669,0.646 12.29,-3.557 12.776,-4.192" style="fill:#e1251c;fill-rule:nonzero;"/><path d="M473.746,182.872c0,1.566 1.267,2.833 2.829,2.833c1.566,0 2.833,-1.267 2.833,-2.833c0,-1.561 -1.267,-2.829 -2.833,-2.829c-1.562,0 -2.829,1.268 -2.829,2.829" style="fill:#e1251c;fill-rule:nonzero;"/><path d="M475.263,182.872c0,0.728 0.589,1.317 1.313,1.317c0.728,0 1.317,-0.589 1.317,-1.317c0,-0.724 -0.589,-1.313 -1.317,-1.313c-0.724,0 -1.313,0.589 -1.313,1.313" style="fill:#042b49;fill-rule:nonzero;"/><path d="M464.443,177.374c-0.546,2.368 -0.887,3.316 -3.074,4.853c-2.183,1.537 -3.071,4.37 -2.748,5.985c0.323,1.619 0.565,3.504 7.601,7.132c0,0 1.065,0.6 2.016,1.292c-0.319,0.139 -0.639,0.273 -0.962,0.408c-1.047,-0.731 -2.666,-1.803 -4.452,-2.779c-3.07,-1.686 -5.335,-2.979 -5.094,-5.648c0.242,-2.67 0.323,-4.288 2.265,-6.308c1.942,-2.024 2.737,-1.108 3.397,-3.437c0.618,-2.179 -0.376,-4.341 4.314,-6.066c0.276,0.092 0.56,0.188 0.83,0.28c-1.409,0.337 -3.411,1.338 -4.093,4.288" style="fill:#e1251c;fill-rule:nonzero;"/><path d="M259.731,216.052c0,0 -5.498,-7.199 -12.456,-9.059l-11.083,8.09l4.853,2.829l18.686,-1.455" style="fill:#e1251c;fill-rule:nonzero;"/><path d="M213.948,222.767c0,0 -3.557,-3.479 -6.308,-3.479c-2.751,0 -2.992,1.051 -2.346,1.74c0.649,0.685 4.178,3.276 4.178,3.276l4.476,-1.537Z" style="fill:#e1251c;fill-rule:nonzero;"/><path d="M207.882,239.591l-5.335,2.588l6.144,7.199c0,0 4.771,-0.486 13.266,-2.832l-14.075,-6.955Z" style="fill:#e1251c;fill-rule:nonzero;"/><path d="M237.73,249.378c0,0 -0.809,5.175 2.911,7.845c0,0 7.604,-1.779 12.215,-7.845l-15.126,0Z" style="fill:#e1251c;fill-rule:nonzero;"/><path d="M164.822,216.5c3.823,-4.065 21.111,7.54 21.111,7.54c0,0 0.029,0.024 0.068,0.063c-1.395,0.494 -3.554,1.435 -3.93,2.652c-0.564,1.818 1.012,3.635 0.77,5.336c-0.227,1.579 -4.011,4.416 3.156,6.954c-6.762,4.81 -14.892,7.359 -18.566,7.181c-3.763,-0.184 -3.578,-1.455 -2.549,-5.459c1.033,-4.005 5.247,-6.742 5.46,-9.951c0.181,-2.726 -9.198,-10.404 -5.52,-14.316" style="fill:#e1251c;fill-rule:nonzero;"/><path d="M312.207,232.474c0,0 0.706,-2.357 -2.12,-4.004c-2.829,-1.651 -23.986,-15.449 -59.901,-12.482c-32.108,2.659 -51.565,11.53 -56.358,11.044c-5.467,-0.55 -7.888,-3.017 -7.888,-3.017c0,0 0.029,0.028 0.068,0.064c-1.395,0.493 -3.55,1.437 -3.93,2.651c-0.564,1.821 1.012,3.639 0.77,5.339c-0.227,1.577 -4.004,4.413 3.146,6.948c0.163,-0.118 0.333,-0.221 0.493,-0.338c5.762,-4.228 17.519,-1.707 34.7,8.676c3.362,2.031 29.163,4.693 47.363,3.557c18.2,-1.129 29.443,-7.845 42.464,-14.64c0,0 1.214,-2.183 -0.323,-2.101c-1.537,0.082 -5.016,0.969 -5.016,0.969c0,0 0.447,-1.374 6.532,-2.666" style="fill:#042b49;fill-rule:nonzero;"/><path d="M286.182,244.039c0.487,-0.635 0.082,-0.809 -1.778,-1.214c-1.86,-0.405 -12.865,-0.891 -15.126,0c-2.265,0.891 1.459,4.76 4.128,5.406c2.67,0.646 12.29,-3.557 12.776,-4.192" style="fill:#e1251c;fill-rule:nonzero;"/><path d="M299.69,230.935c0,1.562 1.268,2.833 2.83,2.833c1.565,0 2.833,-1.271 2.833,-2.833c0,-1.562 -1.268,-2.829 -2.833,-2.829c-1.562,0 -2.83,1.267 -2.83,2.829" style="fill:#e1251c;fill-rule:nonzero;"/><path d="M301.207,230.935c0,0.728 0.589,1.313 1.313,1.313c0.728,0 1.317,-0.585 1.317,-1.313c0,-0.724 -0.589,-1.314 -1.317,-1.314c-0.724,0 -1.313,0.59 -1.313,1.314" style="fill:#042b49;fill-rule:nonzero;"/><path d="M290.389,225.436c-0.546,2.368 -0.891,3.316 -3.074,4.853c-2.183,1.537 -3.074,4.367 -2.751,5.985c0.323,1.619 0.568,3.504 7.604,7.132c0,0 1.061,0.6 2.016,1.292c-0.319,0.139 -0.642,0.273 -0.965,0.408c-1.044,-0.731 -2.663,-1.803 -4.448,-2.783c-3.075,-1.682 -5.339,-2.975 -5.098,-5.644c0.245,-2.67 0.327,-4.288 2.268,-6.308c1.939,-2.024 2.734,-1.111 3.398,-3.44c0.617,-2.176 -0.377,-4.338 4.309,-6.063c0.281,0.092 0.561,0.188 0.834,0.28c-1.412,0.337 -3.415,1.335 -4.093,4.288" style="fill:#e1251c;fill-rule:nonzero;"/><path d="M121.313,40.606l94.236,0" style="fill:none;stroke:#e8de82;stroke-width:8.33px;"/><path d="M121.313,302.109l94.236,0" style="fill:none;stroke:#e8de82;stroke-width:8.33px;"/><path d="M53.037,8.886l107.64,0" style="fill:none;stroke:#e8de82;stroke-width:8.33px;"/><path d="M4.167,8.886l30.149,0" style="fill:none;stroke:#e8de82;stroke-width:8.33px;"/><path d="M79.47,278.716l76.77,0" style="fill:none;stroke:#e8de82;stroke-width:8.33px;"/><path d="M30.6,278.716l30.15,0" style="fill:none;stroke:#e8de82;stroke-width:8.33px;"/><path d="M136.419,168.864l17.807,0" style="fill:none;stroke:#e8de82;stroke-width:8.33px;"/><path d="M169.209,168.864l66.032,0" style="fill:none;stroke:#e8de82;stroke-width:8.33px;"/><path d="M515.813,95.384c0,0 -5.503,-7.2 -12.457,-9.063l-11.083,8.093l4.853,2.826l18.687,-1.455" style="fill:#e1251c;fill-rule:nonzero;"/><path d="M470.03,102.095c0,0 -3.557,-3.475 -6.309,-3.475c-2.751,0 -2.996,1.047 -2.346,1.739c0.646,0.685 4.178,3.277 4.178,3.277l4.477,-1.541Z" style="fill:#e1251c;fill-rule:nonzero;"/><path d="M463.963,118.919l-5.339,2.588l6.149,7.203c0,0 4.771,-0.487 13.266,-2.833l-14.076,-6.958Z" style="fill:#e1251c;fill-rule:nonzero;"/><path d="M493.811,128.709c0,0 -0.809,5.176 2.911,7.845c0,0 7.604,-1.778 12.216,-7.845l-15.127,0Z" style="fill:#e1251c;fill-rule:nonzero;"/><path d="M420.902,95.831c3.823,-4.068 21.111,7.536 21.111,7.536c0,0 0.028,0.029 0.067,0.068c-1.395,0.49 -3.55,1.434 -3.929,2.648c-0.565,1.817 1.011,3.639 0.77,5.339c-0.227,1.58 -4.012,4.416 3.156,6.951c-6.763,4.81 -14.892,7.362 -18.566,7.185c-3.763,-0.185 -3.579,-1.456 -2.549,-5.46c1.033,-4.004 5.247,-6.745 5.46,-9.95c0.181,-2.73 -9.198,-10.409 -5.52,-14.317" style="fill:#e1251c;fill-rule:nonzero;"/><path d="M568.288,111.802c0,0 0.706,-2.354 -2.119,-4.004c-2.83,-1.651 -23.987,-15.446 -59.901,-12.478c-32.109,2.659 -51.566,11.526 -56.358,11.043c-5.467,-0.553 -7.888,-3.017 -7.888,-3.017c0,0 0.025,0.025 0.067,0.064c-1.395,0.493 -3.553,1.434 -3.93,2.648c-0.564,1.825 1.012,3.639 0.771,5.339c-0.227,1.58 -4.005,4.413 3.141,6.947c0.164,-0.113 0.338,-0.216 0.497,-0.333c5.762,-4.228 17.519,-1.711 34.701,8.672c3.358,2.034 29.158,4.696 47.359,3.561c18.2,-1.133 29.443,-7.846 42.467,-14.64c0,0 1.214,-2.183 -0.323,-2.102c-1.537,0.078 -5.016,0.969 -5.016,0.969c0,0 0.444,-1.373 6.532,-2.669" style="fill:#042b49;fill-rule:nonzero;"/><path d="M542.262,123.37c0.486,-0.635 0.081,-0.813 -1.779,-1.214c-1.86,-0.405 -12.861,-0.891 -15.126,0c-2.265,0.888 1.463,4.757 4.129,5.407c2.669,0.642 12.29,-3.557 12.776,-4.193" style="fill:#e1251c;fill-rule:nonzero;"/><path d="M555.77,110.266c0,1.562 1.267,2.829 2.833,2.829c1.562,0 2.829,-1.267 2.829,-2.829c0,-1.562 -1.267,-2.833 -2.829,-2.833c-1.566,0 -2.833,1.271 -2.833,2.833" style="fill:#e1251c;fill-rule:nonzero;"/><path d="M557.286,110.266c0,0.724 0.59,1.314 1.317,1.314c0.725,0 1.314,-0.59 1.314,-1.314c0,-0.728 -0.589,-1.313 -1.314,-1.313c-0.727,0 -1.317,0.585 -1.317,1.313" style="fill:#042b49;fill-rule:nonzero;"/><path d="M546.469,104.764c-0.547,2.372 -0.888,3.32 -3.074,4.853c-2.184,1.537 -3.075,4.37 -2.752,5.989c0.327,1.615 0.568,3.5 7.604,7.128c0,0 1.062,0.604 2.017,1.296c-0.32,0.135 -0.643,0.27 -0.966,0.404c-1.044,-0.727 -2.662,-1.803 -4.448,-2.779c-3.074,-1.683 -5.335,-2.978 -5.094,-5.648c0.241,-2.67 0.323,-4.285 2.265,-6.308c1.938,-2.024 2.733,-1.108 3.397,-3.436c0.618,-2.177 -0.376,-4.342 4.31,-6.064c0.28,0.093 0.564,0.185 0.834,0.281c-1.413,0.333 -3.412,1.335 -4.093,4.284" style="fill:#e1251c;fill-rule:nonzero;"/><path d="M550.025,251.198c0,0 -5.498,-7.2 -12.456,-9.063l-11.079,8.094l4.852,2.825l18.683,-1.455" style="fill:#e1251c;fill-rule:nonzero;"/><path d="M504.244,257.909c0,0 -3.56,-3.475 -6.308,-3.475c-2.751,0 -2.996,1.047 -2.346,1.739c0.646,0.685 4.178,3.277 4.178,3.277l4.476,-1.541Z" style="fill:#e1251c;fill-rule:nonzero;"/><path d="M498.177,274.733l-5.339,2.588l6.149,7.203c0,0 4.771,-0.487 13.262,-2.833l-14.072,-6.958Z" style="fill:#e1251c;fill-rule:nonzero;"/><path d="M528.024,284.523c0,0 -0.809,5.176 2.911,7.845c0,0 7.604,-1.778 12.215,-7.845l-15.126,0Z" style="fill:#e1251c;fill-rule:nonzero;"/><path d="M455.116,251.645c3.823,-4.068 21.111,7.536 21.111,7.536c0,0 0.029,0.029 0.068,0.068c-1.395,0.49 -3.554,1.434 -3.93,2.648c-0.564,1.818 1.012,3.639 0.77,5.339c-0.227,1.58 -4.011,4.416 3.156,6.951c-6.762,4.81 -14.891,7.362 -18.566,7.185c-3.763,-0.185 -3.578,-1.456 -2.548,-5.46c1.033,-4.004 5.246,-6.745 5.459,-9.95c0.181,-2.73 -9.197,-10.409 -5.52,-14.317" style="fill:#e1251c;fill-rule:nonzero;"/><path d="M602.503,267.616c0,0 0.706,-2.354 -2.123,-4.004c-2.826,-1.651 -23.983,-15.446 -59.898,-12.478c-32.112,2.659 -51.569,11.526 -56.358,11.043c-5.467,-0.553 -7.888,-3.017 -7.888,-3.017c0,0 0.025,0.025 0.068,0.064c-1.395,0.493 -3.554,1.434 -3.93,2.648c-0.564,1.825 1.012,3.639 0.77,5.339c-0.227,1.58 -4.004,4.413 3.142,6.947c0.163,-0.113 0.337,-0.216 0.497,-0.333c5.758,-4.228 17.519,-1.711 34.7,8.672c3.358,2.034 29.159,4.697 47.359,3.561c18.201,-1.133 29.443,-7.846 42.468,-14.64c0,0 1.21,-2.183 -0.323,-2.102c-1.537,0.078 -5.016,0.969 -5.016,0.969c0,0 0.443,-1.373 6.532,-2.669" style="fill:#042b49;fill-rule:nonzero;"/><path d="M576.476,279.184c0.487,-0.635 0.082,-0.813 -1.778,-1.214c-1.86,-0.404 -12.861,-0.891 -15.126,0c-2.265,0.888 1.459,4.757 4.128,5.407c2.67,0.642 12.29,-3.557 12.776,-4.193" style="fill:#e1251c;fill-rule:nonzero;"/><path d="M580.683,260.579c-0.547,2.371 -0.891,3.319 -3.074,4.852c-2.183,1.537 -3.074,4.37 -2.751,5.989c0.323,1.615 0.568,3.5 7.604,7.128c0,0 1.061,0.604 2.016,1.296c-0.32,0.135 -0.643,0.27 -0.966,0.405c-1.043,-0.728 -2.662,-1.804 -4.448,-2.78c-3.074,-1.683 -5.339,-2.978 -5.097,-5.648c0.245,-2.669 0.326,-4.285 2.268,-6.308c1.938,-2.023 2.733,-1.108 3.397,-3.436c0.618,-2.176 -0.376,-4.342 4.31,-6.064c0.28,0.093 0.564,0.189 0.834,0.281c-1.413,0.337 -3.415,1.335 -4.093,4.285" style="fill:#e1251c;fill-rule:nonzero;"/><path d="M589.931,265.69c0,1.566 1.268,2.833 2.83,2.833c1.565,0 2.833,-1.267 2.833,-2.833c0,-1.562 -1.268,-2.829 -2.833,-2.829c-1.562,0 -2.83,1.267 -2.83,2.829" style="fill:#e1251c;fill-rule:nonzero;"/><path d="M591.448,265.69c0,0.728 0.59,1.317 1.314,1.317c0.728,0 1.317,-0.589 1.317,-1.317c0,-0.724 -0.589,-1.313 -1.317,-1.313c-0.724,0 -1.314,0.589 -1.314,1.313" style="fill:#042b49;fill-rule:nonzero;"/></g></svg>