<?xml version="1.0" encoding="UTF-8" standalone="no"?><!DOCTYPE svg PUBLIC "-//W3C//DTD SVG 1.1//EN" "http://www.w3.org/Graphics/SVG/1.1/DTD/svg11.dtd"><svg width="100%" height="100%" viewBox="0 0 599 356" version="1.1" xmlns="http://www.w3.org/2000/svg" xmlns:xlink="http://www.w3.org/1999/xlink" xml:space="preserve" xmlns:serif="http://www.serif.com/" style="fill-rule:evenodd;clip-rule:evenodd;stroke-miterlimit:10;"><g><path d="M205.993,83.179l-28.488,0c3.003,-2.614 4.941,-6.424 4.941,-10.722c0,-7.875 -6.388,-14.267 -14.267,-14.267l-153.911,0c-7.88,0 -14.268,6.392 -14.268,14.267c0,7.88 6.388,14.272 14.268,14.272l34.612,0c-3.007,2.615 -4.945,6.424 -4.945,10.718c0,5.984 3.693,11.093 8.918,13.212l-17.126,0c-7.879,0 -14.267,6.392 -14.267,14.268c0,7.879 6.388,14.272 14.267,14.272l143.481,0c7.88,0 14.268,-6.393 14.268,-14.272c0,-5.985 -3.694,-11.09 -8.919,-13.208l21.436,0c7.879,0 14.268,-6.393 14.268,-14.272c0,-7.876 -6.389,-14.268 -14.268,-14.268" style="fill:#a5d4cc;fill-rule:nonzero;"/><path d="M431.841,80.11l-26.161,0c4.21,-1.838 7.156,-6.028 7.156,-10.913c0,-5.513 -3.762,-10.114 -8.851,-11.474l19.945,0c6.58,0 11.917,-5.337 11.917,-11.917c0,-6.584 -5.337,-11.921 -11.917,-11.921l-110.445,0c-6.58,0 -11.917,5.337 -11.917,11.921c0,5.517 3.762,10.106 8.851,11.47l-15.551,0c-6.584,0 -11.921,5.337 -11.921,11.921c0,6.58 5.337,11.917 11.921,11.917l29.255,0c-4.209,1.839 -7.156,6.028 -7.156,10.914c0,6.584 5.337,11.921 11.918,11.921l102.956,0c6.58,0 11.917,-5.337 11.917,-11.921c0,-6.581 -5.337,-11.918 -11.917,-11.918" style="fill:#a5d4cc;fill-rule:nonzero;"/><path d="M419.327,194.794l-17.942,-31.074l13.168,0l-15.663,-27.136l11.842,0l-14.952,-25.893l8.036,0l-12.733,-22.055l-12.737,22.055l8.036,0l-14.952,25.893l11.841,0l-15.662,27.136l13.168,0l-17.942,31.074l21.88,0l0,27.764l12.732,0l0,-27.764l21.88,0Z" style="fill:#e8de82;fill-rule:nonzero;"/><path d="M391.081,222.56l6.368,0l0,-27.764l21.876,0l-17.942,-31.078l13.172,0l-15.663,-27.133l11.838,0l-14.948,-25.893l8.036,0l-12.737,-22.055l0,133.923Z" style="fill:#042b49;fill-rule:nonzero;"/><path d="M259.956,200.713l-23.65,-40.965l17.358,0l-20.648,-35.763l15.611,0l-19.709,-34.132l10.59,0l-16.782,-29.079l-16.791,29.079l10.594,0l-19.708,34.132l15.607,0l-20.649,35.763l17.362,0l-23.65,40.965l28.839,0l0,36.599l16.787,0l0,-36.599l28.839,0Z" style="fill:#e8de82;fill-rule:nonzero;"/><path d="M222.724,237.313l8.391,0l0,-36.599l28.839,0l-23.65,-40.964l17.362,0l-20.648,-35.768l15.607,0l-19.709,-34.132l10.594,0l-16.786,-29.075l0,176.538Z" style="fill:#042b49;fill-rule:nonzero;"/><path d="M346.152,194.779l-22.651,-39.23l16.627,0l-19.773,-34.244l14.947,0l-18.873,-32.689l10.142,0l-16.074,-27.844l-16.075,27.844l10.142,0l-18.873,32.689l14.947,0l-19.772,34.244l16.622,0l-22.647,39.23l27.616,0l0,35.051l16.075,0l0,-35.051l27.62,0Z" style="fill:#e8de82;fill-rule:nonzero;"/><path d="M310.497,229.829l8.035,0l0,-35.052l27.62,0l-22.651,-39.225l16.627,0l-19.773,-34.245l14.947,0l-18.873,-32.689l10.142,0l-16.074,-27.844l0,169.055Z" style="fill:#042b49;fill-rule:nonzero;"/><path d="M36.08,274.389l-27.209,49.943l13.604,14.691l37.787,-6.576l0,16.859l176.845,6.648l60.697,-13.996l64.467,-9.511l15.463,-17.278l64.834,-9.93l-5.7,-8.815l23.198,-5.876l37.003,1.467l101.345,-43.355l-11.885,-18.342l-87.429,-8.815l-62.232,-17.629l-59.134,0l-113.65,6.172l-90.46,7.052l-137.544,57.291Z" style="fill:#042b49;fill-rule:nonzero;"/><path d="M178.46,202.173l-34.168,-59.186l25.081,0l-29.831,-51.666l22.547,0l-28.471,-49.312l15.299,0l-24.25,-42.007l-24.25,42.007l15.299,0l-28.471,49.312l22.551,0l-29.831,51.666l25.081,0l-34.172,59.186l41.668,0l0,52.881l24.25,0l0,-52.881l41.668,0Z" style="fill:#e8de82;fill-rule:nonzero;"/><path d="M124.667,255.052l12.125,0l0,-52.881l41.668,0l-34.168,-59.182l25.081,0l-29.831,-51.666l22.547,0l-28.471,-49.315l15.299,0l-24.25,-42.008l0,255.052Z" style="fill:#042b49;fill-rule:nonzero;"/><path d="M527.145,191.163l-26.984,-46.733l19.808,0l-23.558,-40.8l17.806,0l-22.483,-38.941l12.085,0l-19.149,-33.169l-19.153,33.169l12.081,0l-22.483,38.941l17.809,0l-23.558,40.8l19.809,0l-26.985,46.733l32.901,0l0,41.756l19.153,0l0,-41.756l32.901,0Z" style="fill:#e8de82;fill-rule:nonzero;"/><path d="M484.668,232.921l9.574,0l0,-41.756l32.901,0l-26.98,-46.737l19.804,0l-23.554,-40.796l17.806,0l-22.483,-38.942l12.081,0l-19.149,-33.169l0,201.4Z" style="fill:#042b49;fill-rule:nonzero;"/><path d="M215.025,232.53c-0.22,-1.603 0.903,-3.082 2.506,-3.306l15.615,-2.143c1.607,-0.223 3.087,0.9 3.306,2.507c0.224,1.603 -0.899,3.082 -2.506,3.306l-15.615,2.143c-1.603,0.224 -3.086,-0.904 -3.306,-2.507" style="fill:#e1251c;fill-rule:nonzero;"/><path d="M227.012,205.499c0,6.053 -4.905,10.954 -10.958,10.954c-6.052,0 -10.957,-4.901 -10.957,-10.954c0,-6.052 4.905,-10.958 10.957,-10.958c6.053,0 10.958,4.906 10.958,10.958" style="fill:#e1251c;fill-rule:nonzero;"/><path d="M207.359,212.151c0,0 3.362,-1.163 2.159,-2.366c-2.307,-2.307 -0.204,-3.95 0.58,-3.746c4.421,1.151 11.629,-1.491 11.917,-6.249c0,0 2.526,6.205 4.997,4.71c3.726,-2.259 1.535,-7.976 -1.635,-7.976c-0.48,-2.954 -4.685,-4.937 -9.687,-4.613c-10.593,0.668 -16.454,13.588 -8.331,20.24" style="fill:#042b49;fill-rule:nonzero;"/><rect x="212.329" y="215.351" width="8.075" height="4.417" style="fill:#e1251c;"/><path d="M209.717,218.917l12.829,0c0,0 5.237,9.834 4.37,35.128l-20.089,0l2.89,-35.128Z" style="fill:#84c7bb;fill-rule:nonzero;"/><path d="M208.607,253.182l10.665,22.203l-2.006,14.128l5.037,0l4.709,-14.271l-1.971,-22.06l-16.434,0Z" style="fill:#84c7bb;fill-rule:nonzero;"/><path d="M217.264,289.513l8.015,0c1.731,0 2.423,2.834 2.423,2.834l-10.438,0l0,-2.834Z" style="fill:#e1251c;fill-rule:nonzero;"/><path d="M208.909,248.701l1.559,24.581l-7.164,12.341l4.67,1.895l9.718,-11.465l6.452,-21.184l-15.235,-6.168Z" style="fill:#84c7bb;fill-rule:nonzero;"/><path d="M203.303,285.624c0,0 5.829,2.363 7.432,3.011c1.603,0.647 1.179,3.538 1.179,3.538l-9.674,-3.918l1.063,-2.631Z" style="fill:#e1251c;fill-rule:nonzero;"/><path d="M219.563,240.967c-1.539,0.507 -3.198,-0.328 -3.705,-1.867l-4.95,-14.964c-0.507,-1.539 0.328,-3.198 1.867,-3.71c1.539,-0.507 3.198,0.328 3.706,1.867l4.945,14.964c0.512,1.539 -0.324,3.198 -1.863,3.71" style="fill:#e1251c;fill-rule:nonzero;"/><path d="M233.395,235.989l5.033,31.658" style="fill:none;stroke:#e8de82;stroke-width:2.08px;"/><path d="M236.758,235.454l-6.428,1.024l-2.043,-6.353l8.139,-1.295l0.332,6.624Z" style="fill:none;stroke:#e8de82;stroke-width:2.08px;stroke-linecap:round;stroke-linejoin:round;"/><path d="M238.427,267.647l4.805,-0.76c0,0 4.106,5.901 -1.782,14.668c-0.356,0.527 -1.084,0.647 -1.588,0.256c-8.315,-6.513 -6.244,-13.401 -6.244,-13.401l4.809,-0.763Z" style="fill:#e1251c;fill-rule:nonzero;"/><path d="M216.364,237.254c0.58,-1.511 2.275,-2.267 3.786,-1.691l14.723,5.633c1.511,0.583 2.271,2.278 1.691,3.793c-0.579,1.512 -2.274,2.267 -3.789,1.687l-14.72,-5.632c-1.515,-0.58 -2.271,-2.275 -1.691,-3.79" style="fill:#e1251c;fill-rule:nonzero;"/><path d="M356.702,192.136c0,0 -0.343,3.082 -1.271,3.997c-0.927,0.916 -0.528,2.167 1.271,2.499c1.799,0.332 4.882,-2.415 5.965,-1.667c1.079,0.751 -5.965,-4.829 -5.965,-4.829" style="fill:#042b49;fill-rule:nonzero;"/><path d="M367.981,215.255c0.22,-1.603 -0.903,-3.086 -2.506,-3.306l-15.615,-2.147c-1.607,-0.22 -3.087,0.9 -3.306,2.507c-0.22,1.607 0.903,3.086 2.506,3.306l15.615,2.147c1.607,0.219 3.086,-0.904 3.306,-2.507" style="fill:#e1251c;fill-rule:nonzero;"/><rect x="362.598" y="198.073" width="8.075" height="4.421" style="fill:#e1251c;"/><path d="M373.291,201.638l-12.833,0c0,0 -5.233,9.838 -4.365,35.132l20.088,0l-2.89,-35.132Z" style="fill:#84c7bb;fill-rule:nonzero;"/><path d="M374.401,235.903l-10.665,22.203l2.006,14.128l-5.037,0l-4.709,-14.272l1.971,-22.059l16.434,0Z" style="fill:#84c7bb;fill-rule:nonzero;"/><path d="M365.742,272.234l-8.015,0c-1.731,0 -2.423,2.834 -2.423,2.834l10.438,0l0,-2.834Z" style="fill:#e1251c;fill-rule:nonzero;"/><path d="M374.097,231.425l-1.559,24.578l7.168,12.345l-4.67,1.891l-9.722,-11.462l-6.452,-21.187l15.235,-6.165Z" style="fill:#84c7bb;fill-rule:nonzero;"/><path d="M379.705,268.35c0,0 -5.829,2.358 -7.432,3.006c-1.603,0.651 -1.179,3.538 -1.179,3.538l9.674,-3.918l-1.063,-2.626Z" style="fill:#e1251c;fill-rule:nonzero;"/><path d="M363.445,223.688c1.539,0.507 3.198,-0.324 3.706,-1.867l4.949,-14.963c0.508,-1.54 -0.328,-3.199 -1.867,-3.706c-1.539,-0.512 -3.198,0.323 -3.706,1.863l-4.949,14.967c-0.508,1.539 0.328,3.198 1.867,3.706" style="fill:#e1251c;fill-rule:nonzero;"/><path d="M349.613,218.714l-5.033,31.658" style="fill:none;stroke:#e8de82;stroke-width:2.08px;"/><path d="M346.25,218.179l6.428,1.02l2.039,-6.353l-8.14,-1.291l-0.327,6.624Z" style="fill:none;stroke:#e8de82;stroke-width:2.08px;stroke-linecap:round;stroke-linejoin:round;"/><path d="M344.581,250.372l-4.81,-0.764c0,0 -4.101,5.901 1.787,14.672c0.352,0.527 1.084,0.647 1.583,0.251c8.316,-6.512 6.249,-13.4 6.249,-13.4l-4.809,-0.759Z" style="fill:#e1251c;fill-rule:nonzero;"/><path d="M366.644,219.979c-0.579,-1.515 -2.274,-2.271 -3.79,-1.691l-14.719,5.632c-1.511,0.58 -2.271,2.275 -1.691,3.79c0.58,1.515 2.275,2.271 3.79,1.687l14.719,-5.632c1.515,-0.576 2.271,-2.275 1.691,-3.786" style="fill:#e1251c;fill-rule:nonzero;"/><path d="M355.996,188.22c0,6.052 4.905,10.958 10.958,10.958c6.048,0 10.953,-4.906 10.953,-10.958c0,-6.053 -4.905,-10.954 -10.953,-10.954c-6.053,0 -10.958,4.901 -10.958,10.954" style="fill:#e1251c;fill-rule:nonzero;"/><path d="M366.953,199.178c-3.375,-1.263 2.722,-11.161 1.938,-10.957c-4.421,1.155 -7.607,-0.952 -7.899,-5.709c0,0 -2.531,6.204 -4.997,4.709c-3.722,-2.254 -1.535,-7.975 1.635,-7.975c0.48,-2.958 4.681,-4.933 9.686,-4.617c5.457,0.347 9.655,3.941 11.338,8.255c0.823,2.107 2.878,17.901 -2.931,15.495c-3.414,-1.419 -5.832,1.903 -8.77,0.799" style="fill:#042b49;fill-rule:nonzero;"/><path d="M258.022,282.271c5.812,-5.813 0,-12.149 0,-12.149c0,0 -5.813,6.336 0,12.149" style="fill:#e8de82;fill-rule:nonzero;"/><path d="M259.524,285.808c8.216,0 8.587,-8.587 8.587,-8.587c0,0 -8.587,0.368 -8.587,8.587" style="fill:#e8de82;fill-rule:nonzero;"/><path d="M256.518,285.808c-8.219,0 -8.587,-8.587 -8.587,-8.587c0,0 8.587,0.368 8.587,8.587" style="fill:#e8de82;fill-rule:nonzero;"/><path d="M323.474,260.912c5.812,-5.812 0,-12.149 0,-12.149c0,0 -5.809,6.337 0,12.149" style="fill:#e8de82;fill-rule:nonzero;"/><path d="M324.977,264.449c8.219,0 8.591,-8.587 8.591,-8.587c0,0 -8.591,0.368 -8.591,8.587" style="fill:#e8de82;fill-rule:nonzero;"/><path d="M321.973,264.449c-8.22,0 -8.592,-8.587 -8.592,-8.587c0,0 8.592,0.368 8.592,8.587" style="fill:#e8de82;fill-rule:nonzero;"/></g></svg>