<?xml version="1.0" encoding="UTF-8" standalone="no"?><!DOCTYPE svg PUBLIC "-//W3C//DTD SVG 1.1//EN" "http://www.w3.org/Graphics/SVG/1.1/DTD/svg11.dtd"><svg width="100%" height="100%" viewBox="0 0 2560 500" version="1.1" xmlns="http://www.w3.org/2000/svg" xmlns:xlink="http://www.w3.org/1999/xlink" xml:space="preserve" xmlns:serif="http://www.serif.com/" style="fill-rule:evenodd;clip-rule:evenodd;stroke-linejoin:round;stroke-miterlimit:1.41421;"><rect x="0" y="0" width="2560" height="500" style="fill:#96cdc4;"/><g><clipPath id="_clip1"><rect x="31.547" y="0" width="2484.06" height="500"/></clipPath><g clip-path="url(#_clip1)"><g opacity="0.1"><g><path d="M412.779,75.433c-0.497,0.382 -0.983,0.779 -1.458,1.188c-3.27,-1.063 -6.556,-2.083 -9.863,-3.06c0,0 3.738,-3.803 5.86,-5.425c1.681,-1.288 4.054,-1.185 5.645,0.216l0.145,0.127c2.148,1.886 1.938,5.213 -0.329,6.954Z" style="fill:#052b48;fill-rule:nonzero;"/><path d="M497.529,52.086c0.56,-1.935 -1.513,-3.576 -3.291,-2.632l-61.056,32.645c-34.001,-12.359 -102.897,-25.13 -100.971,-24.885c2.603,-3.232 5.54,-6.159 8.782,-8.743l-30.061,-26.456c-2.004,-1.758 -5.03,-1.601 -6.896,0.315c-8.636,8.88 -15.66,19.353 -20.552,30.945c2.092,0.059 -7.958,-0.236 -15.119,-0.236c-53.413,0 -104.468,8.675 -152.488,24.698c-1.572,0.52 -2.623,1.994 -2.623,3.654c0,2.132 1.729,3.861 3.851,3.861l11.533,0l27.223,18.587c-0.059,0.894 -0.334,1.709 -0.767,2.417c-0.049,0.069 -0.147,0.108 -0.196,0.186c-1.356,1.936 -3.91,2.908 -6.327,1.936c-3.035,-1.209 -6.012,-2.535 -8.999,-3.832c-1.876,-0.815 -3.772,-1.562 -5.639,-2.406c-4.823,-2.221 -9.598,-4.549 -14.313,-6.995c-0.845,0.855 -1.415,1.847 -1.739,2.908c-0.01,0.019 0,0.039 -0.01,0.059c-0.904,3.124 0.423,6.7 3.635,8.281l0.03,0.02c3.163,1.562 6.415,2.967 9.627,4.421c2.407,1.1 4.765,2.279 7.211,3.31c2.8,1.189 5.668,2.23 8.498,3.341c2.947,1.159 5.855,2.406 8.851,3.487c4.214,1.513 8.498,2.849 12.791,4.195c0.835,0.275 1.65,0.57 2.495,0.815l-0.01,0.059c0.187,0.059 0.403,0.089 0.59,0.148c0.039,0.009 0.068,0.019 0.108,0.029c-0.226,-0.069 -0.482,-0.098 -0.708,-0.177c0.501,0.167 1.012,0.295 1.523,0.442c0.344,0.108 0.668,0.236 1.022,0.334c0.697,0.216 1.405,0.374 2.102,0.57c4.765,1.385 9.559,2.672 14.402,3.841c0.59,0.138 1.15,0.324 1.739,0.462c0.255,0.059 0.54,0.098 0.806,0.157c5.521,1.297 11.091,2.437 16.72,3.448c0.363,0.069 0.727,0.158 1.1,0.226c0.57,0.099 1.15,0.158 1.71,0.256c4.499,0.766 9.038,1.444 13.606,2.033c2.751,2.338 5.668,4.51 8.9,6.209l2.741,1.464l9.461,-5.639c0.147,0.01 0.304,0.02 0.442,0.029l3.173,0.167c5.943,0.315 11.916,0.541 17.929,0.541c8.33,0 16.583,-0.275 24.805,-0.688c2.25,-0.118 4.47,-0.304 6.71,-0.442c1.798,-0.118 3.596,-0.226 5.403,-0.364c2.476,13.027 8.311,24.865 16.603,34.532l13.94,-24.619l0,-9.077c0,-1.386 -0.246,-2.712 -0.609,-3.999c2.456,-0.334 4.882,-0.756 7.319,-1.13c2.407,-0.373 4.823,-0.717 7.22,-1.12c4.519,-0.766 10.541,-1.866 9.058,-1.571c4.558,9.676 10.58,18.518 17.791,26.249c1.886,2.004 5.011,2.152 7.034,0.305l33.559,-30.71c-2.869,-2.485 -5.452,-5.275 -7.722,-8.34c-1.532,0.471 4.755,-1.533 9.402,-3.056c2.574,-0.845 5.128,-1.729 7.682,-2.613c2.27,-0.786 4.568,-1.493 6.828,-2.309l60.85,32.518c1.778,0.953 3.851,-0.688 3.291,-2.623c-8.311,-29.236 -8.311,-60.201 0,-89.438" style="fill:#052b48;fill-rule:nonzero;"/></g><g><path d="M261.187,228.771c-0.498,0.381 -0.984,0.779 -1.459,1.188c-3.269,-1.064 -6.556,-2.083 -9.863,-3.06c0,0 3.738,-3.804 5.86,-5.426c1.681,-1.288 4.054,-1.184 5.645,0.216l0.146,0.128c2.147,1.885 1.937,5.213 -0.329,6.954Z" style="fill:#052b48;fill-rule:nonzero;"/><path d="M324.851,212.945c0.393,-1.395 -1.081,-2.564 -2.358,-1.877l-43.775,23.381c-24.374,-8.851 -73.769,-18.007 -72.383,-17.82c1.856,-2.319 3.978,-4.421 6.297,-6.278l-21.544,-18.96c-1.444,-1.267 -3.606,-1.159 -4.952,0.216c-6.198,6.376 -11.228,13.881 -14.736,22.192c1.504,0.05 -5.697,-0.176 -10.835,-0.176c-38.294,0 -74.898,6.228 -109.322,17.712c-1.119,0.374 -1.876,1.435 -1.876,2.623c0,1.523 1.238,2.761 2.761,2.761l8.271,0l19.511,13.321c-0.039,0.648 -0.246,1.228 -0.55,1.729c-0.04,0.059 -0.099,0.089 -0.138,0.147c-0.972,1.386 -2.8,2.083 -4.548,1.386c-2.171,-0.855 -4.293,-1.818 -6.435,-2.751c-1.346,-0.58 -2.711,-1.12 -4.038,-1.729c-3.468,-1.582 -6.886,-3.262 -10.266,-5.01c-0.609,0.609 -1.021,1.326 -1.247,2.082c-0.01,0.01 0,0.02 0,0.04c-0.659,2.249 0.294,4.813 2.593,5.943l0.02,0.02c2.269,1.11 4.597,2.122 6.906,3.163c1.719,0.786 3.419,1.631 5.167,2.378c2.005,0.854 4.058,1.591 6.091,2.387c2.122,0.835 4.205,1.729 6.356,2.495c3.007,1.1 6.091,2.043 9.156,3.016c0.6,0.197 1.189,0.403 1.788,0.599l0,0.02c0.138,0.049 0.285,0.069 0.423,0.108c0.029,0.01 0.049,0.02 0.078,0.029c-0.167,-0.049 -0.344,-0.068 -0.511,-0.127c0.364,0.118 0.727,0.206 1.091,0.324c0.255,0.069 0.481,0.157 0.727,0.236c0.501,0.147 1.022,0.255 1.523,0.403c3.399,0.992 6.847,1.905 10.325,2.75c0.412,0.098 0.825,0.236 1.237,0.334c0.187,0.04 0.393,0.069 0.57,0.108c3.959,0.934 7.967,1.749 11.995,2.476c0.266,0.049 0.531,0.118 0.796,0.167c0.403,0.069 0.815,0.108 1.218,0.167c3.232,0.56 6.484,1.051 9.755,1.474c1.975,1.679 4.068,3.222 6.376,4.45l1.965,1.041l6.788,-4.047c0.108,0.01 0.216,0.019 0.315,0.019c0.756,0.049 1.522,0.089 2.279,0.138c4.254,0.216 8.537,0.373 12.85,0.373c5.973,0 11.887,-0.196 17.781,-0.491c1.611,-0.079 3.203,-0.206 4.814,-0.314c1.287,-0.089 2.584,-0.167 3.87,-0.256c1.769,9.343 5.954,17.821 11.907,24.757l9.991,-17.654l0,-6.504c0,-0.992 -0.177,-1.945 -0.442,-2.868c1.759,-0.236 3.507,-0.55 5.246,-0.816c1.729,-0.265 3.468,-0.51 5.187,-0.805c3.232,-0.55 7.545,-1.326 6.494,-1.12c3.261,6.936 7.574,13.272 12.751,18.823c1.336,1.434 3.586,1.542 5.04,0.216l24.059,-22.026c-2.053,-1.778 -3.91,-3.782 -5.541,-5.963c-1.09,0.325 3.419,-1.11 6.749,-2.2c1.837,-0.599 3.674,-1.238 5.502,-1.867c1.621,-0.57 3.271,-1.08 4.892,-1.66l43.628,23.312c1.277,0.678 2.751,-0.491 2.358,-1.886c-5.953,-20.945 -5.953,-43.157 0,-64.111" style="fill:#052b48;fill-rule:nonzero;"/></g><g><path d="M295.345,448.337c-0.497,0.381 -0.983,0.779 -1.458,1.188c-3.27,-1.064 -6.556,-2.083 -9.864,-3.06c0,0 3.738,-3.804 5.861,-5.425c1.681,-1.288 4.054,-1.185 5.645,0.216l0.145,0.127c2.147,1.886 1.938,5.213 -0.329,6.954Z" style="fill:#052b48;fill-rule:nonzero;"/><path d="M378.717,429.095c0.491,-1.749 -1.386,-3.222 -2.987,-2.368l-55.152,29.482c-30.719,-11.17 -92.964,-22.703 -91.225,-22.467c2.348,-2.928 5.02,-5.58 7.938,-7.909l-27.154,-23.901c-1.817,-1.592 -4.548,-1.444 -6.228,0.285c-7.81,8.016 -14.147,17.486 -18.577,27.949c1.896,0.059 -7.182,-0.207 -13.656,-0.207c-48.245,0 -94.379,7.85 -137.761,22.311c-1.415,0.471 -2.368,1.807 -2.368,3.31c0,1.926 1.552,3.488 3.488,3.488l10.413,0l24.589,16.789c-0.059,0.806 -0.304,1.542 -0.697,2.171c-0.039,0.069 -0.128,0.108 -0.177,0.177c-1.218,1.759 -3.527,2.633 -5.717,1.759c-2.732,-1.101 -5.423,-2.299 -8.115,-3.478c-1.7,-0.727 -3.419,-1.405 -5.099,-2.171c-4.362,-2.004 -8.674,-4.097 -12.928,-6.317c-0.766,0.766 -1.287,1.67 -1.572,2.623c-0.01,0.02 0,0.029 0,0.049c-0.835,2.839 0.373,6.071 3.262,7.496c0.009,0 0.019,0.01 0.029,0.01c2.859,1.414 5.806,2.682 8.714,3.998c2.171,0.992 4.303,2.053 6.503,2.996c2.525,1.071 5.119,2.014 7.683,3.026c2.662,1.041 5.295,2.151 7.997,3.134c3.801,1.375 7.682,2.584 11.543,3.802c0.756,0.236 1.503,0.501 2.259,0.737l-0.01,0.049c0.167,0.059 0.364,0.078 0.541,0.118c0.029,0.009 0.059,0.029 0.088,0.039c-0.206,-0.059 -0.432,-0.079 -0.638,-0.157c0.461,0.137 0.913,0.255 1.375,0.402c0.314,0.099 0.619,0.207 0.923,0.295c0.629,0.197 1.277,0.324 1.906,0.511c4.303,1.257 8.635,2.407 13.017,3.468c0.521,0.128 1.031,0.295 1.562,0.412c0.236,0.059 0.491,0.099 0.727,0.158c4.991,1.169 10.03,2.2 15.099,3.104c0.344,0.059 0.678,0.147 1.012,0.216c0.501,0.089 1.022,0.128 1.533,0.216c4.077,0.708 8.173,1.307 12.299,1.847c2.486,2.112 5.119,4.067 8.036,5.61l2.466,1.316l8.557,-5.099c0.137,0.01 0.275,0.02 0.403,0.02c0.953,0.069 1.915,0.118 2.859,0.167c5.373,0.285 10.767,0.482 16.209,0.482c7.515,0 14.972,-0.246 22.409,-0.619c2.023,-0.108 4.027,-0.275 6.051,-0.403c1.631,-0.108 3.252,-0.197 4.873,-0.324c2.24,11.769 7.525,22.457 15.021,31.201l12.584,-22.242l0,-8.203c0,-1.257 -0.236,-2.456 -0.55,-3.605c2.21,-0.305 4.401,-0.688 6.612,-1.032c2.181,-0.334 4.352,-0.648 6.523,-1.012c4.077,-0.687 9.529,-1.68 8.183,-1.424c4.116,8.753 9.559,16.75 16.082,23.725c1.69,1.807 4.519,1.945 6.346,0.275l30.317,-27.743c-2.584,-2.25 -4.932,-4.775 -6.985,-7.535c-1.375,0.422 4.303,-1.395 8.508,-2.761c2.318,-0.766 4.627,-1.562 6.935,-2.367c2.054,-0.708 4.136,-1.346 6.17,-2.083l54.965,29.384c1.601,0.854 3.478,-0.629 2.987,-2.368c-7.516,-26.417 -7.516,-54.405 0,-80.812" style="fill:#052b48;fill-rule:nonzero;"/></g><g><path d="M761.589,210.144c-0.497,0.382 -0.984,0.779 -1.458,1.188c-3.27,-1.063 -6.556,-2.083 -9.864,-3.06c0,0 3.738,-3.803 5.861,-5.425c1.681,-1.288 4.054,-1.185 5.644,0.216l0.146,0.127c2.147,1.886 1.938,5.213 -0.329,6.954Z" style="fill:#052b48;fill-rule:nonzero;"/><path d="M844.791,190.271c0.501,-1.749 -1.375,-3.222 -2.976,-2.368l-55.162,29.482c-30.71,-11.17 -92.964,-22.703 -91.216,-22.467c2.348,-2.928 5.011,-5.58 7.938,-7.909l-27.153,-23.901c-1.818,-1.602 -4.549,-1.444 -6.239,0.285c-7.81,8.016 -14.136,17.486 -18.577,27.949c1.906,0.059 -7.171,-0.206 -13.645,-0.206c-48.256,0 -94.389,7.839 -137.762,22.31c-1.414,0.471 -2.377,1.807 -2.377,3.301c0,1.935 1.562,3.487 3.487,3.487l10.424,0l24.589,16.789c-0.059,0.816 -0.305,1.553 -0.698,2.181c-0.049,0.069 -0.127,0.108 -0.176,0.177c-1.219,1.759 -3.527,2.633 -5.718,1.759c-2.731,-1.101 -5.423,-2.309 -8.124,-3.478c-1.69,-0.737 -3.419,-1.405 -5.089,-2.171c-4.362,-2.004 -8.675,-4.107 -12.938,-6.317c-0.757,0.766 -1.277,1.67 -1.562,2.623c-0.01,0.02 0,0.029 -0.01,0.049c-0.825,2.839 0.373,6.071 3.271,7.496c0.01,0 0.02,0 0.03,0.01c2.858,1.414 5.796,2.682 8.704,3.998c2.171,0.992 4.303,2.053 6.513,2.996c2.525,1.071 5.118,2.004 7.673,3.016c2.662,1.051 5.295,2.162 7.996,3.144c3.802,1.375 7.692,2.584 11.553,3.802c0.757,0.226 1.503,0.501 2.26,0.737l-0.01,0.049c0.167,0.049 0.363,0.068 0.53,0.118c0.04,0.009 0.069,0.019 0.099,0.029c-0.207,-0.049 -0.433,-0.079 -0.639,-0.147c0.452,0.137 0.914,0.255 1.375,0.403c0.315,0.088 0.61,0.196 0.924,0.294c0.629,0.187 1.277,0.324 1.906,0.511c4.303,1.248 8.625,2.407 13.007,3.468c0.52,0.128 1.041,0.295 1.572,0.413c0.235,0.058 0.481,0.098 0.717,0.157c4.99,1.159 10.04,2.2 15.109,3.104c0.334,0.059 0.668,0.147 1.012,0.206c0.491,0.099 1.022,0.138 1.532,0.226c4.068,0.698 8.164,1.307 12.29,1.837c2.495,2.122 5.118,4.077 8.046,5.62l2.466,1.316l8.557,-5.098c0.137,0.009 0.275,0.009 0.402,0.019c0.953,0.059 1.906,0.118 2.859,0.167c5.364,0.285 10.757,0.482 16.2,0.482c7.515,0 14.981,-0.246 22.408,-0.629c2.034,-0.098 4.038,-0.265 6.062,-0.393c1.621,-0.108 3.251,-0.197 4.872,-0.324c2.24,11.769 7.516,22.457 15.021,31.201l12.585,-22.242l0,-8.203c0,-1.257 -0.236,-2.456 -0.56,-3.615c2.22,-0.305 4.411,-0.678 6.611,-1.032c2.181,-0.334 4.362,-0.638 6.533,-1.002c4.077,-0.687 9.52,-1.68 8.184,-1.424c4.106,8.743 9.558,16.75 16.082,23.715c1.689,1.817 4.519,1.955 6.336,0.285l30.327,-27.743c-2.584,-2.26 -4.932,-4.784 -6.985,-7.535c-1.376,0.422 4.303,-1.395 8.507,-2.77c2.319,-0.757 4.618,-1.553 6.936,-2.358c2.053,-0.708 4.126,-1.346 6.169,-2.083l54.966,29.374c1.601,0.864 3.477,-0.619 2.976,-2.368c-7.505,-26.407 -7.505,-54.395 0,-80.802" style="fill:#052b48;fill-rule:nonzero;"/></g><g><path d="M782.624,448.614c-0.497,0.381 -0.983,0.779 -1.458,1.188c-3.27,-1.064 -6.556,-2.083 -9.863,-3.06c0,0 3.738,-3.804 5.86,-5.425c1.681,-1.288 4.054,-1.185 5.645,0.216l0.145,0.127c2.148,1.886 1.938,5.213 -0.329,6.954Z" style="fill:#052b48;fill-rule:nonzero;"/><path d="M866.506,429.095c0.501,-1.749 -1.375,-3.222 -2.987,-2.368l-55.151,29.482c-30.71,-11.17 -92.965,-22.703 -91.226,-22.467c2.348,-2.928 5.02,-5.58 7.938,-7.909l-27.153,-23.901c-1.818,-1.592 -4.549,-1.444 -6.229,0.285c-7.81,8.016 -14.146,17.486 -18.577,27.949c1.896,0.059 -7.172,-0.207 -13.646,-0.207c-48.255,0 -94.388,7.85 -137.761,22.311c-1.415,0.471 -2.378,1.807 -2.378,3.31c0,1.926 1.553,3.488 3.488,3.488l10.413,0l24.59,16.789c-0.059,0.806 -0.305,1.542 -0.698,2.171c-0.039,0.069 -0.118,0.108 -0.167,0.177c-1.228,1.759 -3.536,2.633 -5.727,1.759c-2.731,-1.101 -5.423,-2.299 -8.115,-3.478c-1.699,-0.727 -3.418,-1.405 -5.098,-2.171c-4.362,-2.004 -8.665,-4.097 -12.929,-6.317c-0.766,0.766 -1.287,1.67 -1.572,2.623l0,0.049c-0.835,2.839 0.374,6.071 3.272,7.496c0,0 0.01,0.01 0.02,0.01c2.858,1.414 5.805,2.682 8.713,3.998c2.171,0.992 4.303,2.053 6.514,2.996c2.524,1.071 5.108,2.014 7.672,3.026c2.663,1.041 5.295,2.161 7.997,3.134c3.802,1.375 7.682,2.584 11.543,3.802c0.757,0.236 1.503,0.501 2.26,0.737l-0.01,0.049c0.177,0.059 0.363,0.078 0.54,0.118c0.03,0.009 0.059,0.029 0.098,0.039c-0.206,-0.059 -0.442,-0.079 -0.648,-0.157c0.462,0.137 0.923,0.255 1.375,0.402c0.325,0.099 0.619,0.207 0.924,0.295c0.638,0.197 1.277,0.324 1.906,0.511c4.303,1.257 8.635,2.407 13.016,3.468c0.521,0.128 1.032,0.295 1.562,0.412c0.236,0.059 0.492,0.099 0.727,0.158c4.991,1.169 10.031,2.2 15.11,3.104c0.334,0.059 0.668,0.147 1.002,0.216c0.501,0.089 1.021,0.128 1.532,0.216c4.077,0.708 8.174,1.307 12.3,1.847c2.485,2.112 5.118,4.067 8.036,5.61l2.466,1.316l8.556,-5.099c0.138,0.01 0.275,0.02 0.403,0.02c0.953,0.069 1.916,0.118 2.859,0.167c5.374,0.285 10.767,0.482 16.209,0.482c7.516,0 14.972,-0.246 22.409,-0.619c2.024,-0.108 4.038,-0.266 6.052,-0.403c1.63,-0.108 3.251,-0.197 4.872,-0.324c2.24,11.769 7.525,22.457 15.021,31.201l12.594,-22.242l0,-8.203c0,-1.257 -0.235,-2.456 -0.56,-3.605c2.221,-0.305 4.402,-0.688 6.612,-1.032c2.181,-0.334 4.352,-0.638 6.523,-1.012c4.077,-0.687 9.529,-1.68 8.184,-1.424c4.116,8.753 9.558,16.75 16.081,23.725c1.69,1.807 4.519,1.945 6.347,0.275l30.316,-27.743c-2.583,-2.25 -4.931,-4.775 -6.975,-7.535c-1.375,0.422 4.303,-1.395 8.498,-2.761c2.319,-0.766 4.627,-1.562 6.936,-2.367c2.053,-0.708 4.136,-1.346 6.169,-2.083l54.965,29.384c1.612,0.854 3.488,-0.629 2.987,-2.368c-7.515,-26.417 -7.515,-54.405 0,-80.812" style="fill:#052b48;fill-rule:nonzero;"/></g><g><path d="M2327.91,456.039c-0.497,0.381 -0.983,0.779 -1.458,1.188c-3.27,-1.064 -6.556,-2.084 -9.864,-3.061c0,0 3.738,-3.803 5.861,-5.425c1.681,-1.288 4.054,-1.185 5.644,0.216l0.146,0.128c2.147,1.885 1.938,5.212 -0.329,6.954Z" style="fill:#052b48;fill-rule:nonzero;"/><path d="M2411.79,436.52c0.501,-1.749 -1.376,-3.223 -2.987,-2.368l-55.152,29.482c-30.709,-11.17 -92.964,-22.703 -91.225,-22.468c2.348,-2.927 5.02,-5.58 7.938,-7.908l-27.154,-23.902c-1.817,-1.591 -4.548,-1.444 -6.228,0.285c-7.81,8.017 -14.147,17.487 -18.577,27.949c1.896,0.059 -7.172,-0.206 -13.646,-0.206c-48.255,0 -94.389,7.849 -137.761,22.31c-1.415,0.472 -2.378,1.808 -2.378,3.311c0,1.926 1.552,3.488 3.488,3.488l10.413,0l24.59,16.789c-0.059,0.805 -0.305,1.542 -0.698,2.171c-0.039,0.069 -0.118,0.108 -0.167,0.177c-1.228,1.758 -3.537,2.632 -5.727,1.758c-2.731,-1.1 -5.423,-2.299 -8.115,-3.478c-1.699,-0.727 -3.419,-1.404 -5.099,-2.171c-4.361,-2.004 -8.664,-4.096 -12.928,-6.316c-0.766,0.766 -1.287,1.67 -1.572,2.623l0,0.049c-0.835,2.839 0.374,6.071 3.272,7.495c0,0 0.009,0.01 0.019,0.01c2.859,1.415 5.806,2.682 8.714,3.999c2.171,0.992 4.303,2.053 6.513,2.996c2.525,1.071 5.109,2.014 7.673,3.026c2.662,1.041 5.295,2.161 7.997,3.133c3.802,1.376 7.682,2.584 11.543,3.802c0.756,0.236 1.503,0.501 2.259,0.737l-0.009,0.049c0.176,0.059 0.363,0.079 0.54,0.118c0.029,0.01 0.059,0.03 0.098,0.039c-0.206,-0.058 -0.442,-0.078 -0.648,-0.157c0.461,0.138 0.923,0.256 1.375,0.403c0.324,0.098 0.619,0.206 0.924,0.295c0.638,0.196 1.277,0.324 1.905,0.511c4.303,1.257 8.636,2.406 13.017,3.467c0.521,0.128 1.032,0.295 1.562,0.413c0.236,0.059 0.491,0.098 0.727,0.157c4.991,1.169 10.03,2.201 15.109,3.105c0.334,0.059 0.668,0.147 1.002,0.216c0.501,0.088 1.022,0.127 1.533,0.216c4.077,0.707 8.174,1.306 12.3,1.847c2.485,2.112 5.118,4.067 8.036,5.609l2.465,1.317l8.557,-5.099c0.138,0.01 0.275,0.02 0.403,0.02c0.953,0.068 1.916,0.118 2.859,0.167c5.373,0.285 10.767,0.481 16.209,0.481c7.516,0 14.972,-0.246 22.409,-0.619c2.023,-0.108 4.037,-0.265 6.051,-0.403c1.631,-0.108 3.252,-0.196 4.873,-0.324c2.24,11.769 7.525,22.458 15.021,31.201l12.594,-22.241l0,-8.203c0,-1.258 -0.236,-2.456 -0.56,-3.606c2.22,-0.304 4.401,-0.687 6.612,-1.031c2.181,-0.334 4.352,-0.639 6.523,-1.012c4.077,-0.688 9.529,-1.68 8.183,-1.425c4.116,8.754 9.559,16.75 16.082,23.725c1.69,1.808 4.519,1.945 6.346,0.275l30.317,-27.743c-2.584,-2.249 -4.931,-4.774 -6.975,-7.535c-1.375,0.423 4.303,-1.395 8.498,-2.76c2.318,-0.766 4.627,-1.562 6.936,-2.368c2.053,-0.707 4.136,-1.346 6.169,-2.082l54.965,29.383c1.611,0.855 3.488,-0.629 2.987,-2.367c-7.516,-26.417 -7.516,-54.406 0,-80.812" style="fill:#052b48;fill-rule:nonzero;"/></g><g><path d="M1299.76,460.813c-0.498,0.382 -0.984,0.779 -1.458,1.188c-3.27,-1.063 -6.556,-2.083 -9.864,-3.06c0,0 3.738,-3.803 5.861,-5.425c1.68,-1.288 4.053,-1.185 5.644,0.216l0.146,0.127c2.147,1.886 1.938,5.213 -0.329,6.954Z" style="fill:#052b48;fill-rule:nonzero;"/><path d="M1382.21,441.188c0.501,-1.759 -1.375,-3.232 -2.977,-2.368l-55.161,29.482c-30.71,-11.17 -92.964,-22.703 -91.216,-22.468c2.338,-2.927 5.01,-5.58 7.938,-7.918l-27.163,-23.892c-1.818,-1.601 -4.539,-1.444 -6.229,0.285c-7.81,8.017 -14.146,17.487 -18.577,27.95c1.896,0.058 -7.171,-0.207 -13.645,-0.207c-48.256,0 -94.389,7.84 -137.762,22.31c-1.415,0.472 -2.377,1.808 -2.377,3.301c0,1.936 1.562,3.488 3.487,3.488l10.414,0l24.589,16.789c-0.049,0.815 -0.305,1.552 -0.688,2.181c-0.049,0.069 -0.127,0.108 -0.177,0.177c-1.218,1.758 -3.536,2.633 -5.727,1.758c-2.731,-1.1 -5.423,-2.308 -8.115,-3.477c-1.699,-0.737 -3.418,-1.405 -5.098,-2.172c-4.362,-2.004 -8.665,-4.106 -12.929,-6.316c-0.766,0.766 -1.286,1.67 -1.571,2.623l0,0.049c-0.835,2.829 0.373,6.061 3.271,7.495l0.03,0.01c2.848,1.415 5.796,2.682 8.704,3.999c2.171,0.992 4.302,2.053 6.513,2.996c2.525,1.071 5.108,2.004 7.672,3.016c2.663,1.051 5.296,2.161 7.997,3.144c3.802,1.375 7.682,2.573 11.553,3.801c0.747,0.226 1.493,0.502 2.25,0.737l-0.01,0.04c0.177,0.059 0.373,0.078 0.54,0.127c0.03,0.01 0.059,0.02 0.099,0.03c-0.207,-0.049 -0.443,-0.079 -0.649,-0.148c0.462,0.138 0.924,0.256 1.385,0.393c0.315,0.099 0.609,0.207 0.914,0.305c0.639,0.187 1.277,0.324 1.906,0.511c4.303,1.247 8.635,2.407 13.017,3.458c0.52,0.137 1.031,0.304 1.562,0.422c0.235,0.059 0.491,0.098 0.727,0.157c4.99,1.16 10.03,2.201 15.109,3.105c0.334,0.059 0.668,0.147 1.002,0.206c0.501,0.098 1.022,0.138 1.532,0.226c4.077,0.698 8.174,1.307 12.3,1.837c2.485,2.122 5.118,4.077 8.036,5.619l2.466,1.317l8.557,-5.099c0.137,0.01 0.275,0.01 0.402,0.02c0.953,0.059 1.916,0.118 2.859,0.167c5.374,0.285 10.767,0.481 16.21,0.481c7.515,0 14.981,-0.245 22.408,-0.629c2.024,-0.098 4.038,-0.265 6.052,-0.392c1.631,-0.109 3.251,-0.197 4.872,-0.325c2.25,11.769 7.526,22.458 15.021,31.201l12.595,-22.241l0,-8.203c0,-1.268 -0.236,-2.456 -0.56,-3.615c2.22,-0.305 4.401,-0.678 6.611,-1.032c2.181,-0.334 4.352,-0.639 6.523,-1.002c4.077,-0.688 9.53,-1.68 8.184,-1.434c4.116,8.753 9.558,16.759 16.082,23.725c1.699,1.817 4.519,1.955 6.346,0.285l30.317,-27.753c-2.584,-2.25 -4.932,-4.775 -6.975,-7.525c-1.376,0.422 4.302,-1.395 8.497,-2.771c2.329,-0.756 4.627,-1.552 6.946,-2.358c2.043,-0.707 4.126,-1.345 6.16,-2.092l54.974,29.383c1.602,0.865 3.478,-0.618 2.977,-2.367c-7.515,-26.417 -7.515,-54.395 0,-80.802" style="fill:#052b48;fill-rule:nonzero;"/></g><g><path d="M1724.74,461.039c-0.498,0.381 -0.984,0.779 -1.458,1.188c-3.27,-1.063 -6.556,-2.083 -9.864,-3.06c0,0 3.738,-3.803 5.861,-5.425c1.68,-1.288 4.053,-1.185 5.644,0.216l0.146,0.127c2.147,1.886 1.937,5.213 -0.329,6.954Z" style="fill:#052b48;fill-rule:nonzero;"/><path d="M1807.94,441.188c0.501,-1.749 -1.375,-3.223 -2.977,-2.368l-55.161,29.482c-30.71,-11.17 -92.965,-22.703 -91.216,-22.468c2.338,-2.927 5.01,-5.58 7.938,-7.908l-27.163,-23.902c-1.818,-1.591 -4.539,-1.444 -6.229,0.285c-7.81,8.017 -14.146,17.487 -18.577,27.95c1.896,0.058 -7.172,-0.207 -13.646,-0.207c-48.255,0 -94.388,7.85 -137.761,22.31c-1.415,0.472 -2.378,1.808 -2.378,3.311c0,1.926 1.562,3.488 3.488,3.488l10.413,0l24.6,16.789c-0.059,0.805 -0.315,1.542 -0.698,2.171c-0.049,0.069 -0.128,0.108 -0.177,0.177c-1.218,1.758 -3.527,2.633 -5.727,1.758c-2.731,-1.1 -5.423,-2.299 -8.115,-3.477c-1.699,-0.727 -3.418,-1.405 -5.098,-2.172c-4.362,-2.004 -8.665,-4.096 -12.929,-6.316c-0.766,0.766 -1.287,1.67 -1.572,2.623c0,0.019 0.01,0.029 0,0.049c-0.835,2.839 0.374,6.071 3.272,7.495l0.029,0.01c2.849,1.415 5.796,2.682 8.704,3.999c2.171,0.992 4.303,2.053 6.514,2.996c2.524,1.071 5.108,2.014 7.672,3.026c2.662,1.041 5.295,2.151 7.997,3.134c3.802,1.375 7.682,2.583 11.553,3.801c0.747,0.236 1.493,0.502 2.25,0.737l0,0.049c0.167,0.059 0.363,0.079 0.53,0.118c0.03,0.01 0.059,0.03 0.098,0.04c-0.206,-0.059 -0.442,-0.079 -0.648,-0.158c0.462,0.138 0.923,0.256 1.385,0.403c0.314,0.098 0.609,0.206 0.914,0.295c0.638,0.196 1.277,0.324 1.906,0.511c4.303,1.257 8.635,2.407 13.016,3.468c0.521,0.127 1.032,0.294 1.562,0.412c0.236,0.059 0.492,0.098 0.727,0.157c4.991,1.169 10.031,2.201 15.11,3.105c0.334,0.059 0.668,0.147 1.002,0.216c0.501,0.088 1.021,0.128 1.532,0.216c4.077,0.707 8.174,1.307 12.3,1.847c2.485,2.112 5.118,4.067 8.036,5.609l2.466,1.317l8.556,-5.099c0.138,0.01 0.275,0.02 0.403,0.02c0.953,0.069 1.916,0.118 2.859,0.167c5.374,0.285 10.767,0.481 16.209,0.481c7.516,0 14.982,-0.245 22.409,-0.619c2.024,-0.108 4.038,-0.275 6.052,-0.402c1.63,-0.109 3.261,-0.197 4.882,-0.325c2.24,11.769 7.515,22.458 15.011,31.201l12.594,-22.241l0,-8.203c0,-1.258 -0.235,-2.456 -0.56,-3.606c2.221,-0.304 4.402,-0.687 6.612,-1.031c2.181,-0.334 4.352,-0.649 6.523,-1.012c4.087,-0.688 9.529,-1.68 8.183,-1.424c4.117,8.753 9.559,16.749 16.082,23.724c1.7,1.808 4.519,1.946 6.347,0.276l30.316,-27.743c-2.583,-2.25 -4.931,-4.775 -6.975,-7.535c-1.375,0.422 4.303,-1.395 8.498,-2.761c2.328,-0.766 4.627,-1.562 6.946,-2.368c2.043,-0.707 4.126,-1.345 6.159,-2.082l54.975,29.383c1.602,0.855 3.478,-0.628 2.977,-2.367c-7.515,-26.417 -7.515,-54.405 0,-80.812" style="fill:#052b48;fill-rule:nonzero;"/></g><g><path d="M1157,296.569c-0.497,0.382 -0.983,0.779 -1.458,1.188c-3.27,-1.063 -6.556,-2.083 -9.863,-3.06c0,0 3.737,-3.803 5.86,-5.425c1.681,-1.288 4.054,-1.185 5.645,0.216l0.145,0.127c2.147,1.886 1.938,5.213 -0.329,6.954Z" style="fill:#052b48;fill-rule:nonzero;"/><path d="M1242.95,278.28c0.501,-1.758 -1.375,-3.232 -2.976,-2.367l-55.162,29.481c-30.71,-11.17 -92.964,-22.703 -91.216,-22.467c2.348,-2.928 5.011,-5.58 7.938,-7.918l-27.153,-23.902c-1.818,-1.591 -4.549,-1.444 -6.239,0.295c-7.81,8.016 -14.136,17.477 -18.577,27.949c1.906,0.059 -7.171,-0.206 -13.645,-0.206c-48.256,0 -94.389,7.839 -137.762,22.3c-1.415,0.481 -2.377,1.818 -2.377,3.311c0,1.935 1.562,3.487 3.487,3.487l10.423,0l24.59,16.789c-0.059,0.816 -0.305,1.553 -0.698,2.172c-0.049,0.078 -0.127,0.108 -0.176,0.176c-1.219,1.769 -3.527,2.633 -5.718,1.769c-2.741,-1.101 -5.423,-2.309 -8.124,-3.478c-1.69,-0.737 -3.419,-1.405 -5.099,-2.171c-4.352,-2.004 -8.665,-4.107 -12.928,-6.317c-0.757,0.766 -1.278,1.67 -1.562,2.623c-0.01,0.02 0,0.03 -0.01,0.039c-0.825,2.84 0.373,6.072 3.271,7.496c0.01,0.01 0.02,0.01 0.03,0.02c2.858,1.414 5.796,2.682 8.704,3.998c2.171,0.992 4.303,2.053 6.513,2.996c2.525,1.071 5.118,2.004 7.672,3.016c2.663,1.042 5.296,2.162 7.997,3.144c3.802,1.366 7.683,2.574 11.553,3.792c0.757,0.236 1.503,0.501 2.26,0.737l-0.01,0.049c0.167,0.059 0.363,0.079 0.53,0.128c0.04,0.01 0.069,0.019 0.099,0.029c-0.207,-0.049 -0.433,-0.078 -0.639,-0.147c0.452,0.137 0.914,0.255 1.375,0.393c0.315,0.098 0.609,0.206 0.914,0.304c0.639,0.187 1.287,0.325 1.916,0.511c4.293,1.248 8.625,2.407 13.007,3.458c0.52,0.138 1.041,0.305 1.571,0.423c0.236,0.059 0.482,0.098 0.718,0.147c4.99,1.169 10.04,2.201 15.109,3.114c0.334,0.059 0.668,0.148 1.002,0.207c0.501,0.088 1.031,0.137 1.542,0.216c4.067,0.707 8.164,1.316 12.29,1.847c2.495,2.122 5.118,4.067 8.036,5.619l2.476,1.306l8.556,-5.088c0.138,0 0.276,0.009 0.393,0.019c0.963,0.059 1.916,0.108 2.869,0.167c5.364,0.275 10.757,0.482 16.2,0.482c7.515,0 14.981,-0.256 22.408,-0.629c2.034,-0.108 4.038,-0.265 6.062,-0.403c1.621,-0.108 3.251,-0.196 4.872,-0.314c2.24,11.759 7.516,22.457 15.011,31.201l12.595,-22.252l0,-8.193c0,-1.267 -0.236,-2.456 -0.56,-3.615c2.22,-0.305 4.411,-0.678 6.611,-1.032c2.181,-0.334 4.362,-0.638 6.523,-1.002c4.087,-0.697 9.53,-1.679 8.194,-1.434c4.106,8.753 9.558,16.75 16.072,23.725c1.699,1.817 4.528,1.955 6.346,0.285l30.327,-27.753c-2.594,-2.25 -4.932,-4.774 -6.985,-7.535c-1.376,0.423 4.303,-1.385 8.507,-2.76c2.319,-0.757 4.618,-1.553 6.936,-2.358c2.043,-0.717 4.126,-1.356 6.169,-2.093l54.966,29.384c1.601,0.855 3.477,-0.629 2.976,-2.368c-7.505,-26.416 -7.505,-54.395 0,-80.802" style="fill:#052b48;fill-rule:nonzero;"/></g><g><path d="M2429.58,296.569c-0.498,0.382 -0.984,0.779 -1.459,1.188c-3.27,-1.063 -6.556,-2.083 -9.863,-3.06c0,0 3.738,-3.803 5.86,-5.425c1.681,-1.288 4.054,-1.185 5.645,0.216l0.145,0.127c2.148,1.886 1.938,5.213 -0.328,6.954Z" style="fill:#052b48;fill-rule:nonzero;"/><path d="M2515.52,278.28c0.501,-1.758 -1.375,-3.232 -2.976,-2.367l-55.162,29.481c-30.71,-11.17 -92.964,-22.703 -91.215,-22.467c2.347,-2.928 5.01,-5.58 7.937,-7.918l-27.153,-23.902c-1.818,-1.591 -4.549,-1.444 -6.238,0.295c-7.81,8.016 -14.137,17.477 -18.578,27.949c1.906,0.059 -7.171,-0.206 -13.645,-0.206c-48.255,0 -94.389,7.839 -137.762,22.3c-1.414,0.481 -2.377,1.818 -2.377,3.311c0,1.935 1.562,3.487 3.487,3.487l10.424,0l24.589,16.789c-0.059,0.816 -0.304,1.553 -0.697,2.172c-0.05,0.078 -0.128,0.108 -0.177,0.176c-1.218,1.769 -3.527,2.633 -5.718,1.769c-2.741,-1.101 -5.423,-2.309 -8.124,-3.478c-1.69,-0.737 -3.419,-1.405 -5.099,-2.171c-4.352,-2.004 -8.665,-4.107 -12.928,-6.317c-0.757,0.766 -1.277,1.67 -1.562,2.623c-0.01,0.02 0,0.03 -0.01,0.039c-0.825,2.84 0.373,6.072 3.271,7.496c0.01,0.01 0.02,0.01 0.03,0.02c2.859,1.414 5.796,2.682 8.704,3.998c2.171,0.992 4.303,2.053 6.513,2.996c2.525,1.071 5.118,2.004 7.673,3.016c2.662,1.042 5.295,2.162 7.996,3.144c3.802,1.366 7.683,2.574 11.553,3.792c0.757,0.236 1.503,0.501 2.26,0.737l-0.01,0.049c0.167,0.059 0.364,0.079 0.531,0.128c0.039,0.01 0.068,0.019 0.098,0.029c-0.206,-0.049 -0.432,-0.078 -0.639,-0.147c0.452,0.137 0.914,0.255 1.376,0.393c0.314,0.098 0.609,0.206 0.913,0.304c0.639,0.187 1.287,0.325 1.916,0.511c4.293,1.248 8.625,2.407 13.007,3.458c0.521,0.138 1.041,0.305 1.572,0.423c0.235,0.059 0.481,0.098 0.717,0.147c4.99,1.169 10.04,2.201 15.109,3.114c0.334,0.059 0.668,0.148 1.002,0.207c0.501,0.088 1.032,0.137 1.543,0.216c4.067,0.707 8.163,1.316 12.289,1.847c2.496,2.122 5.119,4.067 8.036,5.619l2.476,1.306l8.557,-5.088c0.137,0 0.275,0.009 0.393,0.019c0.962,0.059 1.915,0.108 2.868,0.167c5.364,0.275 10.757,0.482 16.2,0.482c7.515,0 14.982,-0.256 22.408,-0.629c2.034,-0.108 4.038,-0.265 6.062,-0.403c1.621,-0.108 3.252,-0.196 4.873,-0.314c2.239,11.759 7.515,22.457 15.011,31.201l12.594,-22.252l0,-8.193c0,-1.267 -0.236,-2.456 -0.56,-3.615c2.22,-0.305 4.411,-0.678 6.611,-1.032c2.181,-0.334 4.362,-0.638 6.524,-1.002c4.086,-0.697 9.529,-1.679 8.193,-1.434c4.106,8.753 9.559,16.75 16.072,23.725c1.699,1.817 4.529,1.955 6.346,0.285l30.327,-27.753c-2.594,-2.25 -4.932,-4.774 -6.985,-7.535c-1.375,0.423 4.303,-1.385 8.507,-2.76c2.319,-0.757 4.618,-1.553 6.936,-2.358c2.044,-0.717 4.126,-1.356 6.17,-2.093l54.965,29.384c1.601,0.855 3.477,-0.629 2.976,-2.368c-7.505,-26.416 -7.505,-54.395 0,-80.802" style="fill:#052b48;fill-rule:nonzero;"/></g><g><path d="M1422.36,198.692c-0.408,0.312 -0.806,0.638 -1.195,0.974c-2.68,-0.872 -5.373,-1.708 -8.084,-2.508c0,0 3.063,-3.117 4.803,-4.447c1.377,-1.055 3.322,-0.971 4.626,0.177l0.119,0.105c1.76,1.545 1.588,4.272 -0.269,5.699Z" style="fill:#052b48;fill-rule:nonzero;"/><path d="M1481.87,182.84c0.363,-1.287 -1.012,-2.378 -2.201,-1.749l-40.661,21.741c-22.645,-8.233 -68.552,-16.731 -67.265,-16.564c1.739,-2.151 3.694,-4.106 5.865,-5.835l-20.031,-17.615c-1.336,-1.178 -3.35,-1.07 -4.598,0.197c-5.757,5.924 -10.433,12.899 -13.694,20.62c1.395,0.05 -5.296,-0.157 -10.07,-0.157c-35.573,0 -69.583,5.787 -101.57,16.455c-1.041,0.344 -1.759,1.336 -1.759,2.437c0,1.424 1.16,2.564 2.574,2.564l7.683,0l18.135,12.388c-0.049,0.589 -0.226,1.139 -0.521,1.601c-0.029,0.059 -0.088,0.079 -0.118,0.138c-0.904,1.287 -2.613,1.935 -4.224,1.287c-2.014,-0.806 -3.999,-1.69 -5.983,-2.555c-1.248,-0.55 -2.515,-1.041 -3.753,-1.601c-3.222,-1.483 -6.405,-3.035 -9.539,-4.666c-0.57,0.57 -0.953,1.238 -1.159,1.935c-0.01,0.01 0,0.02 0,0.039c-0.619,2.083 0.265,4.47 2.407,5.531c0,0 0.01,0 0.019,0.01c2.113,1.032 4.274,1.965 6.416,2.937c1.601,0.737 3.173,1.523 4.803,2.211c1.857,0.796 3.773,1.473 5.669,2.23c1.955,0.776 3.9,1.601 5.884,2.309c2.81,1.011 5.669,1.905 8.518,2.799c0.56,0.187 1.11,0.374 1.66,0.55l-0.01,0.04c0.138,0.039 0.285,0.049 0.403,0.088c0.03,0 0.049,0.01 0.069,0.02c-0.148,-0.049 -0.315,-0.059 -0.472,-0.108c0.344,0.098 0.688,0.186 1.022,0.295c0.226,0.068 0.452,0.157 0.668,0.216c0.472,0.137 0.953,0.245 1.415,0.373c3.163,0.923 6.366,1.778 9.588,2.554c0.383,0.098 0.776,0.226 1.159,0.315c0.177,0.039 0.364,0.068 0.531,0.108c3.684,0.864 7.397,1.621 11.14,2.298c0.246,0.04 0.491,0.099 0.737,0.148c0.373,0.069 0.756,0.108 1.13,0.167c3.006,0.52 6.031,0.963 9.067,1.355c1.847,1.563 3.782,2.997 5.934,4.136l1.817,0.973l6.317,-3.753c0.098,0 0.196,0.01 0.295,0.01c0.707,0.049 1.405,0.088 2.102,0.128c3.959,0.206 7.938,0.353 11.946,0.353c5.541,0 11.052,-0.186 16.534,-0.461c1.493,-0.079 2.967,-0.197 4.46,-0.295c1.198,-0.079 2.407,-0.147 3.595,-0.246c1.651,8.685 5.541,16.573 11.072,23.008l9.284,-16.396l0,-6.042c0,-0.933 -0.167,-1.817 -0.413,-2.662c1.631,-0.236 3.252,-0.511 4.873,-0.766c1.601,-0.246 3.212,-0.462 4.813,-0.747c3.007,-0.511 7.025,-1.238 6.042,-1.041c3.026,6.444 7.044,12.348 11.848,17.486c1.248,1.336 3.34,1.444 4.676,0.207l22.369,-20.454c-1.925,-1.66 -3.635,-3.527 -5.157,-5.56c-1.012,0.304 3.173,-1.022 6.267,-2.044c1.72,-0.56 3.419,-1.139 5.119,-1.739c1.513,-0.51 3.045,-0.992 4.538,-1.542l40.534,21.672c1.189,0.638 2.564,-0.462 2.201,-1.749c-5.531,-19.471 -5.531,-40.111 0,-59.582" style="fill:#052b48;fill-rule:nonzero;"/></g><g><path d="M2034.14,347.809c-0.408,0.313 -0.806,0.639 -1.195,0.974c-2.68,-0.872 -5.373,-1.707 -8.084,-2.508c0,0 3.064,-3.117 4.803,-4.446c1.378,-1.056 3.323,-0.971 4.626,0.177l0.12,0.104c1.759,1.545 1.588,4.272 -0.27,5.699Z" style="fill:#052b48;fill-rule:nonzero;"/><path d="M2093.66,331.957c0.364,-1.287 -1.012,-2.377 -2.2,-1.749l-40.662,21.741c-22.644,-8.233 -68.552,-16.73 -67.265,-16.563c1.739,-2.152 3.694,-4.107 5.865,-5.836l-20.031,-17.614c-1.336,-1.179 -3.35,-1.071 -4.597,0.196c-5.757,5.924 -10.433,12.899 -13.695,20.621c1.395,0.049 -5.295,-0.157 -10.07,-0.157c-35.572,0 -69.583,5.786 -101.57,16.455c-1.041,0.344 -1.758,1.336 -1.758,2.436c0,1.425 1.159,2.564 2.574,2.564l7.682,0l18.135,12.388c-0.049,0.59 -0.226,1.14 -0.521,1.601c-0.029,0.059 -0.088,0.079 -0.117,0.138c-0.904,1.287 -2.614,1.935 -4.225,1.287c-2.014,-0.806 -3.998,-1.69 -5.983,-2.554c-1.247,-0.55 -2.514,-1.042 -3.752,-1.602c-3.223,-1.483 -6.406,-3.035 -9.539,-4.666c-0.57,0.57 -0.953,1.238 -1.16,1.935c-0.009,0.01 0,0.02 0,0.04c-0.619,2.082 0.266,4.47 2.407,5.531c0,0 0.01,0 0.02,0.009c2.112,1.032 4.273,1.965 6.415,2.938c1.601,0.737 3.173,1.522 4.804,2.21c1.857,0.796 3.772,1.474 5.668,2.23c1.955,0.776 3.9,1.601 5.885,2.309c2.81,1.012 5.668,1.906 8.517,2.8c0.56,0.186 1.11,0.373 1.661,0.55l-0.01,0.039c0.137,0.039 0.285,0.049 0.402,0.088c0.03,0 0.05,0.01 0.069,0.02c-0.147,-0.049 -0.314,-0.059 -0.471,-0.108c0.344,0.098 0.687,0.187 1.021,0.295c0.226,0.069 0.452,0.157 0.668,0.216c0.472,0.137 0.953,0.246 1.415,0.373c3.163,0.924 6.366,1.778 9.588,2.554c0.383,0.099 0.776,0.226 1.16,0.315c0.176,0.039 0.363,0.069 0.53,0.108c3.684,0.864 7.397,1.621 11.14,2.299c0.246,0.039 0.492,0.098 0.737,0.147c0.373,0.069 0.757,0.108 1.13,0.167c3.006,0.521 6.032,0.963 9.067,1.356c1.847,1.562 3.783,2.996 5.934,4.136l1.818,0.972l6.316,-3.753c0.099,0 0.197,0.01 0.295,0.01c0.707,0.049 1.405,0.089 2.102,0.128c3.96,0.206 7.938,0.354 11.946,0.354c5.541,0 11.052,-0.187 16.534,-0.462c1.493,-0.079 2.967,-0.197 4.46,-0.295c1.199,-0.078 2.407,-0.147 3.596,-0.245c1.65,8.684 5.541,16.573 11.071,23.007l9.284,-16.396l0,-6.042c0,-0.933 -0.167,-1.817 -0.412,-2.662c1.63,-0.236 3.251,-0.511 4.872,-0.766c1.602,-0.246 3.213,-0.462 4.814,-0.747c3.006,-0.511 7.024,-1.238 6.042,-1.041c3.025,6.444 7.043,12.349 11.847,17.487c1.248,1.336 3.341,1.444 4.677,0.206l22.369,-20.454c-1.926,-1.66 -3.635,-3.526 -5.158,-5.56c-1.012,0.305 3.173,-1.022 6.268,-2.043c1.719,-0.56 3.419,-1.14 5.118,-1.739c1.513,-0.511 3.046,-0.992 4.539,-1.543l40.534,21.672c1.188,0.639 2.564,-0.462 2.2,-1.749c-5.531,-19.471 -5.531,-40.111 0,-59.582" style="fill:#052b48;fill-rule:nonzero;"/></g><g><path d="M1694.13,64.034c-0.498,0.381 -0.984,0.779 -1.459,1.188c-3.269,-1.064 -6.556,-2.083 -9.863,-3.06c0,0 3.738,-3.804 5.86,-5.426c1.681,-1.288 4.054,-1.185 5.645,0.216l0.146,0.128c2.147,1.885 1.937,5.213 -0.329,6.954Z" style="fill:#052b48;fill-rule:nonzero;"/><path d="M1772.31,43.03c0.501,-1.748 -1.375,-3.222 -2.977,-2.367l-55.161,29.481c-30.71,-11.169 -92.965,-22.703 -91.216,-22.467c2.338,-2.928 5.01,-5.58 7.938,-7.908l-27.164,-23.902c-1.817,-1.592 -4.538,-1.444 -6.228,0.285c-7.81,8.016 -14.146,17.487 -18.577,27.949c1.896,0.059 -7.172,-0.206 -13.646,-0.206c-48.255,0 -94.388,7.849 -137.761,22.31c-1.415,0.472 -2.378,1.808 -2.378,3.311c0,1.925 1.562,3.487 3.488,3.487l10.413,0l24.6,16.78c-0.059,0.815 -0.315,1.552 -0.698,2.18c-0.049,0.069 -0.128,0.109 -0.177,0.177c-1.218,1.759 -3.527,2.633 -5.727,1.759c-2.731,-1.1 -5.423,-2.299 -8.115,-3.478c-1.699,-0.727 -3.418,-1.405 -5.098,-2.171c-4.362,-2.004 -8.665,-4.097 -12.929,-6.317c-0.766,0.766 -1.287,1.67 -1.572,2.623c0,0.02 0.01,0.03 0,0.049c-0.835,2.839 0.374,6.072 3.272,7.496l0.029,0.01c2.849,1.415 5.796,2.682 8.704,3.998c2.171,0.992 4.303,2.053 6.514,2.997c2.524,1.07 5.108,2.013 7.672,3.025c2.662,1.042 5.295,2.152 7.997,3.134c3.802,1.376 7.682,2.584 11.553,3.802c0.746,0.236 1.493,0.501 2.25,0.737l0,0.049c0.167,0.059 0.363,0.079 0.53,0.118c0.03,0.01 0.059,0.029 0.098,0.029c-0.206,-0.049 -0.442,-0.068 -0.648,-0.147c0.462,0.137 0.923,0.255 1.385,0.403c0.314,0.098 0.609,0.206 0.914,0.294c0.638,0.197 1.277,0.325 1.906,0.511c4.302,1.258 8.635,2.407 13.016,3.468c0.521,0.128 1.032,0.295 1.562,0.413c0.236,0.059 0.492,0.098 0.727,0.157c4.991,1.159 10.031,2.201 15.11,3.104c0.334,0.059 0.668,0.148 1.002,0.216c0.501,0.089 1.021,0.128 1.532,0.217c4.077,0.707 8.174,1.306 12.3,1.846c2.485,2.113 5.118,4.068 8.036,5.61l2.466,1.316l8.556,-5.098c0.138,0.01 0.275,0.019 0.403,0.019c0.953,0.069 1.916,0.118 2.859,0.167c5.374,0.285 10.767,0.482 16.209,0.482c7.516,0 14.982,-0.246 22.409,-0.619c2.024,-0.108 4.038,-0.275 6.051,-0.403c1.631,-0.108 3.262,-0.196 4.883,-0.324c2.24,11.769 7.515,22.458 15.011,31.201l12.594,-22.242l0,-8.203c0,-1.257 -0.235,-2.456 -0.56,-3.605c2.221,-0.305 4.402,-0.688 6.612,-1.032c2.181,-0.334 4.352,-0.648 6.523,-1.011c4.087,-0.688 9.529,-1.68 8.183,-1.425c4.117,8.753 9.559,16.75 16.082,23.715c1.7,1.818 4.519,1.955 6.347,0.285l30.316,-27.743c-2.583,-2.25 -4.931,-4.774 -6.975,-7.535c-1.375,0.423 4.303,-1.395 8.498,-2.76c2.328,-0.767 4.627,-1.562 6.946,-2.368c2.043,-0.707 4.126,-1.346 6.159,-2.083l54.975,29.384c1.602,0.855 3.478,-0.629 2.977,-2.368c-7.515,-26.416 -7.515,-54.405 0,-80.812" style="fill:#052b48;fill-rule:nonzero;"/></g><g><path d="M475.433,346.977c-0.407,0.313 -0.806,0.638 -1.195,0.974c-2.679,-0.872 -5.373,-1.708 -8.083,-2.508c0,0 3.063,-3.117 4.803,-4.447c1.377,-1.055 3.322,-0.971 4.626,0.177l0.119,0.105c1.76,1.545 1.588,4.272 -0.27,5.699Z" style="fill:#052b48;fill-rule:nonzero;"/><path d="M536.777,332.272c0.373,-1.317 -1.032,-2.427 -2.25,-1.788l-41.555,22.222c-23.136,-8.41 -70.055,-17.104 -68.739,-16.937c1.778,-2.201 3.783,-4.195 5.983,-5.953l-20.463,-18.008c-1.366,-1.198 -3.419,-1.09 -4.696,0.207c-5.885,6.051 -10.659,13.174 -13.989,21.072c1.414,0.039 -5.413,-0.167 -10.296,-0.167c-36.359,0 -71.116,5.914 -103.79,16.819c-1.081,0.353 -1.798,1.365 -1.798,2.485c0,1.454 1.169,2.633 2.623,2.633l7.849,0l18.528,12.643c-0.039,0.61 -0.226,1.17 -0.52,1.651c-0.03,0.049 -0.089,0.079 -0.128,0.128c-0.924,1.316 -2.672,1.984 -4.313,1.316c-2.063,-0.815 -4.087,-1.719 -6.12,-2.603c-1.277,-0.56 -2.564,-1.071 -3.831,-1.641c-3.292,-1.513 -6.543,-3.094 -9.756,-4.765c-0.569,0.58 -0.962,1.258 -1.179,1.985c-0.009,0.01 0,0.02 -0.009,0.029c-0.619,2.132 0.294,4.569 2.465,5.649c0.01,0.01 0.01,0.01 0.02,0.01c2.161,1.061 4.382,2.024 6.562,3.016c1.641,0.737 3.242,1.542 4.903,2.25c1.915,0.815 3.86,1.513 5.786,2.269c2.014,0.796 3.989,1.641 6.032,2.368c2.859,1.041 5.786,1.955 8.704,2.858c0.57,0.187 1.12,0.393 1.699,0.57l-0.009,0.03c0.137,0.049 0.275,0.059 0.412,0.098c0.02,0.01 0.04,0.019 0.069,0.029c-0.167,-0.049 -0.324,-0.068 -0.491,-0.118c0.344,0.108 0.697,0.197 1.051,0.295c0.226,0.069 0.452,0.157 0.688,0.236c0.471,0.128 0.953,0.236 1.434,0.383c3.232,0.933 6.503,1.808 9.794,2.603c0.403,0.099 0.786,0.226 1.189,0.325c0.177,0.039 0.374,0.059 0.55,0.098c3.753,0.884 7.555,1.66 11.376,2.358c0.266,0.039 0.502,0.098 0.757,0.147c0.393,0.069 0.786,0.108 1.169,0.177c3.055,0.52 6.15,0.972 9.254,1.375c1.877,1.601 3.871,3.075 6.062,4.234l1.866,0.992l6.445,-3.841c0.098,0.01 0.196,0.01 0.294,0.02c0.718,0.049 1.445,0.088 2.162,0.128c4.047,0.206 8.104,0.353 12.201,0.353c5.668,0 11.298,-0.186 16.887,-0.461c1.533,-0.079 3.046,-0.217 4.569,-0.305c1.228,-0.079 2.456,-0.157 3.674,-0.246c1.689,8.872 5.658,16.927 11.307,23.509l9.49,-16.759l0,-6.18c0,-0.953 -0.177,-1.856 -0.412,-2.711c1.67,-0.246 3.32,-0.521 4.98,-0.786c1.641,-0.246 3.281,-0.481 4.912,-0.757c3.075,-0.52 7.182,-1.267 6.17,-1.07c3.094,6.592 7.201,12.614 12.113,17.869c1.277,1.366 3.409,1.474 4.784,0.207l22.851,-20.906c-1.965,-1.689 -3.714,-3.585 -5.266,-5.668c-1.041,0.314 3.242,-1.051 6.405,-2.093c1.759,-0.569 3.488,-1.169 5.226,-1.778c1.543,-0.53 3.105,-1.012 4.647,-1.572l41.418,22.144c1.218,0.638 2.623,-0.472 2.25,-1.788c-5.659,-19.904 -5.659,-40.986 0,-60.889" style="fill:#052b48;fill-rule:nonzero;"/></g><g><path d="M2438.5,117.246c-0.408,0.312 -0.806,0.638 -1.195,0.973c-2.68,-0.872 -5.373,-1.707 -8.084,-2.508c0,0 3.064,-3.117 4.803,-4.446c1.378,-1.056 3.322,-0.971 4.626,0.177l0.119,0.105c1.76,1.545 1.588,4.271 -0.269,5.699Z" style="fill:#052b48;fill-rule:nonzero;"/><path d="M2499.84,102.54c0.373,-1.316 -1.031,-2.426 -2.25,-1.788l-41.555,22.222c-23.135,-8.409 -70.055,-17.103 -68.738,-16.936c1.778,-2.201 3.782,-4.195 5.982,-5.954l-20.463,-18.007c-1.365,-1.199 -3.419,-1.091 -4.696,0.206c-5.884,6.052 -10.659,13.174 -13.989,21.073c1.415,0.039 -5.413,-0.167 -10.296,-0.167c-36.358,0 -71.115,5.914 -103.79,16.818c-1.081,0.354 -1.798,1.366 -1.798,2.486c0,1.454 1.169,2.633 2.623,2.633l7.85,0l18.528,12.643c-0.04,0.609 -0.226,1.169 -0.521,1.65c-0.03,0.05 -0.088,0.079 -0.128,0.128c-0.923,1.317 -2.672,1.985 -4.312,1.317c-2.064,-0.816 -4.087,-1.72 -6.121,-2.604c-1.277,-0.56 -2.564,-1.071 -3.831,-1.64c-3.291,-1.513 -6.543,-3.095 -9.755,-4.765c-0.57,0.58 -0.963,1.257 -1.179,1.984c-0.01,0.01 0,0.02 -0.01,0.03c-0.619,2.132 0.295,4.568 2.466,5.649c0.01,0.009 0.01,0.009 0.019,0.009c2.162,1.061 4.382,2.024 6.563,3.016c1.64,0.737 3.242,1.543 4.902,2.25c1.916,0.816 3.861,1.513 5.786,2.269c2.014,0.796 3.989,1.641 6.032,2.368c2.859,1.041 5.787,1.955 8.704,2.859c0.57,0.186 1.12,0.393 1.7,0.57l-0.01,0.029c0.138,0.049 0.275,0.059 0.413,0.098c0.019,0.01 0.039,0.02 0.068,0.03c-0.167,-0.049 -0.324,-0.069 -0.491,-0.118c0.344,0.108 0.698,0.196 1.051,0.295c0.226,0.068 0.452,0.157 0.688,0.235c0.472,0.128 0.953,0.236 1.434,0.384c3.232,0.933 6.504,1.807 9.795,2.603c0.403,0.098 0.786,0.226 1.189,0.324c0.176,0.039 0.373,0.059 0.55,0.098c3.752,0.884 7.554,1.661 11.376,2.358c0.265,0.039 0.501,0.098 0.756,0.147c0.393,0.069 0.786,0.109 1.169,0.177c3.056,0.521 6.15,0.973 9.255,1.376c1.876,1.601 3.87,3.075 6.061,4.234l1.866,0.992l6.445,-3.841c0.098,0.01 0.196,0.01 0.295,0.019c0.717,0.05 1.444,0.089 2.161,0.128c4.047,0.206 8.105,0.354 12.201,0.354c5.669,0 11.298,-0.187 16.888,-0.462c1.532,-0.078 3.045,-0.216 4.568,-0.304c1.228,-0.079 2.456,-0.158 3.674,-0.246c1.69,8.871 5.659,16.927 11.307,23.509l9.49,-16.76l0,-6.179c0,-0.953 -0.176,-1.857 -0.412,-2.712c1.67,-0.245 3.32,-0.52 4.981,-0.786c1.64,-0.245 3.281,-0.481 4.912,-0.756c3.074,-0.521 7.181,-1.267 6.169,-1.071c3.095,6.592 7.201,12.614 12.113,17.87c1.277,1.366 3.409,1.474 4.784,0.206l22.851,-20.905c-1.965,-1.69 -3.714,-3.586 -5.266,-5.669c-1.041,0.315 3.242,-1.051 6.405,-2.092c1.759,-0.57 3.488,-1.169 5.227,-1.778c1.542,-0.531 3.104,-1.012 4.647,-1.572l41.417,22.143c1.219,0.639 2.623,-0.471 2.25,-1.788c-5.659,-19.903 -5.659,-40.985 0,-60.889" style="fill:#052b48;fill-rule:nonzero;"/></g><g><path d="M851.911,23.853c-0.497,0.381 -0.983,0.779 -1.458,1.188c-3.27,-1.064 -6.556,-2.084 -9.864,-3.061c0,0 3.738,-3.803 5.861,-5.425c1.681,-1.288 4.054,-1.185 5.644,0.216l0.146,0.128c2.147,1.885 1.938,5.212 -0.329,6.954Z" style="fill:#052b48;fill-rule:nonzero;"/><path d="M929.541,3.369c0.491,-1.759 -1.385,-3.232 -2.987,-2.368l-55.152,29.482c-30.719,-11.17 -92.964,-22.703 -91.225,-22.468c2.348,-2.927 5.02,-5.589 7.938,-7.918l-27.154,-23.901c-1.817,-1.592 -4.548,-1.445 -6.228,0.294c-7.81,8.017 -14.147,17.477 -18.577,27.949c1.896,0.059 -7.182,-0.206 -13.656,-0.206c-48.245,0 -94.378,7.84 -137.761,22.301c-1.415,0.481 -2.368,1.817 -2.368,3.31c0,1.926 1.552,3.488 3.488,3.488l10.413,0l24.59,16.789c-0.059,0.815 -0.305,1.552 -0.698,2.171c-0.039,0.079 -0.128,0.108 -0.177,0.177c-1.218,1.768 -3.527,2.633 -5.717,1.768c-2.731,-1.1 -5.423,-2.308 -8.115,-3.477c-1.699,-0.737 -3.419,-1.405 -5.099,-2.172c-4.361,-2.004 -8.674,-4.106 -12.928,-6.316c-0.766,0.766 -1.287,1.67 -1.572,2.623c-0.01,0.019 0,0.029 0,0.039c-0.835,2.839 0.374,6.071 3.262,7.496c0.01,0.009 0.019,0.009 0.029,0.019c2.859,1.415 5.806,2.682 8.714,3.999c2.171,0.992 4.303,2.053 6.504,2.986c2.524,1.081 5.118,2.014 7.682,3.026c2.662,1.041 5.295,2.161 7.997,3.144c3.802,1.365 7.682,2.573 11.543,3.792c0.756,0.235 1.503,0.501 2.259,0.736l-0.009,0.05c0.167,0.058 0.363,0.078 0.54,0.127l0.088,0.03c-0.206,-0.059 -0.432,-0.079 -0.638,-0.148c0.461,0.138 0.913,0.256 1.375,0.393c0.314,0.099 0.619,0.207 0.924,0.305c0.628,0.186 1.277,0.324 1.905,0.511c4.303,1.247 8.636,2.407 13.017,3.458c0.521,0.127 1.032,0.304 1.562,0.422c0.236,0.059 0.491,0.089 0.727,0.148c4.991,1.169 10.03,2.2 15.1,3.104c0.343,0.069 0.677,0.157 1.011,0.216c0.502,0.088 1.022,0.138 1.533,0.216c4.067,0.707 8.174,1.317 12.3,1.847c2.485,2.122 5.118,4.067 8.036,5.619l2.465,1.307l8.557,-5.089c0.138,0 0.275,0.01 0.403,0.02c0.953,0.059 1.916,0.108 2.859,0.167c5.373,0.275 10.767,0.481 16.209,0.481c7.516,0 14.972,-0.255 22.409,-0.629c2.024,-0.108 4.028,-0.265 6.051,-0.402c1.631,-0.108 3.252,-0.197 4.873,-0.315c2.24,11.76 7.525,22.458 15.021,31.201l12.584,-22.251l0,-8.193c0,-1.268 -0.235,-2.456 -0.55,-3.616c2.211,-0.304 4.401,-0.677 6.612,-1.031c2.181,-0.334 4.352,-0.639 6.523,-1.002c4.077,-0.698 9.529,-1.68 8.183,-1.434c4.107,8.753 9.559,16.75 16.082,23.725c1.69,1.817 4.519,1.955 6.346,0.275l30.317,-27.743c-2.583,-2.25 -4.931,-4.775 -6.985,-7.535c-1.375,0.422 4.303,-1.385 8.508,-2.761c2.318,-0.756 4.627,-1.552 6.936,-2.367c2.053,-0.708 4.136,-1.346 6.169,-2.083l54.965,29.383c1.602,0.855 3.478,-0.628 2.987,-2.367c-7.516,-26.417 -7.516,-54.396 0,-80.802" style="fill:#052b48;fill-rule:nonzero;"/></g><g><path d="M1275.25,64.034c-0.498,0.381 -0.984,0.779 -1.458,1.188c-3.27,-1.064 -6.557,-2.083 -9.864,-3.06c0,0 3.738,-3.804 5.861,-5.426c1.68,-1.288 4.053,-1.185 5.644,0.216l0.146,0.128c2.147,1.885 1.937,5.213 -0.329,6.954Z" style="fill:#052b48;fill-rule:nonzero;"/><path d="M1353.14,43.03c0.501,-1.748 -1.375,-3.222 -2.976,-2.367l-55.162,29.481c-30.71,-11.169 -92.964,-22.703 -91.216,-22.467c2.348,-2.928 5.011,-5.58 7.938,-7.908l-27.153,-23.902c-1.818,-1.592 -4.549,-1.444 -6.239,0.285c-7.81,8.016 -14.136,17.487 -18.577,27.949c1.906,0.059 -7.171,-0.206 -13.645,-0.206c-48.256,0 -94.389,7.849 -137.762,22.31c-1.414,0.472 -2.377,1.808 -2.377,3.311c0,1.925 1.562,3.487 3.487,3.487l10.424,0l24.589,16.78c-0.059,0.815 -0.305,1.552 -0.698,2.18c-0.049,0.069 -0.127,0.109 -0.176,0.177c-1.219,1.759 -3.527,2.633 -5.718,1.759c-2.731,-1.1 -5.423,-2.299 -8.124,-3.478c-1.69,-0.727 -3.419,-1.405 -5.089,-2.171c-4.362,-2.004 -8.675,-4.097 -12.938,-6.317c-0.757,0.766 -1.277,1.67 -1.562,2.623c-0.01,0.02 0,0.03 -0.01,0.049c-0.825,2.839 0.373,6.072 3.271,7.496c0.01,0 0.02,0.01 0.03,0.01c2.858,1.415 5.796,2.682 8.704,3.998c2.171,0.992 4.303,2.053 6.513,2.997c2.525,1.07 5.118,2.013 7.673,3.025c2.662,1.042 5.295,2.152 7.996,3.134c3.802,1.376 7.692,2.584 11.553,3.802c0.757,0.236 1.503,0.501 2.26,0.737l-0.01,0.049c0.167,0.059 0.363,0.079 0.53,0.118c0.04,0.01 0.069,0.029 0.099,0.029c-0.207,-0.049 -0.433,-0.068 -0.639,-0.147c0.452,0.137 0.914,0.255 1.375,0.403c0.315,0.098 0.61,0.206 0.924,0.294c0.629,0.197 1.277,0.325 1.906,0.511c4.303,1.258 8.625,2.407 13.007,3.468c0.52,0.128 1.041,0.295 1.572,0.413c0.235,0.059 0.481,0.098 0.717,0.157c4.99,1.159 10.04,2.201 15.109,3.104c0.334,0.059 0.668,0.148 1.012,0.216c0.491,0.089 1.022,0.128 1.532,0.217c4.068,0.707 8.164,1.306 12.29,1.846c2.495,2.113 5.118,4.068 8.046,5.61l2.466,1.316l8.557,-5.098c0.137,0.01 0.275,0.019 0.402,0.019c0.953,0.069 1.906,0.118 2.859,0.167c5.364,0.285 10.757,0.482 16.2,0.482c7.515,0 14.981,-0.246 22.408,-0.619c2.034,-0.108 4.038,-0.275 6.062,-0.403c1.621,-0.108 3.251,-0.196 4.872,-0.324c2.24,11.769 7.516,22.458 15.021,31.201l12.585,-22.242l0,-8.203c0,-1.257 -0.236,-2.456 -0.56,-3.605c2.22,-0.305 4.411,-0.688 6.611,-1.032c2.181,-0.334 4.362,-0.648 6.533,-1.011c4.077,-0.688 9.52,-1.68 8.184,-1.425c4.106,8.753 9.558,16.75 16.082,23.715c1.689,1.818 4.519,1.955 6.336,0.285l30.327,-27.743c-2.584,-2.25 -4.932,-4.774 -6.985,-7.535c-1.376,0.423 4.303,-1.395 8.507,-2.76c2.319,-0.767 4.618,-1.562 6.936,-2.368c2.053,-0.707 4.126,-1.346 6.169,-2.083l54.966,29.384c1.601,0.855 3.477,-0.629 2.976,-2.368c-7.505,-26.416 -7.505,-54.405 0,-80.812" style="fill:#052b48;fill-rule:nonzero;"/></g><g><path d="M1659.56,304.815c-0.498,0.381 -0.984,0.779 -1.459,1.188c-3.269,-1.064 -6.556,-2.083 -9.863,-3.06c0,0 3.738,-3.804 5.86,-5.426c1.681,-1.288 4.054,-1.184 5.645,0.216l0.146,0.128c2.147,1.885 1.937,5.213 -0.329,6.954Z" style="fill:#052b48;fill-rule:nonzero;"/><path d="M1738.2,284.783c0.501,-1.759 -1.375,-3.232 -2.977,-2.368l-55.161,29.482c-30.71,-11.17 -92.965,-22.703 -91.216,-22.468c2.348,-2.927 5.01,-5.58 7.938,-7.918l-27.154,-23.892c-1.817,-1.601 -4.548,-1.444 -6.238,0.285c-7.81,8.017 -14.137,17.487 -18.577,27.949c1.906,0.059 -7.171,-0.206 -13.645,-0.206c-48.256,0 -94.389,7.84 -137.762,22.301c-1.415,0.481 -2.377,1.817 -2.377,3.31c0,1.936 1.562,3.488 3.487,3.488l10.423,0l24.59,16.789c-0.059,0.815 -0.305,1.552 -0.698,2.181c-0.049,0.069 -0.128,0.108 -0.177,0.177c-1.218,1.758 -3.526,2.632 -5.717,1.758c-2.741,-1.1 -5.423,-2.308 -8.125,-3.478c-1.689,-0.736 -3.418,-1.404 -5.098,-2.171c-4.352,-2.004 -8.665,-4.106 -12.929,-6.316c-0.756,0.766 -1.277,1.67 -1.562,2.623c-0.009,0.019 0,0.029 -0.009,0.039c-0.826,2.839 0.373,6.071 3.271,7.505c0.01,0 0.02,0 0.029,0.01c2.859,1.415 5.797,2.682 8.704,3.999c2.172,0.992 4.303,2.053 6.514,2.996c2.524,1.071 5.118,2.004 7.672,3.016c2.663,1.051 5.295,2.161 7.997,3.144c3.802,1.375 7.692,2.573 11.553,3.801c0.756,0.226 1.503,0.492 2.259,0.737l-0.009,0.039c0.167,0.059 0.363,0.079 0.53,0.128c0.039,0.01 0.069,0.02 0.098,0.03c-0.206,-0.049 -0.432,-0.079 -0.638,-0.148c0.452,0.138 0.913,0.256 1.375,0.393c0.315,0.098 0.609,0.207 0.914,0.305c0.638,0.186 1.287,0.324 1.915,0.511c4.294,1.247 8.626,2.407 13.007,3.458c0.521,0.137 1.042,0.304 1.572,0.422c0.236,0.059 0.482,0.098 0.717,0.147c4.991,1.17 10.041,2.211 15.11,3.115c0.334,0.059 0.668,0.147 1.012,0.206c0.491,0.098 1.021,0.138 1.532,0.226c4.067,0.697 8.164,1.307 12.29,1.837c2.495,2.122 5.118,4.077 8.036,5.619l2.476,1.317l8.556,-5.099c0.138,0.01 0.275,0.01 0.393,0.02c0.963,0.059 1.916,0.108 2.869,0.167c5.364,0.285 10.757,0.481 16.2,0.481c7.515,0 14.981,-0.245 22.408,-0.629c2.034,-0.098 4.038,-0.265 6.061,-0.393c1.621,-0.108 3.252,-0.196 4.873,-0.324c2.24,11.769 7.515,22.458 15.011,31.201l12.594,-22.241l0,-8.203c0,-1.268 -0.235,-2.456 -0.559,-3.616c2.22,-0.304 4.41,-0.677 6.611,-1.031c2.181,-0.334 4.362,-0.639 6.523,-1.002c4.087,-0.688 9.529,-1.68 8.193,-1.434c4.107,8.753 9.559,16.759 16.072,23.725c1.7,1.817 4.529,1.954 6.347,0.284l30.326,-27.752c-2.593,-2.25 -4.931,-4.775 -6.985,-7.525c-1.375,0.422 4.303,-1.396 8.508,-2.771c2.318,-0.756 4.617,-1.552 6.936,-2.358c2.043,-0.707 4.126,-1.345 6.169,-2.092l54.965,29.383c1.602,0.865 3.478,-0.619 2.977,-2.367c-7.506,-26.417 -7.506,-54.396 0,-80.802" style="fill:#052b48;fill-rule:nonzero;"/></g><g><path d="M2177.79,3.713c-0.497,0.381 -0.983,0.779 -1.458,1.188c-3.27,-1.064 -6.556,-2.084 -9.864,-3.061c0,0 3.738,-3.803 5.861,-5.425c1.681,-1.288 4.054,-1.185 5.644,0.216l0.146,0.128c2.147,1.885 1.938,5.212 -0.329,6.954Z" style="fill:#052b48;fill-rule:nonzero;"/><path d="M2256.44,-16.32c0.501,-1.758 -1.376,-3.232 -2.977,-2.367l-55.162,29.482c-30.709,-11.17 -92.964,-22.704 -91.215,-22.468c2.348,-2.927 5.01,-5.58 7.937,-7.918l-27.153,-23.892c-1.817,-1.601 -4.549,-1.444 -6.238,0.285c-7.81,8.016 -14.137,17.487 -18.577,27.949c1.905,0.059 -7.172,-0.206 -13.646,-0.206c-48.255,0 -94.389,7.839 -137.762,22.3c-1.414,0.482 -2.377,1.818 -2.377,3.311c0,1.935 1.562,3.488 3.488,3.488l10.423,0l24.589,16.789c-0.059,0.815 -0.304,1.552 -0.697,2.181c-0.049,0.068 -0.128,0.108 -0.177,0.176c-1.218,1.759 -3.527,2.633 -5.718,1.759c-2.741,-1.1 -5.422,-2.309 -8.124,-3.478c-1.69,-0.737 -3.419,-1.405 -5.099,-2.171c-4.352,-2.004 -8.664,-4.106 -12.928,-6.317c-0.757,0.767 -1.277,1.67 -1.562,2.623c-0.01,0.02 0,0.03 -0.01,0.04c-0.825,2.839 0.373,6.071 3.271,7.505c0.01,0 0.02,0 0.03,0.01c2.859,1.415 5.796,2.682 8.704,3.998c2.171,0.993 4.303,2.054 6.513,2.997c2.525,1.07 5.119,2.004 7.673,3.016c2.662,1.051 5.295,2.161 7.997,3.143c3.801,1.376 7.692,2.574 11.553,3.802c0.756,0.226 1.503,0.491 2.259,0.737l-0.01,0.039c0.167,0.059 0.364,0.079 0.531,0.128c0.039,0.01 0.068,0.02 0.098,0.029c-0.206,-0.049 -0.432,-0.078 -0.639,-0.147c0.452,0.138 0.914,0.256 1.376,0.393c0.314,0.098 0.609,0.206 0.913,0.305c0.639,0.186 1.287,0.324 1.916,0.51c4.293,1.248 8.626,2.407 13.007,3.458c0.521,0.138 1.041,0.305 1.572,0.423c0.236,0.059 0.481,0.098 0.717,0.147c4.991,1.169 10.04,2.211 15.109,3.114c0.334,0.059 0.668,0.148 1.012,0.207c0.491,0.098 1.022,0.137 1.533,0.226c4.067,0.697 8.163,1.306 12.289,1.837c2.496,2.122 5.119,4.077 8.036,5.619l2.476,1.317l8.557,-5.099c0.137,0.01 0.275,0.01 0.393,0.02c0.963,0.058 1.915,0.108 2.868,0.167c5.364,0.284 10.758,0.481 16.2,0.481c7.515,0 14.982,-0.246 22.409,-0.629c2.033,-0.098 4.037,-0.265 6.061,-0.393c1.621,-0.108 3.252,-0.196 4.873,-0.324c2.24,11.769 7.515,22.458 15.011,31.201l12.594,-22.241l0,-8.204c0,-1.267 -0.236,-2.456 -0.56,-3.615c2.22,-0.304 4.411,-0.678 6.612,-1.031c2.181,-0.334 4.361,-0.639 6.523,-1.002c4.087,-0.688 9.529,-1.68 8.193,-1.435c4.106,8.754 9.559,16.76 16.072,23.725c1.7,1.818 4.529,1.955 6.346,0.285l30.327,-27.753c-2.594,-2.249 -4.932,-4.774 -6.985,-7.525c-1.375,0.423 4.303,-1.395 8.508,-2.77c2.318,-0.757 4.617,-1.552 6.935,-2.358c2.044,-0.707 4.126,-1.346 6.17,-2.092l54.965,29.383c1.601,0.865 3.478,-0.619 2.977,-2.367c-7.506,-26.417 -7.506,-54.396 0,-80.803" style="fill:#052b48;fill-rule:nonzero;"/></g><g><path d="M2060.59,181.567c-0.497,0.381 -0.983,0.779 -1.458,1.188c-3.27,-1.064 -6.556,-2.084 -9.863,-3.061c0,0 3.737,-3.803 5.86,-5.425c1.681,-1.288 4.054,-1.185 5.645,0.216l0.145,0.128c2.147,1.885 1.938,5.212 -0.329,6.954Z" style="fill:#052b48;fill-rule:nonzero;"/><path d="M2139.24,161.534c0.501,-1.758 -1.376,-3.232 -2.977,-2.367l-55.162,29.482c-30.709,-11.17 -92.964,-22.704 -91.215,-22.468c2.348,-2.927 5.01,-5.58 7.938,-7.918l-27.154,-23.892c-1.817,-1.601 -4.548,-1.444 -6.238,0.285c-7.81,8.016 -14.137,17.487 -18.577,27.949c1.906,0.059 -7.172,-0.206 -13.646,-0.206c-48.255,0 -94.389,7.839 -137.761,22.3c-1.415,0.482 -2.378,1.818 -2.378,3.311c0,1.935 1.562,3.487 3.488,3.487l10.423,0l24.589,16.79c-0.059,0.815 -0.304,1.552 -0.697,2.181c-0.049,0.068 -0.128,0.108 -0.177,0.176c-1.218,1.759 -3.527,2.633 -5.718,1.759c-2.74,-1.1 -5.422,-2.309 -8.124,-3.478c-1.69,-0.737 -3.419,-1.405 -5.099,-2.171c-4.352,-2.004 -8.664,-4.106 -12.928,-6.317c-0.756,0.767 -1.277,1.67 -1.562,2.623c-0.01,0.02 0,0.03 -0.01,0.04c-0.825,2.839 0.373,6.071 3.272,7.505c0.009,0 0.019,0 0.029,0.01c2.859,1.415 5.796,2.682 8.704,3.998c2.171,0.993 4.303,2.054 6.513,2.997c2.525,1.07 5.119,2.004 7.673,3.016c2.662,1.051 5.295,2.161 7.997,3.143c3.801,1.376 7.692,2.574 11.553,3.802c0.756,0.226 1.503,0.491 2.259,0.737l-0.01,0.039c0.167,0.059 0.364,0.079 0.531,0.128c0.039,0.01 0.069,0.02 0.098,0.029c-0.206,-0.049 -0.432,-0.078 -0.639,-0.147c0.452,0.138 0.914,0.255 1.376,0.393c0.314,0.098 0.609,0.206 0.913,0.305c0.639,0.186 1.287,0.324 1.916,0.51c4.293,1.248 8.626,2.407 13.007,3.458c0.521,0.138 1.041,0.305 1.572,0.423c0.236,0.059 0.481,0.098 0.717,0.147c4.991,1.169 10.04,2.211 15.109,3.114c0.334,0.059 0.668,0.148 1.012,0.207c0.491,0.098 1.022,0.137 1.533,0.226c4.067,0.697 8.163,1.306 12.29,1.837c2.495,2.122 5.118,4.077 8.036,5.619l2.475,1.317l8.557,-5.099c0.137,0.01 0.275,0.01 0.393,0.02c0.963,0.058 1.916,0.108 2.868,0.167c5.364,0.284 10.758,0.481 16.2,0.481c7.516,0 14.982,-0.246 22.409,-0.629c2.033,-0.098 4.037,-0.265 6.061,-0.393c1.621,-0.108 3.252,-0.196 4.873,-0.324c2.24,11.769 7.515,22.458 15.011,31.201l12.594,-22.242l0,-8.203c0,-1.267 -0.236,-2.456 -0.56,-3.615c2.22,-0.304 4.411,-0.678 6.612,-1.031c2.181,-0.334 4.362,-0.639 6.523,-1.002c4.087,-0.688 9.529,-1.68 8.193,-1.435c4.106,8.754 9.559,16.76 16.072,23.725c1.7,1.818 4.529,1.955 6.346,0.285l30.327,-27.753c-2.594,-2.249 -4.932,-4.774 -6.985,-7.525c-1.375,0.423 4.303,-1.395 8.508,-2.77c2.318,-0.757 4.617,-1.552 6.935,-2.358c2.044,-0.707 4.126,-1.346 6.17,-2.092l54.965,29.383c1.601,0.865 3.478,-0.619 2.977,-2.367c-7.506,-26.417 -7.506,-54.396 0,-80.803" style="fill:#052b48;fill-rule:nonzero;"/></g></g></g></g></svg>