<?xml version="1.0" encoding="UTF-8" standalone="no"?><!DOCTYPE svg PUBLIC "-//W3C//DTD SVG 1.1//EN" "http://www.w3.org/Graphics/SVG/1.1/DTD/svg11.dtd"><svg width="100%" height="100%" viewBox="0 0 2560 500" version="1.1" xmlns="http://www.w3.org/2000/svg" xmlns:xlink="http://www.w3.org/1999/xlink" xml:space="preserve" xmlns:serif="http://www.serif.com/" style="fill-rule:evenodd;clip-rule:evenodd;stroke-linecap:round;stroke-linejoin:round;stroke-miterlimit:10;"><rect x="0" y="0" width="2560" height="500" style="fill:#96cdc4;"/><g opacity="0.1"><path d="M1542.84,64.28c0,0 -8.382,-10.974 -18.988,-13.81l-16.889,12.333l7.397,4.307l28.48,-2.218" style="fill:#e1251c;fill-rule:nonzero;"/><path d="M1473.05,74.511c0,0 -5.428,-5.298 -9.616,-5.298c-4.194,0 -4.567,1.596 -3.577,2.652c0.985,1.044 6.369,4.994 6.369,4.994l6.824,-2.348Z" style="fill:#e1251c;fill-rule:nonzero;"/><path d="M1463.8,100.162l-8.139,3.945l9.373,10.974c0,0 7.273,-0.741 20.222,-4.318l-21.456,-10.601Z" style="fill:#e1251c;fill-rule:nonzero;"/><path d="M1509.3,115.08c0,0 -1.234,7.89 4.437,11.959c0,0 11.591,-2.711 18.62,-11.959l-23.057,0Z" style="fill:#e1251c;fill-rule:nonzero;"/><path d="M1398.16,64.962c5.828,-6.201 32.181,11.494 32.181,11.494c0,0 0.043,0.037 0.103,0.097c-2.127,0.752 -5.417,2.186 -5.99,4.037c-0.861,2.77 1.542,5.546 1.174,8.138c-0.346,2.408 -6.115,6.732 4.811,10.601c-10.309,7.333 -22.701,11.218 -28.302,10.947c-5.736,-0.281 -5.454,-2.218 -3.885,-8.322c1.575,-6.104 7.998,-10.282 8.323,-15.168c0.276,-4.162 -14.021,-15.861 -8.415,-21.824" style="fill:#e1251c;fill-rule:nonzero;"/><path d="M1622.83,89.313c0,0 1.077,-3.593 -3.236,-6.11c-4.307,-2.51 -36.559,-23.544 -91.305,-19.02c-48.951,4.053 -78.61,17.576 -85.91,16.834c-8.334,-0.838 -12.024,-4.599 -12.024,-4.599c0,0 0.038,0.043 0.103,0.097c-2.127,0.752 -5.417,2.186 -5.991,4.042c-0.86,2.776 1.542,5.547 1.174,8.139c-0.346,2.403 -6.104,6.721 4.789,10.59c0.249,-0.179 0.515,-0.336 0.758,-0.514c8.777,-6.445 26.705,-2.603 52.896,13.225c5.119,3.095 44.448,7.154 72.192,5.422c27.744,-1.721 44.882,-11.959 64.736,-22.316c0,0 1.845,-3.328 -0.493,-3.204c-2.343,0.125 -7.646,1.478 -7.646,1.478c0,0 0.677,-2.094 9.957,-4.064" style="fill:#042b49;fill-rule:nonzero;"/><path d="M1583.16,106.942c0.741,-0.969 0.124,-1.234 -2.711,-1.851c-2.836,-0.617 -19.605,-1.358 -23.058,0c-3.452,1.358 2.224,7.251 6.294,8.242c4.069,0.984 18.734,-5.423 19.475,-6.391" style="fill:#e1251c;fill-rule:nonzero;"/><path d="M1603.75,86.966c0,2.381 1.932,4.319 4.319,4.319c2.381,0 4.313,-1.938 4.313,-4.319c0,-2.38 -1.932,-4.318 -4.313,-4.318c-2.387,0 -4.319,1.938 -4.319,4.318" style="fill:#e1251c;fill-rule:nonzero;"/><path d="M1606.06,86.966c0,1.104 0.898,2.003 2.007,2.003c1.104,0 2.003,-0.899 2.003,-2.003c0,-1.103 -0.899,-2.002 -2.003,-2.002c-1.109,0 -2.007,0.899 -2.007,2.002" style="fill:#042b49;fill-rule:nonzero;"/><path d="M1589.57,78.58c-0.833,3.615 -1.358,5.06 -4.686,7.397c-3.328,2.349 -4.686,6.662 -4.194,9.129c0.493,2.468 0.866,5.341 11.591,10.866c0,0 1.618,0.92 3.074,1.975c-0.487,0.211 -0.979,0.417 -1.472,0.617c-1.591,-1.109 -4.058,-2.749 -6.78,-4.237c-4.686,-2.565 -8.139,-4.535 -7.771,-8.604c0.373,-4.069 0.498,-6.537 3.458,-9.616c2.954,-3.09 4.167,-1.694 5.179,-5.243c0.941,-3.318 -0.574,-6.613 6.569,-9.243c0.427,0.141 0.86,0.287 1.272,0.428c-2.154,0.514 -5.201,2.034 -6.24,6.531" style="fill:#e1251c;fill-rule:nonzero;"/><path d="M1410.46,184.46c0,0 -8.387,-10.969 -18.988,-13.81l-16.894,12.333l7.397,4.313l28.485,-2.219" style="fill:#e1251c;fill-rule:nonzero;"/><path d="M1340.67,194.696c0,0 -5.427,-5.298 -9.616,-5.298c-4.193,0 -4.567,1.597 -3.576,2.647c0.984,1.049 6.369,4.994 6.369,4.994l6.823,-2.343Z" style="fill:#e1251c;fill-rule:nonzero;"/><path d="M1331.42,220.342l-8.138,3.945l9.372,10.974c0,0 7.273,-0.741 20.222,-4.313l-21.456,-10.606Z" style="fill:#e1251c;fill-rule:nonzero;"/><path d="M1376.92,235.26c0,0 -1.234,7.895 4.437,11.964c0,0 11.591,-2.716 18.621,-11.964l-23.058,0Z" style="fill:#e1251c;fill-rule:nonzero;"/><path d="M1265.78,185.142c5.828,-6.196 32.181,11.494 32.181,11.494c0,0 0.043,0.043 0.102,0.097c-2.126,0.752 -5.411,2.192 -5.99,4.042c-0.86,2.771 1.542,5.547 1.174,8.139c-0.346,2.402 -6.114,6.732 4.811,10.595c-10.309,7.333 -22.7,11.223 -28.301,10.947c-5.736,-0.276 -5.455,-2.218 -3.885,-8.322c1.574,-6.104 7.997,-10.276 8.322,-15.168c0.276,-4.156 -14.021,-15.861 -8.414,-21.824" style="fill:#e1251c;fill-rule:nonzero;"/><path d="M1490.45,209.493c0,0 1.077,-3.593 -3.23,-6.104c-4.313,-2.516 -36.564,-23.55 -91.311,-19.021c-48.945,4.048 -78.605,17.571 -85.91,16.835c-8.333,-0.844 -12.024,-4.605 -12.024,-4.605c0,0 0.038,0.043 0.103,0.102c-2.127,0.747 -5.417,2.187 -5.99,4.037c-0.861,2.776 1.542,5.547 1.174,8.139c-0.346,2.403 -6.104,6.726 4.789,10.59c0.249,-0.173 0.514,-0.33 0.757,-0.509c8.783,-6.45 26.705,-2.608 52.896,13.22c5.119,3.101 44.449,7.154 72.193,5.428c27.743,-1.727 44.881,-11.965 64.735,-22.322c0,0 1.851,-3.328 -0.492,-3.198c-2.343,0.119 -7.646,1.477 -7.646,1.477c0,0 0.676,-2.094 9.956,-4.069" style="fill:#042b49;fill-rule:nonzero;"/><path d="M1450.78,227.122c0.742,-0.969 0.125,-1.234 -2.711,-1.851c-2.835,-0.611 -19.605,-1.353 -23.057,0c-3.453,1.358 2.224,7.257 6.293,8.242c4.069,0.984 18.734,-5.417 19.475,-6.391" style="fill:#e1251c;fill-rule:nonzero;"/><path d="M1471.37,207.152c0,2.381 1.932,4.313 4.319,4.313c2.381,0 4.312,-1.932 4.312,-4.313c0,-2.386 -1.931,-4.318 -4.312,-4.318c-2.387,0 -4.319,1.932 -4.319,4.318" style="fill:#e1251c;fill-rule:nonzero;"/><path d="M1473.68,207.152c0,1.104 0.898,2.002 2.008,2.002c1.104,0 2.002,-0.898 2.002,-2.002c0,-1.109 -0.898,-2.008 -2.002,-2.008c-1.11,0 -2.008,0.899 -2.008,2.008" style="fill:#042b49;fill-rule:nonzero;"/><path d="M1457.19,198.765c-0.834,3.61 -1.353,5.06 -4.686,7.398c-3.328,2.343 -4.687,6.661 -4.194,9.123c0.498,2.468 0.866,5.341 11.591,10.872c0,0 1.618,0.914 3.073,1.969c-0.487,0.211 -0.979,0.417 -1.471,0.623c-1.591,-1.115 -4.059,-2.749 -6.781,-4.238c-4.686,-2.57 -8.133,-4.54 -7.765,-8.609c0.368,-4.069 0.492,-6.531 3.452,-9.616c2.955,-3.084 4.167,-1.688 5.179,-5.238c0.942,-3.323 -0.574,-6.618 6.569,-9.248c0.428,0.141 0.861,0.287 1.272,0.428c-2.154,0.514 -5.2,2.04 -6.239,6.536" style="fill:#e1251c;fill-rule:nonzero;"/><path d="M1613.26,306.548c0,0 -8.382,-10.969 -18.988,-13.81l-16.894,12.332l7.397,4.313l28.485,-2.219" style="fill:#e1251c;fill-rule:nonzero;"/><path d="M1543.47,316.784c0,0 -5.423,-5.298 -9.616,-5.298c-4.194,0 -4.562,1.596 -3.577,2.646c0.985,1.05 6.369,4.995 6.369,4.995l6.824,-2.343Z" style="fill:#e1251c;fill-rule:nonzero;"/><path d="M1534.22,342.429l-8.139,3.945l9.372,10.974c0,0 7.273,-0.741 20.222,-4.312l-21.455,-10.607Z" style="fill:#e1251c;fill-rule:nonzero;"/><path d="M1579.72,357.347c0,0 -1.234,7.896 4.437,11.965c0,0 11.591,-2.717 18.621,-11.965l-23.058,0Z" style="fill:#e1251c;fill-rule:nonzero;"/><path d="M1468.58,307.229c5.828,-6.196 32.181,11.494 32.181,11.494c0,0 0.043,0.043 0.103,0.097c-2.127,0.753 -5.417,2.192 -5.991,4.043c-0.86,2.77 1.543,5.546 1.175,8.138c-0.347,2.403 -6.115,6.732 4.81,10.596c-10.308,7.332 -22.7,11.217 -28.301,10.947c-5.736,-0.276 -5.454,-2.219 -3.885,-8.323c1.575,-6.104 7.998,-10.276 8.322,-15.168c0.276,-4.156 -14.02,-15.86 -8.414,-21.824" style="fill:#e1251c;fill-rule:nonzero;"/><path d="M1693.25,331.58c0,0 1.076,-3.593 -3.231,-6.104c-4.313,-2.516 -36.564,-23.55 -91.311,-19.02c-48.945,4.047 -78.604,17.57 -85.91,16.834c-8.333,-0.844 -12.024,-4.605 -12.024,-4.605c0,0 0.044,0.043 0.103,0.103c-2.127,0.747 -5.411,2.186 -5.99,4.037c-0.861,2.776 1.542,5.546 1.174,8.138c-0.346,2.403 -6.104,6.727 4.794,10.59c0.249,-0.173 0.509,-0.33 0.753,-0.508c8.782,-6.451 26.705,-2.609 52.895,13.22c5.125,3.1 44.454,7.153 72.198,5.427c27.744,-1.726 44.882,-11.964 64.73,-22.322c0,0 1.851,-3.328 -0.492,-3.198c-2.343,0.119 -7.646,1.478 -7.646,1.478c0,0 0.682,-2.095 9.957,-4.07" style="fill:#042b49;fill-rule:nonzero;"/><path d="M1653.58,349.209c0.741,-0.968 0.124,-1.233 -2.711,-1.85c-2.836,-0.612 -19.611,-1.353 -23.058,0c-3.453,1.358 2.224,7.256 6.293,8.241c4.07,0.985 18.734,-5.422 19.476,-6.391" style="fill:#e1251c;fill-rule:nonzero;"/><path d="M1674.17,329.234c0,2.386 1.932,4.318 4.313,4.318c2.386,0 4.318,-1.932 4.318,-4.318c0,-2.381 -1.932,-4.313 -4.318,-4.313c-2.381,0 -4.313,1.932 -4.313,4.313" style="fill:#e1251c;fill-rule:nonzero;"/><path d="M1676.48,329.234c0,1.109 0.898,2.008 2.002,2.008c1.11,0 2.008,-0.899 2.008,-2.008c0,-1.104 -0.898,-2.002 -2.008,-2.002c-1.104,0 -2.002,0.898 -2.002,2.002" style="fill:#042b49;fill-rule:nonzero;"/><path d="M1659.99,320.853c-0.833,3.609 -1.353,5.054 -4.686,7.397c-3.328,2.343 -4.681,6.662 -4.189,9.124c0.493,2.467 0.861,5.341 11.586,10.871c0,0 1.623,0.915 3.074,1.97c-0.487,0.211 -0.974,0.416 -1.467,0.622c-1.596,-1.115 -4.064,-2.749 -6.786,-4.237c-4.68,-2.57 -8.133,-4.54 -7.765,-8.609c0.368,-4.07 0.492,-6.537 3.452,-9.616c2.96,-3.085 4.173,-1.689 5.179,-5.239c0.942,-3.322 -0.573,-6.618 6.575,-9.247c0.422,0.14 0.855,0.286 1.266,0.427c-2.148,0.514 -5.2,2.04 -6.239,6.537" style="fill:#e1251c;fill-rule:nonzero;"/><path d="M1347.93,379.812c0,0 -8.382,-10.974 -18.988,-13.81l-16.894,12.333l7.397,4.312l28.485,-2.218" style="fill:#e1251c;fill-rule:nonzero;"/><path d="M1278.14,390.048c0,0 -5.423,-5.303 -9.616,-5.303c-4.194,0 -4.562,1.602 -3.577,2.651c0.99,1.045 6.369,4.995 6.369,4.995l6.824,-2.343Z" style="fill:#e1251c;fill-rule:nonzero;"/><path d="M1268.9,415.694l-8.133,3.945l9.367,10.974c0,0 7.273,-0.741 20.222,-4.318l-21.456,-10.601Z" style="fill:#e1251c;fill-rule:nonzero;"/><path d="M1314.4,430.612c0,0 -1.234,7.89 4.437,11.959c0,0 11.591,-2.711 18.62,-11.959l-23.057,0Z" style="fill:#e1251c;fill-rule:nonzero;"/><path d="M1203.26,380.494c5.828,-6.196 32.181,11.493 32.181,11.493c0,0 0.044,0.038 0.103,0.098c-2.126,0.752 -5.416,2.186 -5.99,4.042c-0.86,2.771 1.542,5.541 1.174,8.133c-0.346,2.408 -6.115,6.732 4.811,10.601c-10.309,7.332 -22.701,11.218 -28.301,10.947c-5.736,-0.281 -5.455,-2.218 -3.886,-8.322c1.575,-6.104 7.998,-10.277 8.323,-15.168c0.276,-4.156 -14.021,-15.861 -8.415,-21.824" style="fill:#e1251c;fill-rule:nonzero;"/><path d="M1427.92,404.845c0,0 1.076,-3.593 -3.231,-6.104c-4.313,-2.517 -36.564,-23.55 -91.311,-19.026c-48.945,4.053 -78.604,17.576 -85.91,16.834c-8.333,-0.839 -12.024,-4.599 -12.024,-4.599c0,0 0.044,0.043 0.103,0.097c-2.127,0.752 -5.411,2.192 -5.99,4.042c-0.861,2.776 1.542,5.547 1.174,8.139c-0.346,2.402 -6.104,6.726 4.794,10.59c0.249,-0.179 0.509,-0.336 0.753,-0.514c8.782,-6.445 26.704,-2.603 52.895,13.225c5.125,3.095 44.454,7.154 72.198,5.422c27.744,-1.721 44.882,-11.959 64.73,-22.316c0,0 1.851,-3.328 -0.492,-3.204c-2.343,0.125 -7.646,1.478 -7.646,1.478c0,0 0.681,-2.095 9.957,-4.064" style="fill:#042b49;fill-rule:nonzero;"/><path d="M1388.25,422.474c0.741,-0.969 0.125,-1.234 -2.711,-1.851c-2.835,-0.617 -19.611,-1.358 -23.058,0c-3.452,1.358 2.224,7.257 6.294,8.241c4.069,0.985 18.734,-5.422 19.475,-6.39" style="fill:#e1251c;fill-rule:nonzero;"/><path d="M1408.85,402.498c0,2.381 1.932,4.319 4.313,4.319c2.386,0 4.318,-1.938 4.318,-4.319c0,-2.381 -1.932,-4.312 -4.318,-4.312c-2.381,0 -4.313,1.931 -4.313,4.312" style="fill:#e1251c;fill-rule:nonzero;"/><path d="M1411.16,402.498c0,1.11 0.898,2.003 2.002,2.003c1.109,0 2.008,-0.893 2.008,-2.003c0,-1.104 -0.899,-2.002 -2.008,-2.002c-1.104,0 -2.002,0.898 -2.002,2.002" style="fill:#042b49;fill-rule:nonzero;"/><path d="M1394.67,394.117c-0.833,3.609 -1.358,5.054 -4.686,7.397c-3.328,2.343 -4.686,6.656 -4.194,9.124c0.493,2.467 0.866,5.341 11.591,10.871c0,0 1.618,0.914 3.074,1.97c-0.487,0.211 -0.98,0.416 -1.472,0.622c-1.591,-1.115 -4.059,-2.749 -6.78,-4.243c-4.687,-2.565 -8.139,-4.534 -7.771,-8.604c0.373,-4.069 0.498,-6.536 3.458,-9.615c2.954,-3.085 4.166,-1.694 5.178,-5.244c0.942,-3.317 -0.573,-6.613 6.57,-9.243c0.427,0.141 0.855,0.287 1.271,0.428c-2.153,0.514 -5.205,2.035 -6.239,6.537" style="fill:#e1251c;fill-rule:nonzero;"/><g><clipPath id="_clip1"><rect x="0" y="-10.321" width="1140.8" height="584.761" clip-rule="nonzero"/></clipPath><g clip-path="url(#_clip1)"><path d="M736.409,403.891c0,0 -45.819,41.002 -34.968,66.32c10.851,25.323 73.266,32.838 153.13,-109.725l-118.162,43.405Z" style="fill:#042b49;fill-rule:nonzero;"/><path d="M-104.013,177.207c0,0 74.672,-47.932 158.558,-49.434c112.139,-2.012 232.796,19.846 311.088,27.131c104.736,9.735 425.034,27.125 482.911,22.303c57.877,-4.817 218.849,-16.875 255.018,24.717c36.18,41.603 -159.159,218.849 -403.326,226.085c-244.167,7.231 -403.331,-77.772 -477.488,-110.331c-74.151,-32.554 -217.036,-119.364 -307.467,-110.326c0,0 -63.305,70.542 -153.736,81.393c0,0 39.79,-30.746 50.641,-68.734c10.852,-37.982 3.621,-54.256 3.621,-54.256l80.18,11.452Z" style="fill:#042b49;fill-rule:nonzero;"/><path d="M879.894,237.499c6.63,-10.251 48.233,-22.91 81.994,-20.496c33.76,2.409 30.633,11.86 24.148,25.414c-13.898,29.062 -90.468,30.049 -101.32,19.193c-10.851,-10.846 -11.452,-13.866 -4.822,-24.111" style="fill:#e8de82;fill-rule:nonzero;"/><path d="M506.107,33.721c12.359,-5.428 75.964,7.236 144.693,156.751l-151.929,-10.851c0,0 25.018,-41.898 25.018,-80.331c0,-38.438 -30.14,-60.14 -17.782,-65.569" style="fill:#042b49;fill-rule:nonzero;"/><g><clipPath id="_clip2"><path d="M54.546,127.773c-18.897,0.338 -37.333,3.036 -54.546,7.006l0,83.956c79.644,23.542 169.157,75.417 222.749,98.943c74.156,32.56 233.321,117.562 477.487,110.331c244.167,-7.235 439.501,-184.482 403.326,-226.084c-36.169,-41.593 -197.141,-29.534 -255.018,-24.718c-57.871,4.823 -378.174,-12.567 -482.911,-22.303c-74.87,-6.968 -188.489,-27.259 -296.342,-27.259c-4.929,0 -9.842,0.042 -14.745,0.128Z" clip-rule="nonzero"/></clipPath><g clip-path="url(#_clip2)"><path d="M894.967,355.06c17.116,-33.412 43.314,-74.097 95.21,-93.45c51.891,-19.343 101.33,-19.257 125.447,-19.273c24.116,-0.021 -2.414,43.995 -2.414,43.995l-175.439,125.398c0,0 -59.92,-23.258 -42.804,-56.67" style="fill:#e8de82;fill-rule:nonzero;"/><path d="M196.224,255.587c27.731,-13.249 106.109,-22.91 167.602,28.938c61.492,51.848 69.935,125.06 135.048,143.92l-116.961,-16.714c0,0 1.207,-39.184 -34.367,-64.507c-35.568,-25.323 -179.054,-78.394 -151.322,-91.637" style="fill:#e8de82;fill-rule:nonzero;"/><path d="M513.168,194.483c0.027,14.08 -13.41,18.773 -18.103,24.808c-4.694,6.034 8.046,50.287 -4.694,32.183c-12.739,-18.103 -55.65,-84.482 -134.098,-117.336c0,0 45.937,-3.535 104.597,20.785c30.928,12.826 52.266,23.162 52.298,39.56" style="fill:#e8de82;fill-rule:nonzero;"/></g></g><path d="M914.794,356.653c11.146,13.41 3.25,74.36 -9.639,99.603c-12.895,25.248 -60.227,82.68 -84.343,86.301c-24.116,3.615 -37.381,-12.059 -39.79,-33.761c-2.414,-21.708 16.881,-133.841 16.881,-133.841c0,0 105.744,-31.717 116.891,-18.302" style="fill:#042b49;fill-rule:nonzero;"/></g></g><path d="M1136.93,112.369l143.649,0" style="fill:none;stroke:#e8de82;stroke-width:8.33px;"/><path d="M1032.86,64.016l164.082,0" style="fill:none;stroke:#e8de82;stroke-width:8.33px;"/><path d="M958.36,64.016l45.959,0" style="fill:none;stroke:#e8de82;stroke-width:8.33px;"/><path d="M1073.15,475.334l117.025,0" style="fill:none;stroke:#e8de82;stroke-width:8.33px;"/><path d="M998.655,475.334l45.958,0" style="fill:none;stroke:#e8de82;stroke-width:8.33px;"/><path d="M1159.96,307.879l27.144,0" style="fill:none;stroke:#e8de82;stroke-width:8.33px;"/><path d="M1209.94,307.879l100.656,0" style="fill:none;stroke:#e8de82;stroke-width:8.33px;"/><path d="M1738.29,195.869c0,0 -8.387,-10.974 -18.988,-13.815l-16.894,12.338l7.397,4.307l28.485,-2.218" style="fill:#e1251c;fill-rule:nonzero;"/><path d="M1668.5,206.1c0,0 -5.422,-5.298 -9.616,-5.298c-4.194,0 -4.567,1.597 -3.577,2.652c0.985,1.044 6.369,4.994 6.369,4.994l6.824,-2.348Z" style="fill:#e1251c;fill-rule:nonzero;"/><path d="M1659.26,231.746l-8.138,3.945l9.372,10.979c0,0 7.273,-0.741 20.222,-4.318l-21.456,-10.606Z" style="fill:#e1251c;fill-rule:nonzero;"/><path d="M1704.76,246.669c0,0 -1.234,7.89 4.437,11.959c0,0 11.591,-2.711 18.62,-11.959l-23.057,0Z" style="fill:#e1251c;fill-rule:nonzero;"/><path d="M1593.62,196.551c5.828,-6.201 32.181,11.488 32.181,11.488c0,0 0.043,0.044 0.103,0.103c-2.127,0.747 -5.412,2.186 -5.991,4.037c-0.86,2.771 1.543,5.547 1.175,8.139c-0.347,2.408 -6.115,6.731 4.81,10.595c-10.308,7.332 -22.7,11.223 -28.301,10.953c-5.736,-0.282 -5.455,-2.219 -3.885,-8.323c1.574,-6.104 7.998,-10.282 8.322,-15.168c0.276,-4.161 -14.02,-15.866 -8.414,-21.824" style="fill:#e1251c;fill-rule:nonzero;"/><path d="M1818.29,220.897c0,0 1.076,-3.588 -3.231,-6.104c-4.313,-2.517 -36.564,-23.545 -91.311,-19.021c-48.945,4.053 -78.604,17.57 -85.91,16.835c-8.333,-0.845 -12.024,-4.6 -12.024,-4.6c0,0 0.038,0.038 0.103,0.097c-2.126,0.752 -5.416,2.186 -5.99,4.037c-0.86,2.782 1.542,5.547 1.174,8.139c-0.346,2.408 -6.104,6.726 4.789,10.59c0.249,-0.173 0.514,-0.33 0.758,-0.509c8.782,-6.445 26.705,-2.608 52.895,13.22c5.12,3.101 44.449,7.159 72.193,5.427c27.744,-1.726 44.881,-11.959 64.735,-22.316c0,0 1.851,-3.328 -0.492,-3.203c-2.343,0.119 -7.646,1.477 -7.646,1.477c0,0 0.676,-2.094 9.957,-4.069" style="fill:#042b49;fill-rule:nonzero;"/><path d="M1778.61,238.531c0.741,-0.969 0.124,-1.239 -2.712,-1.851c-2.835,-0.617 -19.605,-1.358 -23.057,0c-3.453,1.353 2.229,7.252 6.293,8.242c4.07,0.979 18.734,-5.422 19.476,-6.391" style="fill:#e1251c;fill-rule:nonzero;"/><path d="M1799.2,218.556c0,2.381 1.932,4.313 4.318,4.313c2.381,0 4.313,-1.932 4.313,-4.313c0,-2.381 -1.932,-4.319 -4.313,-4.319c-2.386,0 -4.318,1.938 -4.318,4.319" style="fill:#e1251c;fill-rule:nonzero;"/><path d="M1801.51,218.556c0,1.104 0.899,2.002 2.008,2.002c1.104,0 2.002,-0.898 2.002,-2.002c0,-1.11 -0.898,-2.002 -2.002,-2.002c-1.109,0 -2.008,0.892 -2.008,2.002" style="fill:#042b49;fill-rule:nonzero;"/><path d="M1785.03,210.169c-0.834,3.615 -1.353,5.06 -4.687,7.398c-3.328,2.343 -4.686,6.661 -4.193,9.128c0.497,2.463 0.865,5.336 11.591,10.866c0,0 1.618,0.92 3.073,1.975c-0.487,0.206 -0.979,0.412 -1.472,0.617c-1.591,-1.109 -4.058,-2.749 -6.78,-4.237c-4.686,-2.565 -8.133,-4.54 -7.765,-8.609c0.368,-4.069 0.492,-6.532 3.452,-9.616c2.955,-3.084 4.167,-1.688 5.179,-5.238c0.941,-3.317 -0.574,-6.618 6.569,-9.243c0.428,0.141 0.861,0.282 1.272,0.428c-2.154,0.508 -5.201,2.034 -6.239,6.531" style="fill:#e1251c;fill-rule:nonzero;"/><path d="M1790.45,433.386c0,0 -8.382,-10.974 -18.988,-13.815l-16.889,12.338l7.397,4.307l28.48,-2.218" style="fill:#e1251c;fill-rule:nonzero;"/><path d="M1720.66,443.617c0,0 -5.428,-5.298 -9.616,-5.298c-4.194,0 -4.567,1.596 -3.577,2.652c0.985,1.044 6.369,4.994 6.369,4.994l6.824,-2.348Z" style="fill:#e1251c;fill-rule:nonzero;"/><path d="M1711.41,469.263l-8.139,3.945l9.373,10.979c0,0 7.273,-0.741 20.217,-4.318l-21.451,-10.606Z" style="fill:#e1251c;fill-rule:nonzero;"/><path d="M1756.91,484.186c0,0 -1.233,7.89 4.438,11.959c0,0 11.591,-2.711 18.62,-11.959l-23.058,0Z" style="fill:#e1251c;fill-rule:nonzero;"/><path d="M1645.77,434.068c5.828,-6.201 32.181,11.488 32.181,11.488c0,0 0.044,0.044 0.103,0.103c-2.127,0.747 -5.417,2.186 -5.99,4.037c-0.861,2.77 1.542,5.547 1.174,8.139c-0.346,2.408 -6.115,6.731 4.811,10.595c-10.309,7.332 -22.701,11.223 -28.302,10.952c-5.736,-0.281 -5.454,-2.218 -3.885,-8.322c1.575,-6.104 7.998,-10.282 8.323,-15.168c0.276,-4.161 -14.021,-15.866 -8.415,-21.824" style="fill:#e1251c;fill-rule:nonzero;"/><path d="M1870.44,458.414c0,0 1.077,-3.588 -3.236,-6.104c-4.307,-2.517 -36.559,-23.545 -91.305,-19.021c-48.951,4.053 -78.61,17.57 -85.91,16.834c-8.334,-0.844 -12.024,-4.599 -12.024,-4.599c0,0 0.038,0.038 0.103,0.097c-2.127,0.752 -5.417,2.186 -5.991,4.037c-0.86,2.781 1.543,5.547 1.175,8.139c-0.347,2.408 -6.104,6.726 4.789,10.59c0.248,-0.174 0.514,-0.33 0.757,-0.509c8.777,-6.445 26.705,-2.608 52.896,13.22c5.119,3.1 44.448,7.159 72.192,5.427c27.744,-1.726 44.882,-11.959 64.736,-22.316c0,0 1.845,-3.328 -0.493,-3.203c-2.343,0.119 -7.646,1.477 -7.646,1.477c0,0 0.677,-2.094 9.957,-4.069" style="fill:#042b49;fill-rule:nonzero;"/><path d="M1830.77,476.048c0.741,-0.969 0.124,-1.239 -2.711,-1.851c-2.836,-0.617 -19.605,-1.358 -23.058,0c-3.452,1.353 2.224,7.251 6.294,8.242c4.069,0.979 18.734,-5.422 19.475,-6.391" style="fill:#e1251c;fill-rule:nonzero;"/><path d="M1837.18,447.686c-0.833,3.615 -1.358,5.06 -4.686,7.397c-3.328,2.344 -4.686,6.662 -4.194,9.129c0.493,2.462 0.866,5.336 11.591,10.866c0,0 1.618,0.92 3.074,1.975c-0.487,0.206 -0.979,0.412 -1.472,0.617c-1.591,-1.109 -4.058,-2.749 -6.78,-4.237c-4.686,-2.565 -8.139,-4.54 -7.771,-8.609c0.374,-4.07 0.498,-6.532 3.458,-9.616c2.955,-3.085 4.167,-1.688 5.179,-5.238c0.941,-3.317 -0.574,-6.618 6.569,-9.243c0.427,0.141 0.86,0.287 1.272,0.428c-2.154,0.514 -5.206,2.034 -6.24,6.531" style="fill:#e1251c;fill-rule:nonzero;"/></g></svg>