<?xml version="1.0" encoding="UTF-8" standalone="no"?><!DOCTYPE svg PUBLIC "-//W3C//DTD SVG 1.1//EN" "http://www.w3.org/Graphics/SVG/1.1/DTD/svg11.dtd"><svg width="100%" height="100%" viewBox="0 0 909 221" version="1.1" xmlns="http://www.w3.org/2000/svg" xmlns:xlink="http://www.w3.org/1999/xlink" xml:space="preserve" xmlns:serif="http://www.serif.com/" style="fill-rule:evenodd;clip-rule:evenodd;stroke-linecap:round;stroke-linejoin:round;stroke-miterlimit:10;"><g><path d="M769.516,15.467c0,0 -3.597,-4.709 -8.149,-5.926l-7.247,5.292l3.174,1.849l12.222,-0.953" style="fill:#e1251c;fill-rule:nonzero;"/><path d="M739.568,19.857c0,0 -2.329,-2.273 -4.127,-2.273c-1.799,0 -1.96,0.685 -1.535,1.138c0.423,0.448 2.734,2.143 2.734,2.143l2.928,-1.008Z" style="fill:#e1251c;fill-rule:nonzero;"/><path d="M735.599,30.865l-3.492,1.693l4.022,4.709c0,0 3.121,-0.318 8.678,-1.853l-9.208,-4.549Z" style="fill:#e1251c;fill-rule:nonzero;"/><path d="M755.123,37.267c0,0 -0.529,3.386 1.905,5.132c0,0 4.974,-1.163 7.99,-5.132l-9.895,0Z" style="fill:#e1251c;fill-rule:nonzero;"/><path d="M707.43,15.76c2.501,-2.662 13.81,4.932 13.81,4.932c0,0 0.019,0.016 0.045,0.042c-0.913,0.323 -2.325,0.938 -2.571,1.732c-0.369,1.189 0.662,2.38 0.504,3.493c-0.149,1.033 -2.624,2.888 2.064,4.549c-4.424,3.146 -9.741,4.814 -12.145,4.698c-2.461,-0.121 -2.341,-0.953 -1.667,-3.572c0.676,-2.619 3.432,-4.412 3.571,-6.509c0.119,-1.786 -6.016,-6.806 -3.611,-9.365" style="fill:#e1251c;fill-rule:nonzero;"/><path d="M803.844,26.209c0,0 0.462,-1.541 -1.389,-2.621c-1.848,-1.078 -15.688,-10.104 -39.182,-8.163c-21.006,1.74 -33.734,7.543 -36.867,7.225c-3.576,-0.36 -5.16,-1.974 -5.16,-1.974c0,0 0.016,0.018 0.044,0.041c-0.912,0.323 -2.324,0.939 -2.57,1.735c-0.37,1.191 0.662,2.38 0.504,3.493c-0.149,1.031 -2.62,2.884 2.055,4.544c0.107,-0.076 0.22,-0.144 0.325,-0.22c3.766,-2.766 11.46,-1.117 22.699,5.675c2.197,1.328 19.075,3.07 30.98,2.327c11.906,-0.739 19.261,-5.132 27.781,-9.577c0,0 0.792,-1.428 -0.212,-1.375c-1.005,0.054 -3.281,0.634 -3.281,0.634c0,0 0.29,-0.898 4.273,-1.744" style="fill:#042b49;fill-rule:nonzero;"/><path d="M786.819,33.775c0.318,-0.416 0.053,-0.53 -1.164,-0.795c-1.216,-0.264 -8.413,-0.582 -9.894,0c-1.482,0.583 0.954,3.112 2.7,3.537c1.747,0.423 8.04,-2.327 8.358,-2.742" style="fill:#e1251c;fill-rule:nonzero;"/><path d="M795.655,25.203c0,1.021 0.829,1.853 1.853,1.853c1.022,0 1.851,-0.832 1.851,-1.853c0,-1.022 -0.829,-1.854 -1.851,-1.854c-1.024,0 -1.853,0.832 -1.853,1.854" style="fill:#e1251c;fill-rule:nonzero;"/><path d="M796.647,25.203c0,0.473 0.386,0.859 0.862,0.859c0.474,0 0.859,-0.386 0.859,-0.859c0,-0.474 -0.385,-0.86 -0.859,-0.86c-0.476,0 -0.862,0.386 -0.862,0.86" style="fill:#042b49;fill-rule:nonzero;"/><path d="M789.571,21.604c-0.358,1.551 -0.583,2.171 -2.011,3.174c-1.428,1.008 -2.011,2.859 -1.8,3.918c0.211,1.058 0.372,2.292 4.974,4.663c0,0 0.694,0.394 1.319,0.847c-0.209,0.091 -0.42,0.179 -0.632,0.265c-0.682,-0.476 -1.741,-1.18 -2.909,-1.818c-2.011,-1.101 -3.493,-1.946 -3.335,-3.693c0.16,-1.746 0.214,-2.805 1.484,-4.126c1.268,-1.326 1.788,-0.727 2.222,-2.25c0.404,-1.424 -0.246,-2.838 2.819,-3.967c0.184,0.061 0.37,0.123 0.546,0.184c-0.924,0.22 -2.231,0.873 -2.677,2.803" style="fill:#e1251c;fill-rule:nonzero;"/><path d="M712.71,67.04c0,0 -3.6,-4.707 -8.149,-5.926l-7.25,5.292l3.175,1.851l12.224,-0.952" style="fill:#e1251c;fill-rule:nonzero;"/><path d="M682.76,71.433c0,0 -2.329,-2.273 -4.126,-2.273c-1.8,0 -1.96,0.685 -1.535,1.135c0.423,0.451 2.733,2.144 2.733,2.144l2.928,-1.006Z" style="fill:#e1251c;fill-rule:nonzero;"/><path d="M678.792,82.439l-3.493,1.692l4.022,4.71c0,0 3.121,-0.318 8.678,-1.851l-9.207,-4.551Z" style="fill:#e1251c;fill-rule:nonzero;"/><path d="M698.317,88.84c0,0 -0.529,3.388 1.904,5.135c0,0 4.975,-1.166 7.991,-5.135l-9.895,0Z" style="fill:#e1251c;fill-rule:nonzero;"/><path d="M650.623,67.333c2.501,-2.659 13.81,4.932 13.81,4.932c0,0 0.019,0.019 0.044,0.042c-0.912,0.323 -2.322,0.941 -2.57,1.735c-0.37,1.189 0.661,2.38 0.503,3.492c-0.148,1.031 -2.624,2.889 2.065,4.547c-4.424,3.147 -9.742,4.816 -12.145,4.698c-2.462,-0.118 -2.341,-0.952 -1.667,-3.572c0.675,-2.619 3.432,-4.409 3.571,-6.509c0.118,-1.783 -6.017,-6.806 -3.611,-9.365" style="fill:#e1251c;fill-rule:nonzero;"/><path d="M747.037,77.783c0,0 0.462,-1.542 -1.387,-2.62c-1.85,-1.079 -15.691,-10.106 -39.184,-8.162c-21.004,1.737 -33.732,7.54 -36.867,7.224c-3.576,-0.362 -5.16,-1.976 -5.16,-1.976c0,0 0.016,0.019 0.044,0.044c-0.913,0.321 -2.324,0.938 -2.571,1.733c-0.369,1.191 0.662,2.38 0.504,3.492c-0.148,1.031 -2.619,2.887 2.055,4.545c0.107,-0.075 0.221,-0.142 0.326,-0.219c3.768,-2.768 11.459,-1.119 22.699,5.673c2.197,1.331 19.074,3.07 30.98,2.33c11.906,-0.741 19.26,-5.135 27.78,-9.579c0,0 0.795,-1.429 -0.211,-1.373c-1.005,0.051 -3.281,0.634 -3.281,0.634c0,0 0.29,-0.899 4.273,-1.746" style="fill:#042b49;fill-rule:nonzero;"/><path d="M730.012,85.348c0.318,-0.416 0.053,-0.529 -1.164,-0.794c-1.217,-0.263 -8.413,-0.581 -9.895,0c-1.481,0.583 0.955,3.114 2.701,3.537c1.746,0.422 8.039,-2.325 8.358,-2.743" style="fill:#e1251c;fill-rule:nonzero;"/><path d="M738.848,76.778c0,1.022 0.829,1.851 1.853,1.851c1.022,0 1.851,-0.829 1.851,-1.851c0,-1.024 -0.829,-1.853 -1.851,-1.853c-1.024,0 -1.853,0.829 -1.853,1.853" style="fill:#e1251c;fill-rule:nonzero;"/><path d="M739.84,76.778c0,0.474 0.385,0.859 0.861,0.859c0.474,0 0.86,-0.385 0.86,-0.859c0,-0.476 -0.386,-0.861 -0.86,-0.861c-0.476,0 -0.861,0.385 -0.861,0.861" style="fill:#042b49;fill-rule:nonzero;"/><path d="M732.763,73.179c-0.357,1.549 -0.58,2.172 -2.011,3.175c-1.428,1.005 -2.011,2.858 -1.799,3.915c0.213,1.059 0.371,2.292 4.974,4.665c0,0 0.694,0.393 1.319,0.845c-0.209,0.091 -0.421,0.179 -0.632,0.268c-0.683,-0.479 -1.742,-1.18 -2.91,-1.819c-2.011,-1.103 -3.49,-1.948 -3.332,-3.694c0.158,-1.747 0.211,-2.803 1.482,-4.127c1.268,-1.323 1.788,-0.724 2.222,-2.248c0.404,-1.426 -0.246,-2.84 2.819,-3.968c0.184,0.06 0.369,0.123 0.546,0.183c-0.924,0.221 -2.232,0.876 -2.678,2.805" style="fill:#e1251c;fill-rule:nonzero;"/><g><path d="M799.736,119.432c0,0 -3.597,-4.707 -8.149,-5.926l-7.249,5.292l3.174,1.851l12.224,-0.952" style="fill:#e1251c;fill-rule:nonzero;"/><path d="M769.787,123.825c0,0 -2.327,-2.273 -4.127,-2.273c-1.799,0 -1.957,0.685 -1.535,1.135c0.423,0.451 2.734,2.143 2.734,2.143l2.928,-1.005Z" style="fill:#e1251c;fill-rule:nonzero;"/><path d="M765.818,134.83l-3.492,1.693l4.022,4.71c0,0 3.121,-0.318 8.678,-1.851l-9.208,-4.552Z" style="fill:#e1251c;fill-rule:nonzero;"/><path d="M785.344,141.232c0,0 -0.53,3.388 1.904,5.135c0,0 4.974,-1.166 7.99,-5.135l-9.894,0Z" style="fill:#e1251c;fill-rule:nonzero;"/><path d="M737.65,119.725c2.501,-2.659 13.81,4.932 13.81,4.932c0,0 0.019,0.019 0.045,0.042c-0.913,0.323 -2.325,0.941 -2.571,1.735c-0.369,1.189 0.662,2.38 0.504,3.492c-0.149,1.031 -2.624,2.889 2.064,4.547c-4.424,3.147 -9.741,4.814 -12.145,4.698c-2.461,-0.119 -2.341,-0.952 -1.667,-3.572c0.676,-2.619 3.432,-4.409 3.571,-6.509c0.119,-1.783 -6.016,-6.806 -3.611,-9.365" style="fill:#e1251c;fill-rule:nonzero;"/><path d="M834.063,130.175c0,0 0.462,-1.542 -1.386,-2.62c-1.851,-1.079 -15.691,-10.106 -39.185,-8.162c-21.004,1.737 -33.732,7.54 -36.867,7.224c-3.576,-0.362 -5.16,-1.976 -5.16,-1.976c0,0 0.019,0.019 0.044,0.044c-0.912,0.321 -2.322,0.938 -2.57,1.732c-0.37,1.192 0.662,2.381 0.504,3.493c-0.149,1.031 -2.62,2.886 2.057,4.545c0.107,-0.075 0.218,-0.142 0.323,-0.219c3.769,-2.768 11.46,-1.119 22.699,5.673c2.199,1.331 19.077,3.07 30.983,2.329c11.906,-0.74 19.26,-5.134 27.778,-9.579c0,0 0.794,-1.428 -0.212,-1.372c-1.005,0.051 -3.281,0.634 -3.281,0.634c0,0 0.293,-0.899 4.273,-1.746" style="fill:#042b49;fill-rule:nonzero;"/><path d="M817.039,137.74c0.318,-0.416 0.053,-0.529 -1.164,-0.794c-1.216,-0.263 -8.415,-0.581 -9.894,0c-1.482,0.583 0.954,3.114 2.7,3.536c1.747,0.423 8.04,-2.326 8.358,-2.742" style="fill:#e1251c;fill-rule:nonzero;"/><path d="M825.875,129.168c0,1.024 0.829,1.853 1.851,1.853c1.024,0 1.853,-0.829 1.853,-1.853c0,-1.022 -0.829,-1.851 -1.853,-1.851c-1.022,0 -1.851,0.829 -1.851,1.851" style="fill:#e1251c;fill-rule:nonzero;"/><path d="M826.867,129.168c0,0.476 0.386,0.861 0.86,0.861c0.476,0 0.861,-0.385 0.861,-0.861c0,-0.474 -0.385,-0.859 -0.861,-0.859c-0.474,0 -0.86,0.385 -0.86,0.859" style="fill:#042b49;fill-rule:nonzero;"/><path d="M819.79,125.571c-0.358,1.549 -0.581,2.169 -2.011,3.175c-1.428,1.005 -2.009,2.858 -1.798,3.915c0.212,1.059 0.37,2.292 4.972,4.665c0,0 0.697,0.393 1.319,0.845c-0.209,0.091 -0.418,0.179 -0.629,0.267c-0.685,-0.478 -1.744,-1.179 -2.912,-1.818c-2.009,-1.103 -3.49,-1.948 -3.333,-3.694c0.158,-1.747 0.212,-2.806 1.482,-4.127c1.27,-1.324 1.79,-0.724 2.222,-2.248c0.404,-1.426 -0.246,-2.84 2.822,-3.968c0.181,0.06 0.367,0.123 0.543,0.183c-0.922,0.221 -2.231,0.876 -2.677,2.805" style="fill:#e1251c;fill-rule:nonzero;"/><path d="M799.736,119.432c0,0 -3.597,-4.707 -8.149,-5.926l-7.249,5.292l3.174,1.851l12.224,-0.952" style="fill:#e1251c;fill-rule:nonzero;"/><path d="M769.787,123.825c0,0 -2.327,-2.273 -4.127,-2.273c-1.799,0 -1.957,0.685 -1.535,1.135c0.423,0.451 2.734,2.143 2.734,2.143l2.928,-1.005Z" style="fill:#e1251c;fill-rule:nonzero;"/><path d="M765.818,134.83l-3.492,1.693l4.022,4.71c0,0 3.121,-0.318 8.678,-1.851l-9.208,-4.552Z" style="fill:#e1251c;fill-rule:nonzero;"/><path d="M785.344,141.232c0,0 -0.53,3.388 1.904,5.135c0,0 4.974,-1.166 7.99,-5.135l-9.894,0Z" style="fill:#e1251c;fill-rule:nonzero;"/><path d="M737.65,119.725c2.501,-2.659 13.81,4.932 13.81,4.932c0,0 0.019,0.019 0.045,0.042c-0.913,0.323 -2.325,0.941 -2.571,1.735c-0.369,1.189 0.662,2.38 0.504,3.492c-0.149,1.031 -2.624,2.889 2.064,4.547c-4.424,3.147 -9.741,4.814 -12.145,4.698c-2.461,-0.119 -2.341,-0.952 -1.667,-3.572c0.676,-2.619 3.432,-4.409 3.571,-6.509c0.119,-1.783 -6.016,-6.806 -3.611,-9.365" style="fill:#e1251c;fill-rule:nonzero;"/><path d="M834.063,130.175c0,0 0.462,-1.542 -1.386,-2.62c-1.851,-1.079 -15.691,-10.106 -39.185,-8.162c-21.004,1.737 -33.732,7.54 -36.867,7.224c-3.576,-0.362 -5.16,-1.976 -5.16,-1.976c0,0 0.019,0.019 0.044,0.044c-0.912,0.321 -2.322,0.938 -2.57,1.732c-0.37,1.192 0.662,2.381 0.504,3.493c-0.149,1.031 -2.62,2.886 2.057,4.545c0.107,-0.075 0.218,-0.142 0.323,-0.219c3.769,-2.768 11.46,-1.119 22.699,5.673c2.199,1.331 19.077,3.07 30.983,2.329c11.906,-0.74 19.26,-5.134 27.778,-9.579c0,0 0.794,-1.428 -0.212,-1.372c-1.005,0.051 -3.281,0.634 -3.281,0.634c0,0 0.293,-0.899 4.273,-1.746" style="fill:#042b49;fill-rule:nonzero;"/><path d="M817.039,137.74c0.318,-0.416 0.053,-0.529 -1.164,-0.794c-1.216,-0.263 -8.415,-0.581 -9.894,0c-1.482,0.583 0.954,3.114 2.7,3.536c1.747,0.423 8.04,-2.326 8.358,-2.742" style="fill:#e1251c;fill-rule:nonzero;"/><path d="M825.875,129.168c0,1.024 0.829,1.853 1.851,1.853c1.024,0 1.853,-0.829 1.853,-1.853c0,-1.022 -0.829,-1.851 -1.853,-1.851c-1.022,0 -1.851,0.829 -1.851,1.851" style="fill:#e1251c;fill-rule:nonzero;"/><path d="M826.867,129.168c0,0.476 0.386,0.861 0.86,0.861c0.476,0 0.861,-0.385 0.861,-0.861c0,-0.474 -0.385,-0.859 -0.861,-0.859c-0.474,0 -0.86,0.385 -0.86,0.859" style="fill:#042b49;fill-rule:nonzero;"/><path d="M819.79,125.571c-0.358,1.549 -0.581,2.169 -2.011,3.175c-1.428,1.005 -2.009,2.858 -1.798,3.915c0.212,1.059 0.37,2.292 4.972,4.665c0,0 0.697,0.393 1.319,0.845c-0.209,0.091 -0.418,0.179 -0.629,0.267c-0.685,-0.478 -1.744,-1.179 -2.912,-1.818c-2.009,-1.103 -3.49,-1.948 -3.333,-3.694c0.158,-1.747 0.212,-2.806 1.482,-4.127c1.27,-1.324 1.79,-0.724 2.222,-2.248c0.404,-1.426 -0.246,-2.84 2.822,-3.968c0.181,0.06 0.367,0.123 0.543,0.183c-0.922,0.221 -2.231,0.876 -2.677,2.805" style="fill:#e1251c;fill-rule:nonzero;"/></g><g><path d="M874.151,173.963c0,0 -3.597,-4.707 -8.148,-5.926l-7.25,5.292l3.174,1.851l12.224,-0.952" style="fill:#e1251c;fill-rule:nonzero;"/><path d="M844.202,178.356c0,0 -2.327,-2.274 -4.127,-2.274c-1.799,0 -1.957,0.685 -1.535,1.136c0.423,0.45 2.734,2.143 2.734,2.143l2.928,-1.005Z" style="fill:#e1251c;fill-rule:nonzero;"/><path d="M840.233,189.361l-3.492,1.693l4.022,4.71c0,0 3.121,-0.319 8.678,-1.851l-9.208,-4.552Z" style="fill:#e1251c;fill-rule:nonzero;"/><path d="M859.759,195.763c0,0 -0.53,3.388 1.904,5.134c0,0 4.974,-1.165 7.991,-5.134l-9.895,0Z" style="fill:#e1251c;fill-rule:nonzero;"/><path d="M812.065,174.256c2.501,-2.659 13.81,4.932 13.81,4.932c0,0 0.019,0.019 0.045,0.042c-0.913,0.323 -2.325,0.94 -2.571,1.735c-0.369,1.189 0.662,2.38 0.504,3.492c-0.149,1.031 -2.624,2.889 2.064,4.547c-4.423,3.147 -9.741,4.814 -12.145,4.698c-2.461,-0.119 -2.341,-0.952 -1.667,-3.572c0.676,-2.619 3.432,-4.41 3.571,-6.509c0.119,-1.783 -6.016,-6.806 -3.611,-9.365" style="fill:#e1251c;fill-rule:nonzero;"/><path d="M908.478,184.706c0,0 0.462,-1.542 -1.386,-2.62c-1.851,-1.08 -15.691,-10.106 -39.185,-8.162c-21.004,1.737 -33.732,7.54 -36.867,7.224c-3.576,-0.362 -5.16,-1.976 -5.16,-1.976c0,0 0.019,0.018 0.044,0.044c-0.912,0.32 -2.322,0.938 -2.57,1.732c-0.369,1.192 0.662,2.381 0.504,3.493c-0.149,1.031 -2.62,2.886 2.057,4.544c0.107,-0.074 0.218,-0.141 0.323,-0.218c3.769,-2.768 11.46,-1.119 22.699,5.673c2.199,1.331 19.077,3.07 30.983,2.329c11.906,-0.74 19.26,-5.134 27.778,-9.579c0,0 0.794,-1.428 -0.211,-1.372c-1.006,0.051 -3.282,0.634 -3.282,0.634c0,0 0.293,-0.899 4.273,-1.746" style="fill:#042b49;fill-rule:nonzero;"/><path d="M891.454,192.271c0.318,-0.416 0.053,-0.53 -1.163,-0.794c-1.217,-0.263 -8.416,-0.581 -9.895,0c-1.482,0.582 0.954,3.114 2.7,3.536c1.747,0.423 8.04,-2.327 8.358,-2.742" style="fill:#e1251c;fill-rule:nonzero;"/><path d="M900.29,183.699c0,1.024 0.829,1.853 1.851,1.853c1.024,0 1.853,-0.829 1.853,-1.853c0,-1.022 -0.829,-1.851 -1.853,-1.851c-1.022,0 -1.851,0.829 -1.851,1.851" style="fill:#e1251c;fill-rule:nonzero;"/><path d="M901.283,183.699c0,0.476 0.385,0.861 0.859,0.861c0.476,0 0.861,-0.385 0.861,-0.861c0,-0.474 -0.385,-0.86 -0.861,-0.86c-0.474,0 -0.859,0.386 -0.859,0.86" style="fill:#042b49;fill-rule:nonzero;"/><path d="M894.205,180.102c-0.358,1.549 -0.581,2.169 -2.011,3.175c-1.428,1.005 -2.009,2.858 -1.798,3.915c0.212,1.059 0.37,2.292 4.972,4.665c0,0 0.697,0.392 1.319,0.845c-0.209,0.091 -0.418,0.179 -0.629,0.267c-0.685,-0.478 -1.744,-1.179 -2.912,-1.818c-2.009,-1.103 -3.49,-1.948 -3.332,-3.695c0.157,-1.746 0.211,-2.805 1.481,-4.126c1.27,-1.324 1.79,-0.725 2.222,-2.248c0.404,-1.426 -0.246,-2.84 2.822,-3.969c0.181,0.061 0.367,0.124 0.543,0.184c-0.922,0.221 -2.231,0.875 -2.677,2.805" style="fill:#e1251c;fill-rule:nonzero;"/><path d="M874.151,173.963c0,0 -3.597,-4.707 -8.148,-5.926l-7.25,5.292l3.174,1.851l12.224,-0.952" style="fill:#e1251c;fill-rule:nonzero;"/><path d="M844.202,178.356c0,0 -2.327,-2.274 -4.127,-2.274c-1.799,0 -1.957,0.685 -1.535,1.136c0.423,0.45 2.734,2.143 2.734,2.143l2.928,-1.005Z" style="fill:#e1251c;fill-rule:nonzero;"/><path d="M840.233,189.361l-3.492,1.693l4.022,4.71c0,0 3.121,-0.319 8.678,-1.851l-9.208,-4.552Z" style="fill:#e1251c;fill-rule:nonzero;"/><path d="M859.759,195.763c0,0 -0.53,3.388 1.904,5.134c0,0 4.974,-1.165 7.991,-5.134l-9.895,0Z" style="fill:#e1251c;fill-rule:nonzero;"/><path d="M812.065,174.256c2.501,-2.659 13.81,4.932 13.81,4.932c0,0 0.019,0.019 0.045,0.042c-0.913,0.323 -2.325,0.94 -2.571,1.735c-0.369,1.189 0.662,2.38 0.504,3.492c-0.149,1.031 -2.624,2.889 2.064,4.547c-4.423,3.147 -9.741,4.814 -12.145,4.698c-2.461,-0.119 -2.341,-0.952 -1.667,-3.572c0.676,-2.619 3.432,-4.41 3.571,-6.509c0.119,-1.783 -6.016,-6.806 -3.611,-9.365" style="fill:#e1251c;fill-rule:nonzero;"/><path d="M908.478,184.706c0,0 0.462,-1.542 -1.386,-2.62c-1.851,-1.08 -15.691,-10.106 -39.185,-8.162c-21.004,1.737 -33.732,7.54 -36.867,7.224c-3.576,-0.362 -5.16,-1.976 -5.16,-1.976c0,0 0.019,0.018 0.044,0.044c-0.912,0.32 -2.322,0.938 -2.57,1.732c-0.369,1.192 0.662,2.381 0.504,3.493c-0.149,1.031 -2.62,2.886 2.057,4.544c0.107,-0.074 0.218,-0.141 0.323,-0.218c3.769,-2.768 11.46,-1.119 22.699,5.673c2.199,1.331 19.077,3.07 30.983,2.329c11.906,-0.74 19.26,-5.134 27.778,-9.579c0,0 0.794,-1.428 -0.211,-1.372c-1.006,0.051 -3.282,0.634 -3.282,0.634c0,0 0.293,-0.899 4.273,-1.746" style="fill:#042b49;fill-rule:nonzero;"/><path d="M891.454,192.271c0.318,-0.416 0.053,-0.53 -1.163,-0.794c-1.217,-0.263 -8.416,-0.581 -9.895,0c-1.482,0.582 0.954,3.114 2.7,3.536c1.747,0.423 8.04,-2.327 8.358,-2.742" style="fill:#e1251c;fill-rule:nonzero;"/><path d="M900.29,183.699c0,1.024 0.829,1.853 1.851,1.853c1.024,0 1.853,-0.829 1.853,-1.853c0,-1.022 -0.829,-1.851 -1.853,-1.851c-1.022,0 -1.851,0.829 -1.851,1.851" style="fill:#e1251c;fill-rule:nonzero;"/><path d="M901.283,183.699c0,0.476 0.385,0.861 0.859,0.861c0.476,0 0.861,-0.385 0.861,-0.861c0,-0.474 -0.385,-0.86 -0.861,-0.86c-0.474,0 -0.859,0.386 -0.859,0.86" style="fill:#042b49;fill-rule:nonzero;"/><path d="M894.205,180.102c-0.358,1.549 -0.581,2.169 -2.011,3.175c-1.428,1.005 -2.009,2.858 -1.798,3.915c0.212,1.059 0.37,2.292 4.972,4.665c0,0 0.697,0.392 1.319,0.845c-0.209,0.091 -0.418,0.179 -0.629,0.267c-0.685,-0.478 -1.744,-1.179 -2.912,-1.818c-2.009,-1.103 -3.49,-1.948 -3.332,-3.695c0.157,-1.746 0.211,-2.805 1.481,-4.126c1.27,-1.324 1.79,-0.725 2.222,-2.248c0.404,-1.426 -0.246,-2.84 2.822,-3.969c0.181,0.061 0.367,0.124 0.543,0.184c-0.922,0.221 -2.231,0.875 -2.677,2.805" style="fill:#e1251c;fill-rule:nonzero;"/></g><path d="M685.876,150.873c0,0 -3.597,-4.71 -8.148,-5.927l-7.25,5.293l3.174,1.85l12.224,-0.952" style="fill:#e1251c;fill-rule:nonzero;"/><path d="M655.927,155.265c0,0 -2.327,-2.275 -4.126,-2.275c-1.8,0 -1.958,0.687 -1.535,1.137c0.425,0.449 2.733,2.144 2.733,2.144l2.928,-1.006Z" style="fill:#e1251c;fill-rule:nonzero;"/><path d="M651.959,166.271l-3.49,1.693l4.019,4.709c0,0 3.121,-0.318 8.678,-1.853l-9.207,-4.549Z" style="fill:#e1251c;fill-rule:nonzero;"/><path d="M671.484,172.673c0,0 -0.529,3.385 1.904,5.132c0,0 4.974,-1.164 7.991,-5.132l-9.895,0Z" style="fill:#e1251c;fill-rule:nonzero;"/><path d="M623.791,151.165c2.501,-2.659 13.81,4.933 13.81,4.933c0,0 0.019,0.016 0.044,0.041c-0.913,0.323 -2.324,0.938 -2.571,1.735c-0.369,1.189 0.662,2.378 0.504,3.49c-0.148,1.034 -2.624,2.889 2.065,4.549c-4.424,3.147 -9.742,4.814 -12.145,4.698c-2.462,-0.121 -2.341,-0.952 -1.668,-3.571c0.676,-2.62 3.433,-4.41 3.572,-6.509c0.118,-1.784 -6.017,-6.807 -3.611,-9.366" style="fill:#e1251c;fill-rule:nonzero;"/><path d="M720.203,161.615c0,0 0.462,-1.542 -1.386,-2.619c-1.851,-1.08 -15.691,-10.107 -39.185,-8.165c-21.004,1.739 -33.732,7.542 -36.867,7.224c-3.576,-0.36 -5.159,-1.974 -5.159,-1.974c0,0 0.018,0.019 0.044,0.042c-0.913,0.323 -2.322,0.941 -2.571,1.735c-0.369,1.191 0.662,2.38 0.504,3.492c-0.149,1.031 -2.619,2.887 2.057,4.545c0.107,-0.077 0.219,-0.144 0.323,-0.221c3.769,-2.766 11.46,-1.117 22.7,5.676c2.199,1.328 19.076,3.07 30.982,2.326c11.906,-0.738 19.26,-5.132 27.778,-9.576c0,0 0.794,-1.428 -0.211,-1.375c-1.006,0.053 -3.281,0.634 -3.281,0.634c0,0 0.292,-0.899 4.272,-1.744" style="fill:#042b49;fill-rule:nonzero;"/><path d="M703.179,169.18c0.319,-0.415 0.054,-0.529 -1.163,-0.794c-1.217,-0.265 -8.416,-0.583 -9.895,0c-1.481,0.583 0.955,3.114 2.701,3.537c1.746,0.422 8.039,-2.327 8.357,-2.743" style="fill:#e1251c;fill-rule:nonzero;"/><path d="M712.016,160.608c0,1.022 0.829,1.853 1.851,1.853c1.024,0 1.853,-0.831 1.853,-1.853c0,-1.022 -0.829,-1.851 -1.853,-1.851c-1.022,0 -1.851,0.829 -1.851,1.851" style="fill:#e1251c;fill-rule:nonzero;"/><path d="M713.008,160.608c0,0.476 0.385,0.859 0.859,0.859c0.476,0 0.862,-0.383 0.862,-0.859c0,-0.474 -0.386,-0.859 -0.862,-0.859c-0.474,0 -0.859,0.385 -0.859,0.859" style="fill:#042b49;fill-rule:nonzero;"/><path d="M705.931,157.011c-0.357,1.549 -0.582,2.169 -2.011,3.175c-1.428,1.005 -2.011,2.856 -1.799,3.915c0.211,1.059 0.371,2.292 4.974,4.665c0,0 0.694,0.393 1.319,0.845c-0.209,0.091 -0.42,0.179 -0.632,0.268c-0.683,-0.479 -1.741,-1.18 -2.909,-1.821c-2.012,-1.101 -3.493,-1.946 -3.335,-3.692c0.16,-1.747 0.213,-2.806 1.484,-4.127c1.268,-1.324 1.788,-0.727 2.222,-2.25c0.404,-1.424 -0.246,-2.838 2.819,-3.966c0.184,0.06 0.367,0.123 0.546,0.183c-0.924,0.221 -2.234,0.873 -2.678,2.805" style="fill:#e1251c;fill-rule:nonzero;"/><g><path d="M422.042,160.678c0,0 -19.836,17.751 -15.138,28.712c4.698,10.963 31.719,14.216 66.294,-47.503l-51.156,18.791Z" style="fill:#042b49;fill-rule:nonzero;"/><path d="M58.203,62.541c0,0 17.036,-2.649 38.448,-11.42c1.993,-0.816 4.024,-1.686 6.083,-2.611c6.948,-3.123 14.615,-5.42 24.113,-7.37c47.563,-9.766 100.783,8.592 134.677,11.746c45.343,4.214 184.008,11.743 209.064,9.655c25.056,-2.085 94.745,-7.305 110.404,10.701c15.663,18.011 -68.904,94.745 -174.61,97.877c-105.706,3.131 -174.612,-33.669 -206.716,-47.764c-23.12,-10.151 -61.305,-33.1 -95.695,-43.342c-13.36,-3.978 -26.461,-5.516 -37.415,-4.421c0,0 -27.406,30.539 -66.556,35.237c0,0 17.226,-13.311 21.924,-29.757c4.698,-16.443 1.567,-23.489 1.567,-23.489l34.712,4.958Z" style="fill:#042b49;fill-rule:nonzero;"/><path d="M484.161,88.643c2.87,-4.438 20.881,-9.918 35.496,-8.873c14.616,1.043 13.262,5.134 10.455,11.002c-6.017,12.582 -39.166,13.009 -43.864,8.309c-4.698,-4.695 -4.958,-6.003 -2.087,-10.438" style="fill:#e8de82;fill-rule:nonzero;"/><path d="M322.339,0.423c5.35,-2.35 32.887,3.132 62.641,67.861l-65.774,-4.698c0,0 10.831,-18.138 10.831,-34.777c0,-16.641 -13.048,-26.036 -7.698,-28.386" style="fill:#042b49;fill-rule:nonzero;"/><g><clipPath id="_clip1"><path d="M126.847,41.14c-8.181,0.146 -16.162,1.315 -23.614,3.033l0,36.347c34.48,10.192 73.232,32.65 96.433,42.835c32.104,14.095 101.011,50.895 206.716,47.765c105.706,-3.133 190.271,-79.867 174.61,-97.878c-15.659,-18.006 -85.347,-12.786 -110.404,-10.701c-25.054,2.088 -163.721,-5.44 -209.063,-9.655c-32.414,-3.017 -81.602,-11.802 -128.294,-11.802c-2.134,0 -4.261,0.019 -6.384,0.056Z" clip-rule="nonzero"/></clipPath><g clip-path="url(#_clip1)"><path d="M490.686,139.538c7.41,-14.465 18.752,-32.078 41.219,-40.457c22.464,-8.374 43.868,-8.336 54.309,-8.343c10.44,-0.01 -1.045,19.046 -1.045,19.046l-75.952,54.288c0,0 -25.941,-10.069 -18.531,-24.534" style="fill:#e8de82;fill-rule:nonzero;"/><path d="M188.183,96.474c12.006,-5.736 45.937,-9.918 72.559,12.528c26.621,22.446 30.277,54.141 58.466,62.306l-50.636,-7.236c0,0 0.523,-16.963 -14.878,-27.926c-15.398,-10.963 -77.517,-33.939 -65.511,-39.672" style="fill:#e8de82;fill-rule:nonzero;"/><path d="M325.396,70.02c0.012,6.096 -5.806,8.128 -7.837,10.74c-2.032,2.613 3.483,21.771 -2.032,13.933c-5.516,-7.837 -24.093,-36.574 -58.055,-50.797c0,0 19.887,-1.531 45.283,8.998c13.389,5.552 22.627,10.027 22.641,17.126" style="fill:#e8de82;fill-rule:nonzero;"/></g></g><path d="M499.269,140.228c4.826,5.805 1.408,32.192 -4.173,43.12c-5.582,10.931 -26.073,35.794 -36.514,37.362c-10.44,1.565 -16.183,-5.22 -17.226,-14.616c-1.044,-9.398 7.308,-57.943 7.308,-57.943c0,0 45.78,-13.731 50.605,-7.923" style="fill:#042b49;fill-rule:nonzero;"/></g><path d="M595.329,36.104l61.645,0" style="fill:none;stroke:#e8de82;stroke-width:8.33px;"/><path d="M595.329,207.167l61.645,0" style="fill:none;stroke:#e8de82;stroke-width:8.33px;"/><path d="M550.666,15.354l70.413,0" style="fill:none;stroke:#e8de82;stroke-width:8.33px;"/><path d="M518.697,15.354l19.723,0" style="fill:none;stroke:#e8de82;stroke-width:8.33px;"/><path d="M567.958,191.864l50.219,0" style="fill:none;stroke:#e8de82;stroke-width:8.33px;"/><path d="M535.989,191.864l19.722,0" style="fill:none;stroke:#e8de82;stroke-width:8.33px;"/><path d="M605.211,120.004l11.648,0" style="fill:none;stroke:#e8de82;stroke-width:8.33px;"/><path d="M626.661,120.004l43.195,0" style="fill:none;stroke:#e8de82;stroke-width:8.33px;"/><path d="M853.393,71.936c0,0 -3.599,-4.709 -8.148,-5.928l-7.25,5.295l3.174,1.848l12.224,-0.952" style="fill:#e1251c;fill-rule:nonzero;"/><path d="M823.444,76.327c0,0 -2.327,-2.274 -4.126,-2.274c-1.8,0 -1.96,0.685 -1.535,1.138c0.422,0.448 2.733,2.144 2.733,2.144l2.928,-1.008Z" style="fill:#e1251c;fill-rule:nonzero;"/><path d="M819.476,87.332l-3.493,1.693l4.022,4.712c0,0 3.121,-0.318 8.678,-1.853l-9.207,-4.552Z" style="fill:#e1251c;fill-rule:nonzero;"/><path d="M839.001,93.736c0,0 -0.529,3.386 1.904,5.132c0,0 4.974,-1.163 7.991,-5.132l-9.895,0Z" style="fill:#e1251c;fill-rule:nonzero;"/><path d="M791.307,72.229c2.501,-2.661 13.81,4.93 13.81,4.93c0,0 0.018,0.019 0.044,0.044c-0.913,0.321 -2.322,0.938 -2.571,1.733c-0.369,1.189 0.662,2.38 0.504,3.492c-0.148,1.033 -2.624,2.889 2.065,4.547c-4.424,3.147 -9.742,4.816 -12.145,4.7c-2.462,-0.121 -2.341,-0.952 -1.668,-3.571c0.676,-2.62 3.432,-4.413 3.572,-6.51c0.118,-1.785 -6.017,-6.808 -3.611,-9.365" style="fill:#e1251c;fill-rule:nonzero;"/><path d="M887.72,82.677c0,0 0.462,-1.54 -1.386,-2.62c-1.851,-1.08 -15.691,-10.104 -39.185,-8.162c-21.004,1.739 -33.732,7.54 -36.867,7.224c-3.576,-0.362 -5.159,-1.974 -5.159,-1.974c0,0 0.016,0.016 0.044,0.042c-0.913,0.323 -2.325,0.938 -2.571,1.732c-0.369,1.194 0.662,2.381 0.504,3.493c-0.149,1.033 -2.619,2.886 2.055,4.544c0.107,-0.074 0.221,-0.141 0.325,-0.218c3.769,-2.766 11.46,-1.119 22.7,5.673c2.196,1.331 19.074,3.072 30.98,2.329c11.906,-0.74 19.26,-5.132 27.78,-9.576c0,0 0.794,-1.429 -0.211,-1.375c-1.006,0.051 -3.282,0.634 -3.282,0.634c0,0 0.291,-0.899 4.273,-1.746" style="fill:#042b49;fill-rule:nonzero;"/><path d="M870.695,90.244c0.318,-0.416 0.054,-0.532 -1.163,-0.794c-1.217,-0.265 -8.413,-0.583 -9.895,0c-1.482,0.58 0.957,3.112 2.701,3.537c1.746,0.42 8.039,-2.327 8.357,-2.743" style="fill:#e1251c;fill-rule:nonzero;"/><path d="M879.532,81.672c0,1.022 0.829,1.851 1.853,1.851c1.021,0 1.85,-0.829 1.85,-1.851c0,-1.022 -0.829,-1.853 -1.85,-1.853c-1.024,0 -1.853,0.831 -1.853,1.853" style="fill:#e1251c;fill-rule:nonzero;"/><path d="M880.524,81.672c0,0.474 0.385,0.859 0.861,0.859c0.474,0 0.859,-0.385 0.859,-0.859c0,-0.476 -0.385,-0.859 -0.859,-0.859c-0.476,0 -0.861,0.383 -0.861,0.859" style="fill:#042b49;fill-rule:nonzero;"/><path d="M873.447,78.073c-0.357,1.551 -0.58,2.171 -2.011,3.175c-1.428,1.005 -2.011,2.858 -1.799,3.917c0.213,1.057 0.371,2.29 4.974,4.663c0,0 0.694,0.395 1.319,0.848c-0.209,0.088 -0.421,0.176 -0.632,0.264c-0.683,-0.476 -1.742,-1.179 -2.91,-1.818c-2.011,-1.101 -3.49,-1.948 -3.332,-3.695c0.158,-1.746 0.211,-2.802 1.482,-4.126c1.267,-1.324 1.788,-0.725 2.222,-2.248c0.404,-1.423 -0.246,-2.84 2.819,-3.966c0.183,0.06 0.369,0.121 0.546,0.183c-0.925,0.218 -2.232,0.873 -2.678,2.803" style="fill:#e1251c;fill-rule:nonzero;"/></g></svg>