<?xml version="1.0" encoding="UTF-8" standalone="no"?><!DOCTYPE svg PUBLIC "-//W3C//DTD SVG 1.1//EN" "http://www.w3.org/Graphics/SVG/1.1/DTD/svg11.dtd"><svg width="100%" height="100%" viewBox="0 0 957 320" version="1.1" xmlns="http://www.w3.org/2000/svg" xmlns:xlink="http://www.w3.org/1999/xlink" xml:space="preserve" xmlns:serif="http://www.serif.com/" style="fill-rule:evenodd;clip-rule:evenodd;stroke-linejoin:round;stroke-miterlimit:1.41421;"><g><g><circle cx="20.639" cy="132.956" r="11.852" style="fill:#e22725;"/><circle cx="53.46" cy="132.956" r="11.852" style="fill:#e22725;"/><circle cx="19.12" cy="307.699" r="11.852" style="fill:#dc98cb;"/><circle cx="51.941" cy="307.699" r="11.852" style="fill:#dc98cb;"/><circle cx="19.12" cy="202.853" r="11.852" style="fill:#84c7bb;"/><circle cx="19.12" cy="202.853" r="11.852" style="fill:#53b4a6;"/><circle cx="51.941" cy="202.853" r="11.852" style="fill:#53b4a6;"/><circle cx="19.12" cy="239.321" r="11.852" style="fill:#052b48;"/><circle cx="51.941" cy="239.321" r="11.852" style="fill:#052b48;"/><circle cx="248.944" cy="166.385" r="11.852" style="fill:#e8de82;"/><circle cx="20.639" cy="166.385" r="11.852" style="fill:#e8de82;"/><circle cx="53.46" cy="166.385" r="11.852" style="fill:#e8de82;"/><circle cx="86.281" cy="166.385" r="11.852" style="fill:#e8de82;"/><circle cx="119.103" cy="166.385" r="11.852" style="fill:#e8de82;"/><circle cx="151.164" cy="166.385" r="11.852" style="fill:#e8de82;"/><circle cx="19.12" cy="272.75" r="11.852" style="fill:#00a7e0;"/><circle cx="51.941" cy="272.75" r="11.852" style="fill:#00a7e0;"/><circle cx="84.762" cy="272.75" r="11.852" style="fill:#00a7e0;"/><circle cx="117.583" cy="272.75" r="11.852" style="fill:#00a7e0;"/><circle cx="149.644" cy="272.75" r="11.852" style="fill:#00a7e0;"/><circle cx="184.821" cy="166.385" r="11.852" style="fill:#e8de82;"/><circle cx="216.882" cy="166.385" r="11.852" style="fill:#e8de82;"/><text x="16.203px" y="168.528px" style="font-family:'OpenSans-Regular', 'Open Sans', sans-serif;font-size:7.993px;fill:#052b48;">J31</text><text x="48.33px" y="168.528px" style="font-family:'OpenSans-Regular', 'Open Sans', sans-serif;font-size:7.993px;fill:#052b48;">J40</text><text x="81.151px" y="168.528px" style="font-family:'OpenSans-Regular', 'Open Sans', sans-serif;font-size:7.993px;fill:#052b48;">J36</text><text x="113.992px" y="168.528px" style="font-family:'OpenSans-Regular', 'Open Sans', sans-serif;font-size:7.993px;fill:#052b48;">J42</text><text x="146.053px" y="168.528px" style="font-family:'OpenSans-Regular', 'Open Sans', sans-serif;font-size:7.993px;fill:#052b48;">J41</text><text x="179.71px" y="168.528px" style="font-family:'OpenSans-Regular', 'Open Sans', sans-serif;font-size:7.993px;fill:#052b48;">J22</text><text x="211.771px" y="168.579px" style="font-family:'OpenSans-Regular', 'Open Sans', sans-serif;font-size:7.993px;fill:#052b48;">J22</text><text x="243.833px" y="168.579px" style="font-family:'OpenSans-Regular', 'Open Sans', sans-serif;font-size:7.993px;fill:#052b48;">J35</text><text x="8.757px" y="103.493px" style="font-family:'Raleway-Black', 'Raleway', sans-serif;font-weight:900;font-size:30px;fill:#fff;">J</text><text x="15.509px" y="135.099px" style="font-family:'OpenSans-Regular', 'Open Sans', sans-serif;font-size:7.993px;fill:#fff;">J16</text><text x="48.338px" y="135.099px" style="font-family:'OpenSans-Regular', 'Open Sans', sans-serif;font-size:7.993px;fill:#fff;">J17</text><text x="14.001px" y="204.996px" style="font-family:'OpenSans-Regular', 'Open Sans', sans-serif;font-size:7.993px;fill:#fff;">J38</text><text x="14.001px" y="241.464px" style="font-family:'OpenSans-Regular', 'Open Sans', sans-serif;font-size:7.993px;fill:#fff;">J26</text><text x="13.989px" y="274.893px" style="font-family:'OpenSans-Regular', 'Open Sans', sans-serif;font-size:7.993px;fill:#fff;">J45</text><text x="13.989px" y="309.841px" style="font-family:'OpenSans-Regular', 'Open Sans', sans-serif;font-size:7.993px;fill:#fff;">J46</text><text x="46.849px" y="309.841px" style="font-family:'OpenSans-Regular', 'Open Sans', sans-serif;font-size:7.993px;fill:#fff;">J53</text><text x="46.83px" y="204.996px" style="font-family:'OpenSans-Regular', 'Open Sans', sans-serif;font-size:7.993px;fill:#fff;">J39</text><text x="46.83px" y="241.464px" style="font-family:'OpenSans-Regular', 'Open Sans', sans-serif;font-size:7.993px;fill:#fff;">J27</text><text x="46.818px" y="274.893px" style="font-family:'OpenSans-Regular', 'Open Sans', sans-serif;font-size:7.993px;fill:#fff;">J49</text><text x="79.651px" y="274.944px" style="font-family:'OpenSans-Regular', 'Open Sans', sans-serif;font-size:7.993px;fill:#fff;">J51</text><text x="112.338px" y="274.944px" style="font-family:'OpenSans-Regular', 'Open Sans', sans-serif;font-size:7.993px;fill:#fff;">J44</text><text x="144.522px" y="274.975px" style="font-family:'OpenSans-Regular', 'Open Sans', sans-serif;font-size:7.993px;fill:#fff;">J47</text></g><g><circle cx="412.473" cy="132.956" r="11.852" style="fill:#e22725;"/><circle cx="445.294" cy="132.956" r="11.852" style="fill:#e22725;"/><circle cx="410.953" cy="307.699" r="11.852" style="fill:#dc98cb;"/><circle cx="410.953" cy="202.853" r="11.852" style="fill:#53b4a6;"/><circle cx="443.774" cy="202.853" r="11.852" style="fill:#53b4a6;"/><circle cx="410.953" cy="239.321" r="11.852" style="fill:#052b48;"/><circle cx="443.774" cy="239.321" r="11.852" style="fill:#052b48;"/><circle cx="412.473" cy="166.385" r="11.852" style="fill:#e8de82;"/><circle cx="445.294" cy="166.385" r="11.852" style="fill:#e8de82;"/><circle cx="478.115" cy="166.385" r="11.852" style="fill:#e8de82;"/><circle cx="510.936" cy="166.385" r="11.852" style="fill:#e8de82;"/><circle cx="542.998" cy="166.385" r="11.852" style="fill:#e8de82;"/><circle cx="410.953" cy="272.75" r="11.852" style="fill:#00a7e0;"/><circle cx="443.774" cy="272.75" r="11.852" style="fill:#00a7e0;"/><circle cx="476.596" cy="202.853" r="11.852" style="fill:#53b4a6;"/><circle cx="476.596" cy="239.321" r="11.852" style="fill:#052b48;"/><circle cx="509.417" cy="239.321" r="11.852" style="fill:#052b48;"/><text x="398.791px" y="103.493px" style="font-family:'Raleway-Black', 'Raleway', sans-serif;font-weight:900;font-size:30px;fill:#fff;">K</text><text x="405.272px" y="135.85px" style="font-family:'OpenSans-Regular', 'Open Sans', sans-serif;font-size:7.993px;fill:#fff;">K12</text><text x="405.272px" y="169.279px" style="font-family:'OpenSans-Regular', 'Open Sans', sans-serif;font-size:7.993px;fill:#052b48;">K22</text><text x="403.741px" y="205.708px" style="font-family:'OpenSans-Regular', 'Open Sans', sans-serif;font-size:7.993px;fill:#fff;">K37</text><text x="403.772px" y="242.571px" style="font-family:'OpenSans-Regular', 'Open Sans', sans-serif;font-size:7.993px;fill:#fff;">K33</text><text x="403.618px" y="275.619px" style="font-family:'OpenSans-Regular', 'Open Sans', sans-serif;font-size:7.993px;fill:#fff;">K44</text><text x="403.618px" y="310.554px" style="font-family:'OpenSans-Regular', 'Open Sans', sans-serif;font-size:7.993px;fill:#fff;">K43</text><text x="436.566px" y="205.708px" style="font-family:'OpenSans-Regular', 'Open Sans', sans-serif;font-size:7.993px;fill:#fff;">K38</text><text x="469.41px" y="205.708px" style="font-family:'OpenSans-Regular', 'Open Sans', sans-serif;font-size:7.993px;fill:#fff;">K35</text><text x="436.589px" y="242.176px" style="font-family:'OpenSans-Regular', 'Open Sans', sans-serif;font-size:7.993px;fill:#fff;">K25</text><text x="469.26px" y="242.098px" style="font-family:'OpenSans-Regular', 'Open Sans', sans-serif;font-size:7.993px;fill:#fff;">K34</text><text x="502.891px" y="242.176px" style="font-family:'OpenSans-Regular', 'Open Sans', sans-serif;font-size:7.993px;fill:#fff;">K21</text><text x="436.574px" y="275.67px" style="font-family:'OpenSans-Regular', 'Open Sans', sans-serif;font-size:7.993px;fill:#fff;">K42</text><text x="438.077px" y="169.287px" style="font-family:'OpenSans-Regular', 'Open Sans', sans-serif;font-size:7.993px;fill:#052b48;">K20</text><text x="470.902px" y="169.279px" style="font-family:'OpenSans-Regular', 'Open Sans', sans-serif;font-size:7.993px;fill:#052b48;">K27</text><text x="504.139px" y="169.201px" style="font-family:'OpenSans-Regular', 'Open Sans', sans-serif;font-size:7.993px;fill:#052b48;">K36</text><text x="535.777px" y="169.201px" style="font-family:'OpenSans-Regular', 'Open Sans', sans-serif;font-size:7.993px;fill:#052b48;">K16</text><text x="437.958px" y="135.8px" style="font-family:'OpenSans-Regular', 'Open Sans', sans-serif;font-size:7.993px;fill:#fff;">K14</text></g><g><circle cx="684.451" cy="132.956" r="11.852" style="fill:#e22725;"/><circle cx="717.272" cy="132.956" r="11.852" style="fill:#e22725;"/><circle cx="682.932" cy="307.699" r="11.852" style="fill:#dc98cb;"/><circle cx="715.753" cy="307.699" r="11.852" style="fill:#dc98cb;"/><circle cx="682.932" cy="202.853" r="11.852" style="fill:#53b4a6;"/><circle cx="715.753" cy="202.853" r="11.852" style="fill:#53b4a6;"/><circle cx="682.932" cy="239.321" r="11.852" style="fill:#052b48;"/><circle cx="715.753" cy="239.321" r="11.852" style="fill:#052b48;"/><circle cx="912.756" cy="166.385" r="11.852" style="fill:#e8de82;"/><circle cx="684.451" cy="166.385" r="11.852" style="fill:#e8de82;"/><circle cx="717.272" cy="166.385" r="11.852" style="fill:#e8de82;"/><circle cx="750.093" cy="166.385" r="11.852" style="fill:#e8de82;"/><circle cx="782.914" cy="166.385" r="11.852" style="fill:#e8de82;"/><circle cx="814.976" cy="166.385" r="11.852" style="fill:#e8de82;"/><circle cx="682.932" cy="272.75" r="11.852" style="fill:#00a7e0;"/><circle cx="715.753" cy="272.75" r="11.852" style="fill:#00a7e0;"/><circle cx="748.574" cy="272.75" r="11.852" style="fill:#00a7e0;"/><circle cx="781.395" cy="272.75" r="11.852" style="fill:#00a7e0;"/><circle cx="813.456" cy="272.75" r="11.852" style="fill:#00a7e0;"/><circle cx="848.633" cy="166.385" r="11.852" style="fill:#e8de82;"/><circle cx="880.694" cy="166.385" r="11.852" style="fill:#e8de82;"/><circle cx="748.574" cy="307.699" r="11.852" style="fill:#dc98cb;"/><circle cx="748.574" cy="202.853" r="11.852" style="fill:#53b4a6;"/><circle cx="781.395" cy="202.853" r="11.852" style="fill:#53b4a6;"/><circle cx="814.216" cy="202.853" r="11.852" style="fill:#53b4a6;"/><circle cx="748.574" cy="239.321" r="11.852" style="fill:#052b48;"/><circle cx="781.395" cy="239.321" r="11.852" style="fill:#052b48;"/><circle cx="814.216" cy="239.321" r="11.852" style="fill:#052b48;"/><circle cx="847.037" cy="239.321" r="11.852" style="fill:#052b48;"/><circle cx="847.049" cy="272.75" r="11.852" style="fill:#00a7e0;"/><circle cx="944.786" cy="166.436" r="11.852" style="fill:#e8de82;"/><circle cx="750.093" cy="134.987" r="11.852" style="fill:#e22725;"/><circle cx="782.914" cy="134.987" r="11.852" style="fill:#e22725;"/><circle cx="815.72" cy="135.028" r="11.852" style="fill:#e22725;"/><text x="670.769px" y="103.493px" style="font-family:'Raleway-Black', 'Raleway', sans-serif;font-weight:900;font-size:30px;fill:#fff;">L</text><text x="677.629px" y="135.85px" style="font-family:'OpenSans-Regular', 'Open Sans', sans-serif;font-size:7.993px;fill:#fff;">L22</text><text x="677.617px" y="169.238px" style="font-family:'OpenSans-Regular', 'Open Sans', sans-serif;font-size:7.993px;fill:#052b48;">L77</text><text x="673.838px" y="205.712px" style="font-family:'OpenSans-Regular', 'Open Sans', sans-serif;font-size:7.993px;fill:#fff;">L106</text><text x="676.784px" y="242.19px" style="font-family:'OpenSans-Regular', 'Open Sans', sans-serif;font-size:7.993px;fill:#fff;">L41</text><text x="674.499px" y="275.644px" style="font-family:'OpenSans-Regular', 'Open Sans', sans-serif;font-size:7.993px;fill:#fff;">L121</text><text x="673.843px" y="310.554px" style="font-family:'OpenSans-Regular', 'Open Sans', sans-serif;font-size:7.993px;fill:#fff;">L113</text><text x="706.645px" y="310.554px" style="font-family:'OpenSans-Regular', 'Open Sans', sans-serif;font-size:7.993px;fill:#fff;">L119</text><text x="739.459px" y="310.554px" style="font-family:'OpenSans-Regular', 'Open Sans', sans-serif;font-size:7.993px;fill:#fff;">L118</text><text x="706.645px" y="205.712px" style="font-family:'OpenSans-Regular', 'Open Sans', sans-serif;font-size:7.993px;fill:#fff;">L109</text><text x="739.482px" y="205.712px" style="font-family:'OpenSans-Regular', 'Open Sans', sans-serif;font-size:7.993px;fill:#fff;">L105</text><text x="772.272px" y="205.712px" style="font-family:'OpenSans-Regular', 'Open Sans', sans-serif;font-size:7.993px;fill:#fff;">L110</text><text x="805.109px" y="205.712px" style="font-family:'OpenSans-Regular', 'Open Sans', sans-serif;font-size:7.993px;fill:#fff;">L108</text><text x="708.93px" y="241.464px" style="font-family:'OpenSans-Regular', 'Open Sans', sans-serif;font-size:7.993px;fill:#fff;">L89</text><text x="741.74px" y="242.112px" style="font-family:'OpenSans-Regular', 'Open Sans', sans-serif;font-size:7.993px;fill:#fff;">L87</text><text x="774.588px" y="241.464px" style="font-family:'OpenSans-Regular', 'Open Sans', sans-serif;font-size:7.993px;fill:#fff;">L85</text><text x="807.259px" y="241.464px" style="font-family:'OpenSans-Regular', 'Open Sans', sans-serif;font-size:7.993px;fill:#fff;">L84</text><text x="840.207px" y="242.176px" style="font-family:'OpenSans-Regular', 'Open Sans', sans-serif;font-size:7.993px;fill:#fff;">L88</text><text x="706.626px" y="274.977px" style="font-family:'OpenSans-Regular', 'Open Sans', sans-serif;font-size:7.993px;fill:#fff;">L116</text><text x="739.486px" y="274.977px" style="font-family:'OpenSans-Regular', 'Open Sans', sans-serif;font-size:7.993px;fill:#fff;">L123</text><text x="772.303px" y="274.977px" style="font-family:'OpenSans-Regular', 'Open Sans', sans-serif;font-size:7.993px;fill:#fff;">L115</text><text x="804.349px" y="275.644px" style="font-family:'OpenSans-Regular', 'Open Sans', sans-serif;font-size:7.993px;fill:#fff;">L122</text><text x="837.93px" y="275.055px" style="font-family:'OpenSans-Regular', 'Open Sans', sans-serif;font-size:7.993px;fill:#fff;">L117</text><text x="710.315px" y="169.16px" style="font-family:'OpenSans-Regular', 'Open Sans', sans-serif;font-size:7.993px;fill:#052b48;">L94</text><text x="743.271px" y="169.16px" style="font-family:'OpenSans-Regular', 'Open Sans', sans-serif;font-size:7.993px;fill:#052b48;">L82</text><text x="776.073px" y="169.32px" style="font-family:'OpenSans-Regular', 'Open Sans', sans-serif;font-size:7.993px;fill:#052b48;">L86</text><text x="805.888px" y="169.328px" style="font-family:'OpenSans-Regular', 'Open Sans', sans-serif;font-size:7.993px;fill:#052b48;">L103</text><text x="841.795px" y="169.328px" style="font-family:'OpenSans-Regular', 'Open Sans', sans-serif;font-size:7.993px;fill:#052b48;">L90</text><text x="873.872px" y="169.279px" style="font-family:'OpenSans-Regular', 'Open Sans', sans-serif;font-size:7.993px;fill:#052b48;">L72</text><text x="905.953px" y="169.201px" style="font-family:'OpenSans-Regular', 'Open Sans', sans-serif;font-size:7.993px;fill:#052b48;">L83</text><text x="938.639px" y="169.24px" style="font-family:'OpenSans-Regular', 'Open Sans', sans-serif;font-size:7.993px;fill:#052b48;">L91</text><text x="710.465px" y="135.772px" style="font-family:'OpenSans-Regular', 'Open Sans', sans-serif;font-size:7.993px;fill:#fff;">L25</text><text x="743.287px" y="137.14px" style="font-family:'OpenSans-Regular', 'Open Sans', sans-serif;font-size:7.993px;fill:#fff;">L55</text><text x="776.08px" y="137.856px" style="font-family:'OpenSans-Regular', 'Open Sans', sans-serif;font-size:7.993px;fill:#fff;">L47</text><text x="808.929px" y="137.778px" style="font-family:'OpenSans-Regular', 'Open Sans', sans-serif;font-size:7.993px;fill:#fff;">L54</text></g><circle cx="12.485" cy="14.39" r="12.485" style="fill:#e22725;"/><g transform="matrix(0.363304,0,0,0.363304,-7088.27,-4078.91)"><text x="19605.3px" y="11256.1px" style="font-family:'OpenSans-Regular', 'Open Sans', sans-serif;font-size:37.693px;fill:#fff;">Post-r<tspan x="19708.8px 19729.9px 19753px 19767.6px 19790.4px " y="11256.1px 11256.1px 11256.1px 11256.1px 11256.1px ">eprod</tspan>uctive female</text><text x="19605.3px" y="11300.1px" style="font-family:'OpenSans-Regular', 'Open Sans', sans-serif;font-size:37.693px;fill:#fff;">(age 42 and up)</text></g><circle cx="413.033" cy="14.427" r="12.485" style="fill:#53b4a6;"/><g transform="matrix(0.496677,0,0,0.496677,-9304.32,-5580.21)"><text x="19605.3px" y="11256.1px" style="font-family:'OpenSans-Regular', 'Open Sans', sans-serif;font-size:27.571px;fill:#fff;">Spr<tspan x="19648px 19664.6px " y="11256.1px 11256.1px ">ou</tspan>ting male</text><text x="19605.3px" y="11288.3px" style="font-family:'OpenSans-Regular', 'Open Sans', sans-serif;font-size:27.571px;fill:#fff;">(age 11-17)</text></g><circle cx="563.824" cy="14.427" r="12.485" style="fill:#052b48;"/><g transform="matrix(0.496677,0,0,0.496677,-9152.98,-5578.63)"><text x="19605.3px" y="11256.1px" style="font-family:'OpenSans-Regular', 'Open Sans', sans-serif;font-size:27.571px;fill:#fff;">Adult male</text><text x="19605.3px" y="11288.3px" style="font-family:'OpenSans-Regular', 'Open Sans', sans-serif;font-size:27.571px;fill:#fff;">(age 18 &amp; up)</text></g><circle cx="227.9" cy="14.39" r="12.485" style="fill:#e8de82;"/><g transform="matrix(0.496677,0,0,0.496677,-9489.45,-5580.17)"><text x="19605.3px" y="11256.1px" style="font-family:'OpenSans-Regular', 'Open Sans', sans-serif;font-size:27.571px;fill:#fff;">Repr<tspan x="19665.4px 19682px " y="11256.1px 11256.1px ">od</tspan>uctive female</text><text x="19605.3px" y="11288.3px" style="font-family:'OpenSans-Regular', 'Open Sans', sans-serif;font-size:27.571px;fill:#fff;">(age 11-41)</text></g><circle cx="837.797" cy="15.34" r="12.485" style="fill:#dc98cb;"/><g transform="matrix(0.496677,0,0,0.496677,-8877.14,-5579.22)"><text x="19605.3px" y="11256.1px" style="font-family:'OpenSans-Regular', 'Open Sans', sans-serif;font-size:27.571px;fill:#fff;">Juvenile female</text><text x="19605.3px" y="11288.3px" style="font-family:'OpenSans-Regular', 'Open Sans', sans-serif;font-size:27.571px;fill:#fff;">(age 0-17)</text></g><circle cx="697.872" cy="15.377" r="12.485" style="fill:#00a7e0;"/><g transform="matrix(0.496677,0,0,0.496677,-9017.06,-5579.26)"><text x="19605.3px" y="11256.1px" style="font-family:'OpenSans-Regular', 'Open Sans', sans-serif;font-size:27.571px;fill:#fff;">Juvenile male</text><text x="19605.3px" y="11288.3px" style="font-family:'OpenSans-Regular', 'Open Sans', sans-serif;font-size:27.571px;fill:#fff;">(age 0-17)</text></g></g></svg>