<?xml version="1.0" encoding="UTF-8" standalone="no"?><!DOCTYPE svg PUBLIC "-//W3C//DTD SVG 1.1//EN" "http://www.w3.org/Graphics/SVG/1.1/DTD/svg11.dtd"><svg width="100%" height="100%" viewBox="0 0 532 643" version="1.1" xmlns="http://www.w3.org/2000/svg" xmlns:xlink="http://www.w3.org/1999/xlink" xml:space="preserve" xmlns:serif="http://www.serif.com/" style="fill-rule:evenodd;clip-rule:evenodd;stroke-linejoin:round;stroke-miterlimit:1.41421;"><g><g><circle cx="13.372" cy="176.079" r="11.852" style="fill:#e22725;"/><circle cx="46.193" cy="176.079" r="11.852" style="fill:#e22725;"/><circle cx="11.852" cy="350.821" r="11.852" style="fill:#dc98cb;"/><circle cx="44.673" cy="350.821" r="11.852" style="fill:#dc98cb;"/><circle cx="11.852" cy="245.975" r="11.852" style="fill:#84c7bb;"/><circle cx="11.852" cy="245.975" r="11.852" style="fill:#53b4a6;"/><circle cx="44.673" cy="245.975" r="11.852" style="fill:#53b4a6;"/><circle cx="11.852" cy="282.443" r="11.852" style="fill:#052b48;"/><circle cx="44.673" cy="282.443" r="11.852" style="fill:#052b48;"/><circle cx="241.676" cy="209.508" r="11.852" style="fill:#e8de82;"/><circle cx="13.372" cy="209.508" r="11.852" style="fill:#e8de82;"/><circle cx="46.193" cy="209.508" r="11.852" style="fill:#e8de82;"/><circle cx="79.014" cy="209.508" r="11.852" style="fill:#e8de82;"/><circle cx="111.835" cy="209.508" r="11.852" style="fill:#e8de82;"/><circle cx="143.896" cy="209.508" r="11.852" style="fill:#e8de82;"/><circle cx="11.852" cy="315.872" r="11.852" style="fill:#00a7e0;"/><circle cx="44.673" cy="315.872" r="11.852" style="fill:#00a7e0;"/><circle cx="77.494" cy="315.872" r="11.852" style="fill:#00a7e0;"/><circle cx="110.316" cy="315.872" r="11.852" style="fill:#00a7e0;"/><circle cx="142.377" cy="315.872" r="11.852" style="fill:#00a7e0;"/><circle cx="177.553" cy="209.508" r="11.852" style="fill:#e8de82;"/><circle cx="209.615" cy="209.508" r="11.852" style="fill:#e8de82;"/><text x="8.936px" y="211.65px" style="font-family:'OpenSans-Regular', 'Open Sans', sans-serif;font-size:7.993px;fill:#052b48;">J31</text><text x="41.062px" y="211.65px" style="font-family:'OpenSans-Regular', 'Open Sans', sans-serif;font-size:7.993px;fill:#052b48;">J40</text><text x="73.883px" y="211.65px" style="font-family:'OpenSans-Regular', 'Open Sans', sans-serif;font-size:7.993px;fill:#052b48;">J36</text><text x="106.724px" y="211.65px" style="font-family:'OpenSans-Regular', 'Open Sans', sans-serif;font-size:7.993px;fill:#052b48;">J42</text><text x="138.786px" y="211.65px" style="font-family:'OpenSans-Regular', 'Open Sans', sans-serif;font-size:7.993px;fill:#052b48;">J41</text><text x="172.442px" y="211.65px" style="font-family:'OpenSans-Regular', 'Open Sans', sans-serif;font-size:7.993px;fill:#052b48;">J22</text><text x="204.504px" y="211.701px" style="font-family:'OpenSans-Regular', 'Open Sans', sans-serif;font-size:7.993px;fill:#052b48;">J22</text><text x="236.565px" y="211.701px" style="font-family:'OpenSans-Regular', 'Open Sans', sans-serif;font-size:7.993px;fill:#052b48;">J35</text><text x="1.489px" y="146.615px" style="font-family:'Raleway-Black', 'Raleway', sans-serif;font-weight:900;font-size:30px;fill:#fff;">J</text><text x="8.241px" y="178.221px" style="font-family:'OpenSans-Regular', 'Open Sans', sans-serif;font-size:7.993px;fill:#fff;">J16</text><text x="41.07px" y="178.221px" style="font-family:'OpenSans-Regular', 'Open Sans', sans-serif;font-size:7.993px;fill:#fff;">J17</text><text x="6.733px" y="248.118px" style="font-family:'OpenSans-Regular', 'Open Sans', sans-serif;font-size:7.993px;fill:#fff;">J38</text><text x="6.733px" y="284.586px" style="font-family:'OpenSans-Regular', 'Open Sans', sans-serif;font-size:7.993px;fill:#fff;">J26</text><text x="6.722px" y="318.015px" style="font-family:'OpenSans-Regular', 'Open Sans', sans-serif;font-size:7.993px;fill:#fff;">J45</text><text x="6.722px" y="352.964px" style="font-family:'OpenSans-Regular', 'Open Sans', sans-serif;font-size:7.993px;fill:#fff;">J46</text><text x="39.582px" y="352.964px" style="font-family:'OpenSans-Regular', 'Open Sans', sans-serif;font-size:7.993px;fill:#fff;">J53</text><text x="39.562px" y="248.118px" style="font-family:'OpenSans-Regular', 'Open Sans', sans-serif;font-size:7.993px;fill:#fff;">J39</text><text x="39.562px" y="284.586px" style="font-family:'OpenSans-Regular', 'Open Sans', sans-serif;font-size:7.993px;fill:#fff;">J27</text><text x="39.551px" y="318.015px" style="font-family:'OpenSans-Regular', 'Open Sans', sans-serif;font-size:7.993px;fill:#fff;">J49</text><text x="72.384px" y="318.066px" style="font-family:'OpenSans-Regular', 'Open Sans', sans-serif;font-size:7.993px;fill:#fff;">J51</text><text x="105.07px" y="318.066px" style="font-family:'OpenSans-Regular', 'Open Sans', sans-serif;font-size:7.993px;fill:#fff;">J44</text><text x="137.254px" y="318.097px" style="font-family:'OpenSans-Regular', 'Open Sans', sans-serif;font-size:7.993px;fill:#fff;">J47</text></g><g><circle cx="389.497" cy="176.079" r="11.852" style="fill:#e22725;"/><circle cx="422.318" cy="176.079" r="11.852" style="fill:#e22725;"/><circle cx="387.977" cy="350.821" r="11.852" style="fill:#dc98cb;"/><circle cx="387.977" cy="245.975" r="11.852" style="fill:#53b4a6;"/><circle cx="420.799" cy="245.975" r="11.852" style="fill:#53b4a6;"/><circle cx="387.977" cy="282.443" r="11.852" style="fill:#052b48;"/><circle cx="420.799" cy="282.443" r="11.852" style="fill:#052b48;"/><circle cx="389.497" cy="209.508" r="11.852" style="fill:#e8de82;"/><circle cx="422.318" cy="209.508" r="11.852" style="fill:#e8de82;"/><circle cx="455.139" cy="209.508" r="11.852" style="fill:#e8de82;"/><circle cx="487.96" cy="209.508" r="11.852" style="fill:#e8de82;"/><circle cx="520.022" cy="209.508" r="11.852" style="fill:#e8de82;"/><circle cx="387.977" cy="315.872" r="11.852" style="fill:#00a7e0;"/><circle cx="420.799" cy="315.872" r="11.852" style="fill:#00a7e0;"/><circle cx="453.62" cy="245.975" r="11.852" style="fill:#53b4a6;"/><circle cx="453.62" cy="282.443" r="11.852" style="fill:#052b48;"/><circle cx="486.441" cy="282.443" r="11.852" style="fill:#052b48;"/><text x="375.815px" y="146.615px" style="font-family:'Raleway-Black', 'Raleway', sans-serif;font-weight:900;font-size:30px;fill:#fff;">K</text><text x="382.296px" y="178.973px" style="font-family:'OpenSans-Regular', 'Open Sans', sans-serif;font-size:7.993px;fill:#fff;">K12</text><text x="382.296px" y="212.402px" style="font-family:'OpenSans-Regular', 'Open Sans', sans-serif;font-size:7.993px;fill:#052b48;">K22</text><text x="380.765px" y="248.83px" style="font-family:'OpenSans-Regular', 'Open Sans', sans-serif;font-size:7.993px;fill:#fff;">K37</text><text x="380.796px" y="285.693px" style="font-family:'OpenSans-Regular', 'Open Sans', sans-serif;font-size:7.993px;fill:#fff;">K33</text><text x="380.642px" y="318.741px" style="font-family:'OpenSans-Regular', 'Open Sans', sans-serif;font-size:7.993px;fill:#fff;">K44</text><text x="380.642px" y="353.676px" style="font-family:'OpenSans-Regular', 'Open Sans', sans-serif;font-size:7.993px;fill:#fff;">K43</text><text x="413.59px" y="248.83px" style="font-family:'OpenSans-Regular', 'Open Sans', sans-serif;font-size:7.993px;fill:#fff;">K38</text><text x="446.434px" y="248.83px" style="font-family:'OpenSans-Regular', 'Open Sans', sans-serif;font-size:7.993px;fill:#fff;">K35</text><text x="413.613px" y="285.298px" style="font-family:'OpenSans-Regular', 'Open Sans', sans-serif;font-size:7.993px;fill:#fff;">K25</text><text x="446.284px" y="285.22px" style="font-family:'OpenSans-Regular', 'Open Sans', sans-serif;font-size:7.993px;fill:#fff;">K34</text><text x="479.915px" y="285.298px" style="font-family:'OpenSans-Regular', 'Open Sans', sans-serif;font-size:7.993px;fill:#fff;">K21</text><text x="413.598px" y="318.792px" style="font-family:'OpenSans-Regular', 'Open Sans', sans-serif;font-size:7.993px;fill:#fff;">K42</text><text x="415.101px" y="212.409px" style="font-family:'OpenSans-Regular', 'Open Sans', sans-serif;font-size:7.993px;fill:#052b48;">K20</text><text x="447.927px" y="212.402px" style="font-family:'OpenSans-Regular', 'Open Sans', sans-serif;font-size:7.993px;fill:#052b48;">K27</text><text x="481.163px" y="212.324px" style="font-family:'OpenSans-Regular', 'Open Sans', sans-serif;font-size:7.993px;fill:#052b48;">K36</text><text x="512.801px" y="212.324px" style="font-family:'OpenSans-Regular', 'Open Sans', sans-serif;font-size:7.993px;fill:#052b48;">K16</text><text x="414.982px" y="178.922px" style="font-family:'OpenSans-Regular', 'Open Sans', sans-serif;font-size:7.993px;fill:#fff;">K14</text></g><g><circle cx="13.372" cy="456.098" r="11.852" style="fill:#e22725;"/><circle cx="46.193" cy="456.098" r="11.852" style="fill:#e22725;"/><circle cx="11.852" cy="630.841" r="11.852" style="fill:#dc98cb;"/><circle cx="44.673" cy="630.841" r="11.852" style="fill:#dc98cb;"/><circle cx="11.852" cy="525.995" r="11.852" style="fill:#53b4a6;"/><circle cx="44.673" cy="525.995" r="11.852" style="fill:#53b4a6;"/><circle cx="11.852" cy="562.463" r="11.852" style="fill:#052b48;"/><circle cx="44.673" cy="562.463" r="11.852" style="fill:#052b48;"/><circle cx="241.676" cy="489.527" r="11.852" style="fill:#e8de82;"/><circle cx="13.372" cy="489.527" r="11.852" style="fill:#e8de82;"/><circle cx="46.193" cy="489.527" r="11.852" style="fill:#e8de82;"/><circle cx="79.014" cy="489.527" r="11.852" style="fill:#e8de82;"/><circle cx="111.835" cy="489.527" r="11.852" style="fill:#e8de82;"/><circle cx="143.896" cy="489.527" r="11.852" style="fill:#e8de82;"/><circle cx="11.852" cy="595.892" r="11.852" style="fill:#00a7e0;"/><circle cx="44.673" cy="595.892" r="11.852" style="fill:#00a7e0;"/><circle cx="77.494" cy="595.892" r="11.852" style="fill:#00a7e0;"/><circle cx="110.316" cy="595.892" r="11.852" style="fill:#00a7e0;"/><circle cx="142.377" cy="595.892" r="11.852" style="fill:#00a7e0;"/><circle cx="177.553" cy="489.527" r="11.852" style="fill:#e8de82;"/><circle cx="209.615" cy="489.527" r="11.852" style="fill:#e8de82;"/><circle cx="77.494" cy="630.841" r="11.852" style="fill:#dc98cb;"/><circle cx="77.494" cy="525.995" r="11.852" style="fill:#53b4a6;"/><circle cx="110.316" cy="525.995" r="11.852" style="fill:#53b4a6;"/><circle cx="143.137" cy="525.995" r="11.852" style="fill:#53b4a6;"/><circle cx="77.494" cy="562.463" r="11.852" style="fill:#052b48;"/><circle cx="110.316" cy="562.463" r="11.852" style="fill:#052b48;"/><circle cx="143.137" cy="562.463" r="11.852" style="fill:#052b48;"/><circle cx="175.958" cy="562.463" r="11.852" style="fill:#052b48;"/><circle cx="175.97" cy="595.892" r="11.852" style="fill:#00a7e0;"/><circle cx="273.706" cy="489.578" r="11.852" style="fill:#e8de82;"/><circle cx="79.014" cy="458.129" r="11.852" style="fill:#e22725;"/><circle cx="111.835" cy="458.129" r="11.852" style="fill:#e22725;"/><circle cx="144.641" cy="458.17" r="11.852" style="fill:#e22725;"/><text x="-0.311px" y="426.635px" style="font-family:'Raleway-Black', 'Raleway', sans-serif;font-weight:900;font-size:30px;fill:#fff;">L</text><text x="6.549px" y="458.992px" style="font-family:'OpenSans-Regular', 'Open Sans', sans-serif;font-size:7.993px;fill:#fff;">L22</text><text x="6.538px" y="492.38px" style="font-family:'OpenSans-Regular', 'Open Sans', sans-serif;font-size:7.993px;fill:#052b48;">L77</text><text x="2.759px" y="528.854px" style="font-family:'OpenSans-Regular', 'Open Sans', sans-serif;font-size:7.993px;fill:#fff;">L106</text><text x="5.705px" y="565.332px" style="font-family:'OpenSans-Regular', 'Open Sans', sans-serif;font-size:7.993px;fill:#fff;">L41</text><text x="3.42px" y="598.786px" style="font-family:'OpenSans-Regular', 'Open Sans', sans-serif;font-size:7.993px;fill:#fff;">L121</text><text x="2.764px" y="633.696px" style="font-family:'OpenSans-Regular', 'Open Sans', sans-serif;font-size:7.993px;fill:#fff;">L113</text><text x="35.566px" y="633.696px" style="font-family:'OpenSans-Regular', 'Open Sans', sans-serif;font-size:7.993px;fill:#fff;">L119</text><text x="68.379px" y="633.696px" style="font-family:'OpenSans-Regular', 'Open Sans', sans-serif;font-size:7.993px;fill:#fff;">L118</text><text x="35.566px" y="528.854px" style="font-family:'OpenSans-Regular', 'Open Sans', sans-serif;font-size:7.993px;fill:#fff;">L109</text><text x="68.403px" y="528.854px" style="font-family:'OpenSans-Regular', 'Open Sans', sans-serif;font-size:7.993px;fill:#fff;">L105</text><text x="101.192px" y="528.854px" style="font-family:'OpenSans-Regular', 'Open Sans', sans-serif;font-size:7.993px;fill:#fff;">L110</text><text x="134.029px" y="528.854px" style="font-family:'OpenSans-Regular', 'Open Sans', sans-serif;font-size:7.993px;fill:#fff;">L108</text><text x="37.851px" y="564.606px" style="font-family:'OpenSans-Regular', 'Open Sans', sans-serif;font-size:7.993px;fill:#fff;">L89</text><text x="70.66px" y="565.254px" style="font-family:'OpenSans-Regular', 'Open Sans', sans-serif;font-size:7.993px;fill:#fff;">L87</text><text x="103.509px" y="564.606px" style="font-family:'OpenSans-Regular', 'Open Sans', sans-serif;font-size:7.993px;fill:#fff;">L85</text><text x="136.18px" y="564.606px" style="font-family:'OpenSans-Regular', 'Open Sans', sans-serif;font-size:7.993px;fill:#fff;">L84</text><text x="169.128px" y="565.318px" style="font-family:'OpenSans-Regular', 'Open Sans', sans-serif;font-size:7.993px;fill:#fff;">L88</text><text x="35.546px" y="598.119px" style="font-family:'OpenSans-Regular', 'Open Sans', sans-serif;font-size:7.993px;fill:#fff;">L116</text><text x="68.406px" y="598.119px" style="font-family:'OpenSans-Regular', 'Open Sans', sans-serif;font-size:7.993px;fill:#fff;">L123</text><text x="101.224px" y="598.119px" style="font-family:'OpenSans-Regular', 'Open Sans', sans-serif;font-size:7.993px;fill:#fff;">L115</text><text x="133.269px" y="598.786px" style="font-family:'OpenSans-Regular', 'Open Sans', sans-serif;font-size:7.993px;fill:#fff;">L122</text><text x="166.85px" y="598.197px" style="font-family:'OpenSans-Regular', 'Open Sans', sans-serif;font-size:7.993px;fill:#fff;">L117</text><text x="39.236px" y="492.302px" style="font-family:'OpenSans-Regular', 'Open Sans', sans-serif;font-size:7.993px;fill:#052b48;">L94</text><text x="72.192px" y="492.302px" style="font-family:'OpenSans-Regular', 'Open Sans', sans-serif;font-size:7.993px;fill:#052b48;">L82</text><text x="104.993px" y="492.462px" style="font-family:'OpenSans-Regular', 'Open Sans', sans-serif;font-size:7.993px;fill:#052b48;">L86</text><text x="134.808px" y="492.47px" style="font-family:'OpenSans-Regular', 'Open Sans', sans-serif;font-size:7.993px;fill:#052b48;">L103</text><text x="170.715px" y="492.47px" style="font-family:'OpenSans-Regular', 'Open Sans', sans-serif;font-size:7.993px;fill:#052b48;">L90</text><text x="202.792px" y="492.421px" style="font-family:'OpenSans-Regular', 'Open Sans', sans-serif;font-size:7.993px;fill:#052b48;">L72</text><text x="234.873px" y="492.343px" style="font-family:'OpenSans-Regular', 'Open Sans', sans-serif;font-size:7.993px;fill:#052b48;">L83</text><text x="267.559px" y="492.382px" style="font-family:'OpenSans-Regular', 'Open Sans', sans-serif;font-size:7.993px;fill:#052b48;">L91</text><text x="39.386px" y="458.914px" style="font-family:'OpenSans-Regular', 'Open Sans', sans-serif;font-size:7.993px;fill:#fff;">L25</text><text x="72.207px" y="460.282px" style="font-family:'OpenSans-Regular', 'Open Sans', sans-serif;font-size:7.993px;fill:#fff;">L55</text><text x="105.001px" y="460.998px" style="font-family:'OpenSans-Regular', 'Open Sans', sans-serif;font-size:7.993px;fill:#fff;">L47</text><text x="137.85px" y="460.92px" style="font-family:'OpenSans-Regular', 'Open Sans', sans-serif;font-size:7.993px;fill:#fff;">L54</text></g><g><circle cx="12.485" cy="14.39" r="12.485" style="fill:#e22725;"/><g transform="matrix(0.363304,0,0,0.363304,-7088.27,-4078.91)"><text x="19605.3px" y="11256.1px" style="font-family:'OpenSans-Regular', 'Open Sans', sans-serif;font-size:37.693px;fill:#fff;">Post-r<tspan x="19708.8px 19729.9px 19753px 19767.6px 19790.4px " y="11256.1px 11256.1px 11256.1px 11256.1px 11256.1px ">eprod</tspan>uctive female</text><text x="19605.3px" y="11300.1px" style="font-family:'OpenSans-Regular', 'Open Sans', sans-serif;font-size:37.693px;fill:#fff;">(age 42 and up)</text></g><circle cx="413.033" cy="14.427" r="12.485" style="fill:#53b4a6;"/><g transform="matrix(0.496677,0,0,0.496677,-9304.32,-5580.21)"><text x="19605.3px" y="11256.1px" style="font-family:'OpenSans-Regular', 'Open Sans', sans-serif;font-size:27.571px;fill:#fff;">Spr<tspan x="19648px 19664.6px " y="11256.1px 11256.1px ">ou</tspan>ting male</text><text x="19605.3px" y="11288.3px" style="font-family:'OpenSans-Regular', 'Open Sans', sans-serif;font-size:27.571px;fill:#fff;">(age 11-17)</text></g><circle cx="12.485" cy="64.785" r="12.485" style="fill:#052b48;"/><g transform="matrix(0.496677,0,0,0.496677,-9704.32,-5528.27)"><text x="19605.3px" y="11256.1px" style="font-family:'OpenSans-Regular', 'Open Sans', sans-serif;font-size:27.571px;fill:#fff;">Adult male</text><text x="19605.3px" y="11288.3px" style="font-family:'OpenSans-Regular', 'Open Sans', sans-serif;font-size:27.571px;fill:#fff;">(age 18 &amp; up)</text></g><circle cx="227.9" cy="14.39" r="12.485" style="fill:#e8de82;"/><g transform="matrix(0.496677,0,0,0.496677,-9489.45,-5580.17)"><text x="19605.3px" y="11256.1px" style="font-family:'OpenSans-Regular', 'Open Sans', sans-serif;font-size:27.571px;fill:#fff;">Repr<tspan x="19665.4px 19682px " y="11256.1px 11256.1px ">od</tspan>uctive female</text><text x="19605.3px" y="11288.3px" style="font-family:'OpenSans-Regular', 'Open Sans', sans-serif;font-size:27.571px;fill:#fff;">(age 11-41)</text></g><circle cx="413.033" cy="67.276" r="12.485" style="fill:#dc98cb;"/><g transform="matrix(0.496677,0,0,0.496677,-9301.9,-5527.28)"><text x="19605.3px" y="11256.1px" style="font-family:'OpenSans-Regular', 'Open Sans', sans-serif;font-size:27.571px;fill:#fff;">Juvenile female</text><text x="19605.3px" y="11288.3px" style="font-family:'OpenSans-Regular', 'Open Sans', sans-serif;font-size:27.571px;fill:#fff;">(age 0-17)</text></g><circle cx="227.9" cy="66.819" r="12.485" style="fill:#00a7e0;"/><g transform="matrix(0.496677,0,0,0.496677,-9487.03,-5527.81)"><text x="19605.3px" y="11256.1px" style="font-family:'OpenSans-Regular', 'Open Sans', sans-serif;font-size:27.571px;fill:#fff;">Juvenile male</text><text x="19605.3px" y="11288.3px" style="font-family:'OpenSans-Regular', 'Open Sans', sans-serif;font-size:27.571px;fill:#fff;">(age 0-17)</text></g></g></g></svg>