<?xml version="1.0" encoding="UTF-8" standalone="no"?><!DOCTYPE svg PUBLIC "-//W3C//DTD SVG 1.1//EN" "http://www.w3.org/Graphics/SVG/1.1/DTD/svg11.dtd"><svg width="100%" height="100%" viewBox="0 0 327 952" version="1.1" xmlns="http://www.w3.org/2000/svg" xmlns:xlink="http://www.w3.org/1999/xlink" xml:space="preserve" xmlns:serif="http://www.serif.com/" style="fill-rule:evenodd;clip-rule:evenodd;stroke-linejoin:round;stroke-miterlimit:1.41421;"><g><g><g><circle cx="13.372" cy="236.458" r="11.852" style="fill:#e22725;"/><circle cx="46.193" cy="236.458" r="11.852" style="fill:#e22725;"/><circle cx="11.852" cy="411.201" r="11.852" style="fill:#dc98cb;"/><circle cx="44.673" cy="411.201" r="11.852" style="fill:#dc98cb;"/><circle cx="11.852" cy="306.355" r="11.852" style="fill:#84c7bb;"/><circle cx="11.852" cy="306.355" r="11.852" style="fill:#53b4a6;"/><circle cx="44.673" cy="306.355" r="11.852" style="fill:#53b4a6;"/><circle cx="11.852" cy="342.823" r="11.852" style="fill:#052b48;"/><circle cx="44.673" cy="342.823" r="11.852" style="fill:#052b48;"/><circle cx="241.676" cy="269.887" r="11.852" style="fill:#e8de82;"/><circle cx="13.372" cy="269.887" r="11.852" style="fill:#e8de82;"/><circle cx="46.193" cy="269.887" r="11.852" style="fill:#e8de82;"/><circle cx="79.014" cy="269.887" r="11.852" style="fill:#e8de82;"/><circle cx="111.835" cy="269.887" r="11.852" style="fill:#e8de82;"/><circle cx="143.896" cy="269.887" r="11.852" style="fill:#e8de82;"/><circle cx="11.852" cy="376.252" r="11.852" style="fill:#00a7e0;"/><circle cx="44.673" cy="376.252" r="11.852" style="fill:#00a7e0;"/><circle cx="77.494" cy="376.252" r="11.852" style="fill:#00a7e0;"/><circle cx="110.316" cy="376.252" r="11.852" style="fill:#00a7e0;"/><circle cx="142.377" cy="376.252" r="11.852" style="fill:#00a7e0;"/><circle cx="177.553" cy="269.887" r="11.852" style="fill:#e8de82;"/><circle cx="209.615" cy="269.887" r="11.852" style="fill:#e8de82;"/><text x="8.936px" y="272.03px" style="font-family:'OpenSans-Regular', 'Open Sans', sans-serif;font-size:7.993px;fill:#052b48;">J31</text><text x="41.062px" y="272.03px" style="font-family:'OpenSans-Regular', 'Open Sans', sans-serif;font-size:7.993px;fill:#052b48;">J40</text><text x="73.883px" y="272.03px" style="font-family:'OpenSans-Regular', 'Open Sans', sans-serif;font-size:7.993px;fill:#052b48;">J36</text><text x="106.724px" y="272.03px" style="font-family:'OpenSans-Regular', 'Open Sans', sans-serif;font-size:7.993px;fill:#052b48;">J42</text><text x="138.786px" y="272.03px" style="font-family:'OpenSans-Regular', 'Open Sans', sans-serif;font-size:7.993px;fill:#052b48;">J41</text><text x="172.442px" y="272.03px" style="font-family:'OpenSans-Regular', 'Open Sans', sans-serif;font-size:7.993px;fill:#052b48;">J22</text><text x="204.504px" y="272.081px" style="font-family:'OpenSans-Regular', 'Open Sans', sans-serif;font-size:7.993px;fill:#052b48;">J22</text><text x="236.565px" y="272.081px" style="font-family:'OpenSans-Regular', 'Open Sans', sans-serif;font-size:7.993px;fill:#052b48;">J35</text><text x="1.489px" y="206.995px" style="font-family:'Raleway-Black', 'Raleway', sans-serif;font-weight:900;font-size:30px;fill:#fff;">J</text><text x="8.241px" y="238.601px" style="font-family:'OpenSans-Regular', 'Open Sans', sans-serif;font-size:7.993px;fill:#fff;">J16</text><text x="41.07px" y="238.601px" style="font-family:'OpenSans-Regular', 'Open Sans', sans-serif;font-size:7.993px;fill:#fff;">J17</text><text x="6.733px" y="308.498px" style="font-family:'OpenSans-Regular', 'Open Sans', sans-serif;font-size:7.993px;fill:#fff;">J38</text><text x="6.733px" y="344.966px" style="font-family:'OpenSans-Regular', 'Open Sans', sans-serif;font-size:7.993px;fill:#fff;">J26</text><text x="6.722px" y="378.395px" style="font-family:'OpenSans-Regular', 'Open Sans', sans-serif;font-size:7.993px;fill:#fff;">J45</text><text x="6.722px" y="413.343px" style="font-family:'OpenSans-Regular', 'Open Sans', sans-serif;font-size:7.993px;fill:#fff;">J46</text><text x="39.582px" y="413.343px" style="font-family:'OpenSans-Regular', 'Open Sans', sans-serif;font-size:7.993px;fill:#fff;">J53</text><text x="39.562px" y="308.498px" style="font-family:'OpenSans-Regular', 'Open Sans', sans-serif;font-size:7.993px;fill:#fff;">J39</text><text x="39.562px" y="344.966px" style="font-family:'OpenSans-Regular', 'Open Sans', sans-serif;font-size:7.993px;fill:#fff;">J27</text><text x="39.551px" y="378.395px" style="font-family:'OpenSans-Regular', 'Open Sans', sans-serif;font-size:7.993px;fill:#fff;">J49</text><text x="72.384px" y="378.446px" style="font-family:'OpenSans-Regular', 'Open Sans', sans-serif;font-size:7.993px;fill:#fff;">J51</text><text x="105.07px" y="378.446px" style="font-family:'OpenSans-Regular', 'Open Sans', sans-serif;font-size:7.993px;fill:#fff;">J44</text><text x="137.254px" y="378.477px" style="font-family:'OpenSans-Regular', 'Open Sans', sans-serif;font-size:7.993px;fill:#fff;">J47</text></g><g><circle cx="13.372" cy="500.81" r="11.852" style="fill:#e22725;"/><circle cx="46.193" cy="500.81" r="11.852" style="fill:#e22725;"/><circle cx="11.852" cy="675.553" r="11.852" style="fill:#dc98cb;"/><circle cx="11.852" cy="570.707" r="11.852" style="fill:#53b4a6;"/><circle cx="44.673" cy="570.707" r="11.852" style="fill:#53b4a6;"/><circle cx="11.852" cy="607.175" r="11.852" style="fill:#052b48;"/><circle cx="44.673" cy="607.175" r="11.852" style="fill:#052b48;"/><circle cx="13.372" cy="534.239" r="11.852" style="fill:#e8de82;"/><circle cx="46.193" cy="534.239" r="11.852" style="fill:#e8de82;"/><circle cx="79.014" cy="534.239" r="11.852" style="fill:#e8de82;"/><circle cx="111.835" cy="534.239" r="11.852" style="fill:#e8de82;"/><circle cx="143.896" cy="534.239" r="11.852" style="fill:#e8de82;"/><circle cx="11.852" cy="640.604" r="11.852" style="fill:#00a7e0;"/><circle cx="44.673" cy="640.604" r="11.852" style="fill:#00a7e0;"/><circle cx="77.494" cy="570.707" r="11.852" style="fill:#53b4a6;"/><circle cx="77.494" cy="607.175" r="11.852" style="fill:#052b48;"/><circle cx="110.316" cy="607.175" r="11.852" style="fill:#052b48;"/><text x="-0.311px" y="471.347px" style="font-family:'Raleway-Black', 'Raleway', sans-serif;font-weight:900;font-size:30px;fill:#fff;">K</text><text x="6.171px" y="503.704px" style="font-family:'OpenSans-Regular', 'Open Sans', sans-serif;font-size:7.993px;fill:#fff;">K12</text><text x="6.171px" y="537.133px" style="font-family:'OpenSans-Regular', 'Open Sans', sans-serif;font-size:7.993px;fill:#052b48;">K22</text><text x="4.639px" y="573.562px" style="font-family:'OpenSans-Regular', 'Open Sans', sans-serif;font-size:7.993px;fill:#fff;">K37</text><text x="4.671px" y="610.425px" style="font-family:'OpenSans-Regular', 'Open Sans', sans-serif;font-size:7.993px;fill:#fff;">K33</text><text x="4.517px" y="643.473px" style="font-family:'OpenSans-Regular', 'Open Sans', sans-serif;font-size:7.993px;fill:#fff;">K44</text><text x="4.517px" y="678.408px" style="font-family:'OpenSans-Regular', 'Open Sans', sans-serif;font-size:7.993px;fill:#fff;">K43</text><text x="37.465px" y="573.562px" style="font-family:'OpenSans-Regular', 'Open Sans', sans-serif;font-size:7.993px;fill:#fff;">K38</text><text x="70.309px" y="573.562px" style="font-family:'OpenSans-Regular', 'Open Sans', sans-serif;font-size:7.993px;fill:#fff;">K35</text><text x="37.488px" y="610.03px" style="font-family:'OpenSans-Regular', 'Open Sans', sans-serif;font-size:7.993px;fill:#fff;">K25</text><text x="70.159px" y="609.952px" style="font-family:'OpenSans-Regular', 'Open Sans', sans-serif;font-size:7.993px;fill:#fff;">K34</text><text x="103.79px" y="610.03px" style="font-family:'OpenSans-Regular', 'Open Sans', sans-serif;font-size:7.993px;fill:#fff;">K21</text><text x="37.472px" y="643.524px" style="font-family:'OpenSans-Regular', 'Open Sans', sans-serif;font-size:7.993px;fill:#fff;">K42</text><text x="38.976px" y="537.141px" style="font-family:'OpenSans-Regular', 'Open Sans', sans-serif;font-size:7.993px;fill:#052b48;">K20</text><text x="71.801px" y="537.133px" style="font-family:'OpenSans-Regular', 'Open Sans', sans-serif;font-size:7.993px;fill:#052b48;">K27</text><text x="105.037px" y="537.055px" style="font-family:'OpenSans-Regular', 'Open Sans', sans-serif;font-size:7.993px;fill:#052b48;">K36</text><text x="136.676px" y="537.055px" style="font-family:'OpenSans-Regular', 'Open Sans', sans-serif;font-size:7.993px;fill:#052b48;">K16</text><text x="38.857px" y="503.654px" style="font-family:'OpenSans-Regular', 'Open Sans', sans-serif;font-size:7.993px;fill:#fff;">K14</text></g><g><circle cx="13.372" cy="765.162" r="11.852" style="fill:#e22725;"/><circle cx="46.193" cy="765.162" r="11.852" style="fill:#e22725;"/><circle cx="11.852" cy="939.905" r="11.852" style="fill:#dc98cb;"/><circle cx="44.673" cy="939.905" r="11.852" style="fill:#dc98cb;"/><circle cx="11.852" cy="835.059" r="11.852" style="fill:#53b4a6;"/><circle cx="44.673" cy="835.059" r="11.852" style="fill:#53b4a6;"/><circle cx="11.852" cy="871.527" r="11.852" style="fill:#052b48;"/><circle cx="44.673" cy="871.527" r="11.852" style="fill:#052b48;"/><circle cx="241.676" cy="798.591" r="11.852" style="fill:#e8de82;"/><circle cx="13.372" cy="798.591" r="11.852" style="fill:#e8de82;"/><circle cx="46.193" cy="798.591" r="11.852" style="fill:#e8de82;"/><circle cx="79.014" cy="798.591" r="11.852" style="fill:#e8de82;"/><circle cx="111.835" cy="798.591" r="11.852" style="fill:#e8de82;"/><circle cx="143.896" cy="798.591" r="11.852" style="fill:#e8de82;"/><circle cx="11.852" cy="904.956" r="11.852" style="fill:#00a7e0;"/><circle cx="44.673" cy="904.956" r="11.852" style="fill:#00a7e0;"/><circle cx="77.494" cy="904.956" r="11.852" style="fill:#00a7e0;"/><circle cx="110.316" cy="904.956" r="11.852" style="fill:#00a7e0;"/><circle cx="142.377" cy="904.956" r="11.852" style="fill:#00a7e0;"/><circle cx="177.553" cy="798.591" r="11.852" style="fill:#e8de82;"/><circle cx="209.615" cy="798.591" r="11.852" style="fill:#e8de82;"/><circle cx="77.494" cy="939.905" r="11.852" style="fill:#dc98cb;"/><circle cx="77.494" cy="835.059" r="11.852" style="fill:#53b4a6;"/><circle cx="110.316" cy="835.059" r="11.852" style="fill:#53b4a6;"/><circle cx="143.137" cy="835.059" r="11.852" style="fill:#53b4a6;"/><circle cx="77.494" cy="871.527" r="11.852" style="fill:#052b48;"/><circle cx="110.316" cy="871.527" r="11.852" style="fill:#052b48;"/><circle cx="143.137" cy="871.527" r="11.852" style="fill:#052b48;"/><circle cx="175.958" cy="871.527" r="11.852" style="fill:#052b48;"/><circle cx="175.97" cy="904.956" r="11.852" style="fill:#00a7e0;"/><circle cx="273.706" cy="798.642" r="11.852" style="fill:#e8de82;"/><circle cx="79.014" cy="767.193" r="11.852" style="fill:#e22725;"/><circle cx="111.835" cy="767.193" r="11.852" style="fill:#e22725;"/><circle cx="144.641" cy="767.234" r="11.852" style="fill:#e22725;"/><text x="-0.311px" y="735.699px" style="font-family:'Raleway-Black', 'Raleway', sans-serif;font-weight:900;font-size:30px;fill:#fff;">L</text><text x="6.549px" y="768.057px" style="font-family:'OpenSans-Regular', 'Open Sans', sans-serif;font-size:7.993px;fill:#fff;">L22</text><text x="6.538px" y="801.444px" style="font-family:'OpenSans-Regular', 'Open Sans', sans-serif;font-size:7.993px;fill:#052b48;">L77</text><text x="2.759px" y="837.918px" style="font-family:'OpenSans-Regular', 'Open Sans', sans-serif;font-size:7.993px;fill:#fff;">L106</text><text x="5.705px" y="874.396px" style="font-family:'OpenSans-Regular', 'Open Sans', sans-serif;font-size:7.993px;fill:#fff;">L41</text><text x="3.42px" y="907.85px" style="font-family:'OpenSans-Regular', 'Open Sans', sans-serif;font-size:7.993px;fill:#fff;">L121</text><text x="2.764px" y="942.76px" style="font-family:'OpenSans-Regular', 'Open Sans', sans-serif;font-size:7.993px;fill:#fff;">L113</text><text x="35.566px" y="942.76px" style="font-family:'OpenSans-Regular', 'Open Sans', sans-serif;font-size:7.993px;fill:#fff;">L119</text><text x="68.379px" y="942.76px" style="font-family:'OpenSans-Regular', 'Open Sans', sans-serif;font-size:7.993px;fill:#fff;">L118</text><text x="35.566px" y="837.918px" style="font-family:'OpenSans-Regular', 'Open Sans', sans-serif;font-size:7.993px;fill:#fff;">L109</text><text x="68.403px" y="837.918px" style="font-family:'OpenSans-Regular', 'Open Sans', sans-serif;font-size:7.993px;fill:#fff;">L105</text><text x="101.192px" y="837.918px" style="font-family:'OpenSans-Regular', 'Open Sans', sans-serif;font-size:7.993px;fill:#fff;">L110</text><text x="134.029px" y="837.918px" style="font-family:'OpenSans-Regular', 'Open Sans', sans-serif;font-size:7.993px;fill:#fff;">L108</text><text x="37.851px" y="873.67px" style="font-family:'OpenSans-Regular', 'Open Sans', sans-serif;font-size:7.993px;fill:#fff;">L89</text><text x="70.66px" y="874.318px" style="font-family:'OpenSans-Regular', 'Open Sans', sans-serif;font-size:7.993px;fill:#fff;">L87</text><text x="103.509px" y="873.67px" style="font-family:'OpenSans-Regular', 'Open Sans', sans-serif;font-size:7.993px;fill:#fff;">L85</text><text x="136.18px" y="873.67px" style="font-family:'OpenSans-Regular', 'Open Sans', sans-serif;font-size:7.993px;fill:#fff;">L84</text><text x="169.128px" y="874.382px" style="font-family:'OpenSans-Regular', 'Open Sans', sans-serif;font-size:7.993px;fill:#fff;">L88</text><text x="35.546px" y="907.183px" style="font-family:'OpenSans-Regular', 'Open Sans', sans-serif;font-size:7.993px;fill:#fff;">L116</text><text x="68.406px" y="907.183px" style="font-family:'OpenSans-Regular', 'Open Sans', sans-serif;font-size:7.993px;fill:#fff;">L123</text><text x="101.224px" y="907.183px" style="font-family:'OpenSans-Regular', 'Open Sans', sans-serif;font-size:7.993px;fill:#fff;">L115</text><text x="133.269px" y="907.85px" style="font-family:'OpenSans-Regular', 'Open Sans', sans-serif;font-size:7.993px;fill:#fff;">L122</text><text x="166.85px" y="907.261px" style="font-family:'OpenSans-Regular', 'Open Sans', sans-serif;font-size:7.993px;fill:#fff;">L117</text><text x="39.236px" y="801.366px" style="font-family:'OpenSans-Regular', 'Open Sans', sans-serif;font-size:7.993px;fill:#052b48;">L94</text><text x="72.192px" y="801.366px" style="font-family:'OpenSans-Regular', 'Open Sans', sans-serif;font-size:7.993px;fill:#052b48;">L82</text><text x="104.993px" y="801.526px" style="font-family:'OpenSans-Regular', 'Open Sans', sans-serif;font-size:7.993px;fill:#052b48;">L86</text><text x="134.808px" y="801.534px" style="font-family:'OpenSans-Regular', 'Open Sans', sans-serif;font-size:7.993px;fill:#052b48;">L103</text><text x="170.715px" y="801.534px" style="font-family:'OpenSans-Regular', 'Open Sans', sans-serif;font-size:7.993px;fill:#052b48;">L90</text><text x="202.792px" y="801.485px" style="font-family:'OpenSans-Regular', 'Open Sans', sans-serif;font-size:7.993px;fill:#052b48;">L72</text><text x="234.873px" y="801.407px" style="font-family:'OpenSans-Regular', 'Open Sans', sans-serif;font-size:7.993px;fill:#052b48;">L83</text><text x="267.559px" y="801.446px" style="font-family:'OpenSans-Regular', 'Open Sans', sans-serif;font-size:7.993px;fill:#052b48;">L91</text><text x="39.386px" y="767.978px" style="font-family:'OpenSans-Regular', 'Open Sans', sans-serif;font-size:7.993px;fill:#fff;">L25</text><text x="72.207px" y="769.346px" style="font-family:'OpenSans-Regular', 'Open Sans', sans-serif;font-size:7.993px;fill:#fff;">L55</text><text x="105.001px" y="770.062px" style="font-family:'OpenSans-Regular', 'Open Sans', sans-serif;font-size:7.993px;fill:#fff;">L47</text><text x="137.85px" y="769.984px" style="font-family:'OpenSans-Regular', 'Open Sans', sans-serif;font-size:7.993px;fill:#fff;">L54</text></g></g><g><g><circle cx="12.485" cy="14.317" r="12.485" style="fill:#e22725;"/><g transform="matrix(0.363304,0,0,0.363304,-7088.27,-4078.98)"><text x="19605.3px" y="11256.1px" style="font-family:'OpenSans-Regular', 'Open Sans', sans-serif;font-size:37.693px;fill:#fff;">Post-r<tspan x="19708.8px 19729.9px 19753px 19767.6px 19790.4px " y="11256.1px 11256.1px 11256.1px 11256.1px 11256.1px ">eprod</tspan>uctive</text><text x="19605.3px" y="11300.1px" style="font-family:'OpenSans-Regular', 'Open Sans', sans-serif;font-size:37.693px;fill:#fff;">female</text><text x="19605.3px" y="11344.2px" style="font-family:'OpenSans-Regular', 'Open Sans', sans-serif;font-size:37.693px;fill:#fff;">(age 42 and up)</text></g></g><g><circle cx="12.485" cy="80.756" r="12.485" style="fill:#53b4a6;"/><g transform="matrix(0.496677,0,0,0.496677,-9704.86,-5513.88)"><text x="19605.3px" y="11256.1px" style="font-family:'OpenSans-Regular', 'Open Sans', sans-serif;font-size:27.571px;fill:#fff;">Spr<tspan x="19648px 19664.6px " y="11256.1px 11256.1px ">ou</tspan>ting male</text><text x="19605.3px" y="11288.3px" style="font-family:'OpenSans-Regular', 'Open Sans', sans-serif;font-size:27.571px;fill:#fff;">(age 11-17)</text></g></g><g><circle cx="175.55" cy="79.178" r="12.485" style="fill:#052b48;"/><g transform="matrix(0.496677,0,0,0.496677,-9541.25,-5513.88)"><text x="19605.3px" y="11256.1px" style="font-family:'OpenSans-Regular', 'Open Sans', sans-serif;font-size:27.571px;fill:#fff;">Adult male</text><text x="19605.3px" y="11288.3px" style="font-family:'OpenSans-Regular', 'Open Sans', sans-serif;font-size:27.571px;fill:#fff;">(age 18 &amp; up)</text></g></g><g><circle cx="175.55" cy="14.39" r="12.485" style="fill:#e8de82;"/><g transform="matrix(0.496677,0,0,0.496677,-9541.8,-5580.17)"><text x="19605.3px" y="11256.1px" style="font-family:'OpenSans-Regular', 'Open Sans', sans-serif;font-size:27.571px;fill:#fff;">Repr<tspan x="19665.4px 19682px " y="11256.1px 11256.1px ">od</tspan>uctive female</text><text x="19605.3px" y="11288.3px" style="font-family:'OpenSans-Regular', 'Open Sans', sans-serif;font-size:27.571px;fill:#fff;">(age 11-41)</text></g></g><g><circle cx="175.55" cy="131.049" r="12.485" style="fill:#dc98cb;"/><g transform="matrix(0.496677,0,0,0.496677,-9539.39,-5463.51)"><text x="19605.3px" y="11256.1px" style="font-family:'OpenSans-Regular', 'Open Sans', sans-serif;font-size:27.571px;fill:#fff;">Juvenile female</text><text x="19605.3px" y="11288.3px" style="font-family:'OpenSans-Regular', 'Open Sans', sans-serif;font-size:27.571px;fill:#fff;">(age 0-17)</text></g></g><g><circle cx="12.485" cy="131.122" r="12.485" style="fill:#00a7e0;"/><g transform="matrix(0.496677,0,0,0.496677,-9702.45,-5463.51)"><text x="19605.3px" y="11256.1px" style="font-family:'OpenSans-Regular', 'Open Sans', sans-serif;font-size:27.571px;fill:#fff;">Juvenile male</text><text x="19605.3px" y="11288.3px" style="font-family:'OpenSans-Regular', 'Open Sans', sans-serif;font-size:27.571px;fill:#fff;">(age 0-17)</text></g></g></g></g></svg>