<?xml version="1.0" encoding="UTF-8" standalone="no"?><!DOCTYPE svg PUBLIC "-//W3C//DTD SVG 1.1//EN" "http://www.w3.org/Graphics/SVG/1.1/DTD/svg11.dtd"><svg width="100%" height="100%" viewBox="0 0 2561 342" version="1.1" xmlns="http://www.w3.org/2000/svg" xmlns:xlink="http://www.w3.org/1999/xlink" xml:space="preserve" xmlns:serif="http://www.serif.com/" style="fill-rule:evenodd;clip-rule:evenodd;stroke-linejoin:round;stroke-miterlimit:1.41421;"><g><clipPath id="_clip1"><rect x="18.801" y="0" width="2541.2" height="338.331"/></clipPath><g clip-path="url(#_clip1)"><path d="M1275.85,87.984l14.355,-23.707l10.713,6.487l-14.356,23.707l-10.712,-6.487Z" style="fill:#e1251c;"/><path d="M1345.75,14.721c4.414,2.673 5.839,8.47 3.165,12.883l-16.92,27.942c-2.673,4.416 -8.47,5.838 -12.883,3.167l-1.193,-0.723c-4.413,-2.673 -5.838,-8.47 -3.165,-12.883l16.921,-27.942c2.673,-4.416 8.469,-5.838 12.882,-3.168l1.193,0.724Zm14.775,-9.031l-14.81,-4.639c-15.537,-4.41 -21.154,6.487 -21.154,6.487c0,0 -13.4,22.126 -19.489,32.184c-6.09,10.052 -2.317,15.912 -2.317,15.912l2.425,7.932l-18.443,30.607c-1.922,3.176 -0.908,7.307 2.268,9.229l24.111,17.815l110.832,67.116c7.935,4.802 18.26,2.267 23.063,-5.667l49.4,-81.575c3.371,-5.571 1.59,-12.82 -6.43,-17.678l-127.55,-77.239l-1.906,-0.484Z" style="fill:#e1251c;fill-rule:nonzero;"/><path d="M1471.5,95.509l-42.617,70.374c-3.159,5.22 -10.016,6.904 -15.233,3.745l-74.481,-45.103c-5.219,-3.162 -6.901,-10.016 -3.742,-15.236l42.617,-70.374c3.16,-5.219 10.017,-6.901 15.234,-3.745l74.48,45.103c5.22,3.162 6.904,10.017 3.742,15.236" style="fill:#e8de82;fill-rule:nonzero;"/><path d="M1514.66,130.693c-17.448,-2.654 -45.401,3.653 -64.437,5.065c-24.855,1.839 -51.916,-6.36 -74.564,-6.446c-25.1,-0.094 -43.023,6.788 -68.726,6.6c-16.439,-0.118 -25.169,-11.317 -44.616,-5.448c-5.518,-16.915 9.124,-34.725 9.124,-34.725l17.396,-28.729c-41.248,3.388 -75.078,29.969 -83.708,62.073c-25.473,-3.56 -27.95,0.544 -43.611,3.452c-32.944,6.114 -36.713,-4.568 -65.818,-4.648c-28.008,-0.077 -52.587,5.435 -70.893,5.915c-38.423,1.008 -55.501,-4.49 -75.014,-5.909c-33.245,-2.417 -949.795,10.069 -949.795,10.069l0,203.455l2560,-3.531l0,-201.974c0,0 -1024.17,-1.996 -1045.34,-5.219" style="fill:#042b49;fill-rule:nonzero;"/><path d="M1357.39,172.365c-2.648,-2.648 -6.136,-3.935 -9.608,-3.874c0.058,-3.472 -1.229,-6.962 -3.877,-9.611c-5.184,-5.183 -13.59,-5.183 -18.774,0c-5.186,5.184 -5.186,13.59 0,18.774c2.649,2.648 6.137,3.938 9.608,3.877c-0.058,3.471 1.229,6.962 3.877,9.61c5.184,5.184 13.59,5.184 18.774,0c5.183,-5.183 5.183,-13.59 0,-18.776" style="fill:#e8de82;fill-rule:nonzero;"/><path d="M1333.33,169.455l13.487,13.49l-18.793,18.789l-13.487,-13.489l18.793,-18.79Z" style="fill:#e8de82;"/><path d="M1203.37,299.41c2.648,2.649 6.139,3.936 9.607,3.878c-0.058,3.471 1.229,6.959 3.877,9.607c5.187,5.187 13.59,5.187 18.777,0c5.183,-5.183 5.183,-13.59 0,-18.773c-2.649,-2.649 -6.139,-3.936 -9.608,-3.878c0.055,-3.471 -1.232,-6.959 -3.88,-9.607c-5.184,-5.187 -13.59,-5.187 -18.773,0c-5.184,5.183 -5.184,13.59 0,18.773" style="fill:#e8de82;fill-rule:nonzero;"/><path d="M1227.43,302.32l-13.487,-13.489l18.793,-18.79l13.487,13.49l-18.793,18.789Z" style="fill:#e8de82;"/><path d="M1343.9,312.895c2.648,-2.649 3.935,-6.137 3.877,-9.608c3.472,0.058 6.96,-1.229 9.608,-3.877c5.186,-5.184 5.186,-13.59 0,-18.774c-5.183,-5.186 -13.59,-5.186 -18.773,0c-2.649,2.649 -3.936,6.137 -3.878,9.608c-3.471,-0.058 -6.959,1.229 -9.607,3.877c-5.184,5.184 -5.184,13.59 0,18.774c5.183,5.186 13.59,5.186 18.773,0" style="fill:#e8de82;fill-rule:nonzero;"/><path d="M1346.81,288.831l-13.487,13.49l-18.795,-18.791l13.487,-13.49l18.795,18.791Z" style="fill:#e8de82;"/><path d="M1216.86,158.881c-2.648,2.648 -3.935,6.139 -3.877,9.607c-3.471,-0.058 -6.959,1.229 -9.608,3.878c-5.183,5.186 -5.183,13.592 0,18.776c5.184,5.183 13.59,5.183 18.774,0c2.648,-2.649 3.935,-6.139 3.877,-9.611c3.471,0.061 6.959,-1.228 9.608,-3.877c5.186,-5.183 5.186,-13.59 0,-18.773c-5.184,-5.184 -13.59,-5.184 -18.774,0" style="fill:#e8de82;fill-rule:nonzero;"/><path d="M1213.94,182.944l13.487,-13.49l18.795,18.791l-13.487,13.49l-18.795,-18.791Z" style="fill:#e8de82;"/><path d="M1285.99,282.471c12.109,-0.359 10.317,-11.977 10.317,-11.977c0,0 -1.121,2.245 0.224,-1.121c1.345,-3.364 4.935,-2.243 4.935,-2.243c19.734,0.671 14.352,-13.233 13.454,-16.575c-0.897,-3.344 0.898,-7.423 0.898,-7.423c5.832,-7.625 9.232,-21.977 -0.671,-37.147c-10.541,-16.15 -27.429,-16.677 -34.763,-16.677c-7.338,0 -24.225,0.527 -34.766,16.677c-9.904,15.17 -6.501,29.522 -0.671,37.147c0,0 1.795,4.079 0.897,7.423c-0.897,3.342 -6.28,17.246 13.457,16.575c0,0 3.588,-1.121 4.935,2.243c1.345,3.366 0.224,1.121 0.224,1.121c0,0 -1.795,11.618 10.315,11.977l11.215,0Z" style="fill:#e8de82;fill-rule:nonzero;"/><path d="M1262.77,238.946c-5.12,0 -9.309,-4.189 -9.309,-9.307c0,-5.12 4.189,-9.306 9.309,-9.306c5.12,0 9.307,4.186 9.307,9.306c0,5.118 -4.187,9.307 -9.307,9.307" style="fill:#e1251c;fill-rule:nonzero;"/><path d="M1297.99,238.946c-5.12,0 -9.307,-4.189 -9.307,-9.307c0,-5.12 4.187,-9.306 9.307,-9.306c5.12,0 9.307,4.186 9.307,9.306c0,5.118 -4.187,9.307 -9.307,9.307" style="fill:#e1251c;fill-rule:nonzero;"/><path d="M1278.19,246.678l-4.543,8.591c-0.87,1.652 0.326,3.637 2.19,3.637l9.086,0c1.866,0 3.062,-1.985 2.189,-3.637l-4.542,-8.591c-0.928,-1.759 -3.45,-1.759 -4.38,0" style="fill:#e1251c;fill-rule:nonzero;"/><path d="M1196.72,118.036c0,0 4.609,-15.534 -6.092,-24.509c-10.701,-8.976 -23.777,-4.681 -23.819,3.107c-0.085,16.914 22.538,5.523 29.911,21.402" style="fill:#042b49;fill-rule:nonzero;"/><path d="M1144.37,114.584c0,0 12.773,-9.666 25.89,5.868c0,0 -12.427,-0.767 -16.224,3.588c-3.797,4.352 -19.677,-1.862 -9.666,-9.456" style="fill:#042b49;fill-rule:nonzero;"/></g></g></svg>