<?xml version="1.0" encoding="UTF-8" standalone="no"?><!DOCTYPE svg PUBLIC "-//W3C//DTD SVG 1.1//EN" "http://www.w3.org/Graphics/SVG/1.1/DTD/svg11.dtd"><svg width="100%" height="100%" viewBox="0 0 2561 349" version="1.1" xmlns="http://www.w3.org/2000/svg" xmlns:xlink="http://www.w3.org/1999/xlink" xml:space="preserve" xmlns:serif="http://www.serif.com/" style="fill-rule:evenodd;clip-rule:evenodd;stroke-miterlimit:10;"><g><path d="M1064.21,63.062l0,-20.01l-70.853,0l9.304,20.01l61.549,0Z" style="fill:#e8de82;fill-rule:nonzero;"/><path d="M1085.16,104.848l-100.197,0l17.655,-41.786l72.197,0l10.345,41.786Z" style="fill:#e8de82;fill-rule:nonzero;"/><rect x="1051.1" y="43.344" width="7.081" height="19.718" style="fill:#042b49;"/><rect x="1062.44" y="43.344" width="7.081" height="19.718" style="fill:#042b49;"/><rect x="1039.81" y="43.344" width="7.081" height="19.718" style="fill:#042b49;"/><rect x="1028.51" y="43.344" width="7.081" height="19.718" style="fill:#042b49;"/><rect x="1017.22" y="43.344" width="7.081" height="19.718" style="fill:#042b49;"/><rect x="1005.93" y="43.344" width="7.081" height="19.718" style="fill:#042b49;"/><rect x="993.782" y="43.344" width="8.785" height="19.718" style="fill:#042b49;"/><path d="M989.864,45.994l76.999,0l0,-5.002l-8.4,-5.001l-60.198,0l-8.401,5.001l0,5.002Z" style="fill:#e8de82;fill-rule:nonzero;"/><rect x="1050.39" y="0.784" width="5.012" height="32.659" style="fill:#042b49;"/><rect x="1046.95" y="13.079" width="11.892" height="6.785" style="fill:#042b49;"/><rect x="1046.95" y="0" width="11.892" height="6.785" style="fill:#042b49;"/><rect x="1035.06" y="27.379" width="23.783" height="10.964" style="fill:#e8de82;"/><rect x="1060.41" y="70.126" width="6.459" height="8.826" style="fill:#042b49;"/><rect x="1047.54" y="70.126" width="6.459" height="8.826" style="fill:#042b49;"/><rect x="1034.67" y="70.126" width="6.457" height="8.826" style="fill:#042b49;"/><rect x="1021.8" y="70.126" width="6.457" height="8.826" style="fill:#042b49;"/><rect x="1008.94" y="70.126" width="6.459" height="8.826" style="fill:#042b49;"/><rect x="1060.41" y="84.837" width="6.459" height="8.829" style="fill:#042b49;"/><rect x="1047.54" y="84.837" width="6.459" height="8.829" style="fill:#042b49;"/><rect x="1034.67" y="84.837" width="6.457" height="8.829" style="fill:#042b49;"/><rect x="1021.8" y="84.837" width="6.457" height="8.829" style="fill:#042b49;"/><rect x="1008.94" y="84.837" width="6.459" height="8.829" style="fill:#042b49;"/><path d="M944.137,141.925c0.097,-11.77 2.996,-42.374 2.996,-42.374l449.796,0l0,28.839c0,0 -23.192,6.907 -45.454,13.535l-407.338,0Z" style="fill:#042b49;fill-rule:nonzero;"/><path d="M1319.83,151.342c-21.775,6.474 -136.537,14.123 -165.882,11.77c-29.345,-2.355 -121.908,4.121 -163.103,5.297c-41.198,1.177 -45.319,-17.658 -46.495,-22.363c-0.169,-0.68 -0.229,-2.141 -0.215,-4.121l407.338,0c-12.121,3.607 -23.965,7.134 -31.643,9.417" style="fill:#e1251c;fill-rule:nonzero;"/><rect x="1289.35" y="82.379" width="53.479" height="17.172" style="fill:#e1251c;"/><rect x="1233.72" y="82.379" width="53.479" height="17.172" style="fill:#042b49;"/><rect x="1198" y="82.379" width="33.576" height="17.172" style="fill:#e1251c;"/><rect x="1153.68" y="82.379" width="42.17" height="17.172" style="fill:#042b49;"/><rect x="1109.36" y="82.379" width="42.17" height="17.172" style="fill:#e1251c;"/><rect x="1165.18" y="63.062" width="41.977" height="17.172" style="fill:#e1251c;"/><rect x="1109.36" y="63.062" width="53.918" height="17.172" style="fill:#042b49;"/><rect x="1209.31" y="63.062" width="53.479" height="17.172" style="fill:#042b49;"/><rect x="1264.94" y="63.062" width="33.576" height="17.172" style="fill:#e1251c;"/><rect x="1300.66" y="63.062" width="33.576" height="17.172" style="fill:#042b49;"/><path d="M977.333,120.738c0,3.37 2.736,6.106 6.106,6.106c3.37,0 6.106,-2.736 6.106,-6.106c0,-3.37 -2.736,-6.106 -6.106,-6.106c-3.37,0 -6.106,2.736 -6.106,6.106Z" style="fill:none;stroke:#e8de82;stroke-width:3.55px;"/><path d="M997.369,120.738c0,3.37 2.736,6.106 6.106,6.106c3.37,0 6.106,-2.736 6.106,-6.106c0,-3.37 -2.736,-6.106 -6.106,-6.106c-3.37,0 -6.106,2.736 -6.106,6.106Z" style="fill:none;stroke:#e8de82;stroke-width:3.55px;"/><path d="M957.295,120.738c0,3.37 2.736,6.106 6.106,6.106c3.37,0 6.106,-2.736 6.106,-6.106c0,-3.37 -2.736,-6.106 -6.106,-6.106c-3.37,0 -6.106,2.736 -6.106,6.106Z" style="fill:none;stroke:#e8de82;stroke-width:3.55px;"/><rect x="1464.07" y="134.389" width="152.966" height="8.729" style="fill:#e8de82;"/><path d="M1620.31,134.387l-165.36,0l2.378,-6.04l159.707,0l3.275,6.04Z" style="fill:#e8de82;fill-rule:nonzero;"/><path d="M1599.83,143.066l-135.753,0l0,-6.846l127.716,0l8.037,6.846Z" style="fill:#042b49;fill-rule:nonzero;"/><path d="M1600.88,136.221l16.155,0l0,6.846l-8.119,0l-8.036,-6.846Z" style="fill:#042b49;fill-rule:nonzero;"/><rect x="1472.75" y="99.614" width="0.892" height="15.327" style="fill:#042b49;"/><rect x="1463.06" y="99.614" width="8.677" height="4.764" style="fill:#e1251c;"/><rect x="1470.03" y="119.622" width="129.158" height="8.727" style="fill:#e8de82;"/><path d="M1602.46,119.622l-141.552,0l2.378,-6.04l135.899,0l3.275,6.04Z" style="fill:#e8de82;fill-rule:nonzero;"/><path d="M1581.97,128.3l-111.945,0l0,-6.846l103.909,0l8.036,6.846Z" style="fill:#042b49;fill-rule:nonzero;"/><path d="M1583.03,121.455l16.153,0l0,6.846l-8.119,0l-8.034,-6.846Z" style="fill:#042b49;fill-rule:nonzero;"/><path d="M1452.56,142.321l198.997,0c0,0 -16.073,26.142 -53.965,26.142l-148.603,0l3.571,-26.142Z" style="fill:#e1251c;fill-rule:nonzero;"/><clipPath id="_clip1"><rect x="0" y="149.203" width="2560" height="215.168"/></clipPath><g clip-path="url(#_clip1)"><path d="M0,348.101l0,-190.325c0,0 188.993,-0.917 241.413,-1.94c113.37,-2.223 117.111,5.15 193.804,5.141c52.996,-0.006 99.139,-7.364 203.231,-6.291c49.599,0.515 116.183,6.379 192.075,6.297c78.855,-0.085 138.683,-8.234 229.457,-8.543c57.62,-0.194 116.849,5.215 176.819,5.092c51.417,-0.106 114.066,-4.942 166.029,-5.092c69.637,-0.197 140.336,2.743 208.335,2.643c61.369,-0.091 119.026,-4.762 177.081,-4.901c51.724,-0.123 101.825,2.235 149.643,2.258c47.161,0.027 104.205,-3.248 146.292,-3.237c48.156,0.012 91.889,6.577 130.572,6.859c123.86,0.902 345.251,-3.622 345.251,-3.622l0,195.661l-2560,0Z" style="fill:#84c7bb;fill-opacity:0.657143;fill-rule:nonzero;"/></g><path d="M857.263,230.545c33.871,63.307 100.603,106.388 177.423,106.388c76.475,0 142.972,-42.689 176.984,-105.532" style="fill:none;stroke:#e8de82;stroke-width:8.33px;stroke-linecap:round;stroke-linejoin:round;"/><path d="M939.309,201.804c20.936,30.209 55.837,50.002 95.378,50.002c39.425,0 74.244,-19.677 95.202,-49.74" style="fill:none;stroke:#e8de82;stroke-width:8.33px;stroke-linecap:round;stroke-linejoin:round;"/><path d="M906.572,213.271c26.235,43.313 73.779,72.269 128.114,72.269c54.13,0 101.531,-28.732 127.824,-71.772" style="fill:none;stroke:#e8de82;stroke-width:8.33px;stroke-linecap:round;stroke-linejoin:round;"/><path d="M997.682,175.196c10.199,7.998 23.04,12.781 37.009,12.781c14.015,0 26.895,-4.813 37.11,-12.861" style="fill:none;stroke:#e8de82;stroke-width:8.33px;stroke-linecap:round;stroke-linejoin:round;"/><path d="M962.67,193.621c16.934,21.077 42.874,34.606 72.017,34.606c29.097,0 54.998,-13.488 71.935,-34.506" style="fill:none;stroke:#e8de82;stroke-width:8.33px;stroke-linecap:round;stroke-linejoin:round;"/><path d="M979.253,185.051c13.872,14.785 33.559,24.048 55.434,24.048c21.878,0 41.568,-9.265 55.439,-24.057" style="fill:none;stroke:#e8de82;stroke-width:8.33px;stroke-linecap:round;stroke-linejoin:round;"/><path d="M1356.61,215.221c24.509,45.807 72.793,76.98 128.376,76.98c55.335,0 103.445,-30.889 128.053,-76.359" style="fill:none;stroke:#e8de82;stroke-width:8.33px;stroke-linecap:round;stroke-linejoin:round;"/><path d="M1415.98,194.428c15.147,21.858 40.402,36.18 69.01,36.18c28.527,0 53.719,-14.239 68.883,-35.992" style="fill:none;stroke:#e8de82;stroke-width:8.33px;stroke-linecap:round;stroke-linejoin:round;"/><path d="M1392.29,202.723c18.983,31.339 53.385,52.292 92.699,52.292c39.165,0 73.462,-20.793 92.487,-51.933" style="fill:none;stroke:#e8de82;stroke-width:8.33px;stroke-linecap:round;stroke-linejoin:round;"/><path d="M1458.21,175.175c7.379,5.788 16.672,9.246 26.779,9.246c10.141,0 19.459,-3.483 26.849,-9.304" style="fill:none;stroke:#e8de82;stroke-width:8.33px;stroke-linecap:round;stroke-linejoin:round;"/><path d="M1432.88,188.506c12.253,15.249 31.021,25.039 52.109,25.039c21.051,0 39.792,-9.759 52.048,-24.968" style="fill:none;stroke:#e8de82;stroke-width:8.33px;stroke-linecap:round;stroke-linejoin:round;"/><path d="M1444.88,182.305c10.039,10.696 24.28,17.401 40.11,17.401c15.829,0 30.077,-6.705 40.112,-17.406" style="fill:none;stroke:#e8de82;stroke-width:8.33px;stroke-linecap:round;stroke-linejoin:round;"/></g></svg>